<?xml version="1.0" encoding="UTF-8"?>
<svg version="1.1" xmlns="http://www.w3.org/2000/svg" width="512" height="512">
<path d="M0 0 C1.4366231 -0.01158567 2.87320101 -0.0321402 4.30957031 -0.06152344 C14.80136998 -0.27454886 24.56598701 0.3278342 33.33691406 6.79516602 C40.37713156 13.66395306 43.03524311 21.95502796 43.21582031 31.55688477 C43.23261652 35.03441617 43.16824732 38.50621206 43.08691406 41.98266602 C43.06294941 43.8249413 43.03976245 45.66722686 43.01733398 47.50952148 C42.66573863 69.28607534 39.7890835 90.16414929 34.52441406 111.29516602 C34.24259277 112.43840332 34.24259277 112.43840332 33.95507812 113.60473633 C27.53894446 138.98334703 15.44461128 162.70534053 -2.32714844 181.96313477 C-4.23820523 184.03750005 -6.08209893 186.15041833 -7.91308594 188.29516602 C-13.27708101 194.44141037 -19.03605001 200.21613763 -25.22167969 205.53344727 C-29.91116675 209.60515759 -34.24800371 213.99418442 -38.60058594 218.42016602 C-40.14238529 219.98770492 -41.68660141 221.55287095 -43.23339844 223.11547852 C-43.95495117 223.85209717 -44.67650391 224.58871582 -45.41992188 225.34765625 C-47.22826805 227.06086022 -48.9942279 228.34726455 -51.06152344 229.71313477 C-53.64002846 231.97630396 -53.64002846 231.97630396 -53.78076172 234.44555664 C-53.68722355 237.17031825 -53.37210962 239.78537745 -52.97558594 242.48266602 C-52.85973145 243.45719727 -52.74387695 244.43172852 -52.62451172 245.43579102 C-52.26929742 248.39317898 -51.87438044 251.34338353 -51.47558594 254.29516602 C-47.63368858 285.29632235 -47.63368858 285.29632235 -53.47558594 294.29516602 C-56.8731499 298.28239335 -60.55644318 301.96450617 -64.26855469 305.65454102 C-65.34037867 306.73160993 -66.41168415 307.80919504 -67.48249817 308.88726807 C-69.72108184 311.13621686 -71.96692236 313.37759092 -74.21801758 315.61401367 C-77.08678146 318.46559507 -79.9346992 321.33701757 -82.77723217 324.21471786 C-84.98269992 326.44225756 -87.19986675 328.65786131 -89.4205265 330.87024689 C-90.47478427 331.92369051 -91.52526449 332.98093003 -92.57167625 334.04216766 C-99.05616597 340.60438193 -104.94202677 345.93204935 -114.19042969 347.86157227 C-120.66713628 347.85018965 -126.38226281 346.44375985 -131.47558594 342.29516602 C-136.47668793 335.94415973 -139.50812032 329.00290604 -142.40136719 321.51391602 C-142.83442673 320.41921997 -143.26748627 319.32452393 -143.71366882 318.19665527 C-145.08174021 314.73330556 -146.43546887 311.26457696 -147.78808594 307.79516602 C-149.16132257 304.29834531 -150.53749645 300.80270678 -151.9160614 297.3079834 C-152.77004556 295.14041612 -153.62041761 292.97142166 -154.46687317 290.80090332 C-154.84784653 289.82899048 -155.22881989 288.85707764 -155.62133789 287.85571289 C-155.9563179 286.99683472 -156.29129791 286.13795654 -156.63642883 285.25305176 C-157.31739998 283.32956353 -157.31739998 283.32956353 -158.47558594 282.29516602 C-160.51928042 282.53449999 -162.55336733 282.85593243 -164.58081055 283.20727539 C-165.21838287 283.31602493 -165.8559552 283.42477448 -166.5128479 283.53681946 C-167.90357073 283.77455298 -169.29386898 284.01478022 -170.68379021 284.25715637 C-172.89091152 284.64117473 -175.09928652 285.01694971 -177.3082428 285.39025879 C-183.59117693 286.45313504 -189.87213319 287.52720648 -196.15063477 288.6159668 C-199.98842856 289.28087943 -203.82824334 289.93285583 -207.66955757 290.57710266 C-209.12745452 290.82421242 -210.58454371 291.07614204 -212.0407238 291.33317566 C-232.84843341 295.0026366 -232.84843341 295.0026366 -241.71777344 288.82641602 C-245.39738576 285.62106483 -247.92420575 281.94930658 -249.47558594 277.29516602 C-250.0856108 268.01901813 -248.91757934 259.15750812 -247.32324219 250.04125977 C-247.10055115 248.72435677 -246.87876254 247.4073009 -246.65782166 246.09010315 C-246.08078942 242.66571786 -245.49087481 239.24367735 -244.89825439 235.82196045 C-244.41559438 233.02210703 -243.94219473 230.22072428 -243.46923161 227.41921902 C-242.49138643 221.62811588 -241.50644733 215.83821016 -240.50708008 210.05078125 C-240.24393761 208.52408058 -240.24393761 208.52408058 -239.97547913 206.96653748 C-239.55370752 204.71263872 -239.06379079 202.51042918 -238.47558594 200.29516602 C-239.08321274 200.12269852 -239.69083954 199.95023102 -240.31687927 199.77253723 C-246.46063101 197.98532633 -252.38952754 195.88206814 -258.32324219 193.49438477 C-259.21998154 193.13552689 -260.11672089 192.77666901 -261.04063416 192.40693665 C-262.92135906 191.65209428 -264.80111637 190.89483693 -266.67993164 190.13525391 C-269.53020158 188.98584549 -272.38642638 187.85221503 -275.24316406 186.71899414 C-277.08274357 185.97841776 -278.92194926 185.236912 -280.76074219 184.49438477 C-282.02205711 183.99717171 -282.02205711 183.99717171 -283.30885315 183.48991394 C-290.5965066 180.51125416 -299.2598839 176.81566937 -302.81933594 169.33422852 C-305.17349272 162.01952708 -304.94293769 156.19678616 -302.03305054 149.14015198 C-298.90184686 143.42045183 -294.07168899 139.05633515 -289.46386719 134.52172852 C-288.36918295 133.42553844 -287.27546526 132.32838238 -286.18266296 131.23031616 C-283.89986712 128.94321053 -281.60694493 126.66694221 -279.3059082 124.39819336 C-276.3731482 121.50523444 -273.46562729 118.58836648 -270.56509113 115.66314125 C-268.31366133 113.39745727 -266.05015008 111.14415975 -263.78282738 108.89439011 C-262.70654616 107.82391336 -261.63374584 106.74992389 -260.56469154 105.67222977 C-247.185428 92.22091165 -247.185428 92.22091165 -236.94262695 91.99047852 C-235.45193848 92.06344801 -233.96233602 92.1645871 -232.47558594 92.29516602 C-231.77867645 92.3515625 -231.08176697 92.40795898 -230.36373901 92.46606445 C-228.23804185 92.66593412 -226.12219455 92.91115883 -224.00292969 93.17016602 C-223.23557999 93.2589502 -222.46823029 93.34773438 -221.67762756 93.43920898 C-219.255517 93.71968157 -216.83425058 94.00664974 -214.41308594 94.29516602 C-211.98833115 94.58347601 -209.56344654 94.87012685 -207.13783264 95.15112305 C-205.63800861 95.32487287 -204.13864277 95.50264671 -202.63987732 95.68530273 C-194.05292615 97.07197164 -194.05292615 97.07197164 -186.28808594 94.70532227 C-185.68996094 93.9305957 -185.09183594 93.15586914 -184.47558594 92.35766602 C-183.71246094 91.43211914 -182.94933594 90.50657227 -182.16308594 89.55297852 C-181.73898438 89.03123047 -181.31488281 88.50948242 -180.87792969 87.97192383 C-164.25335308 68.09420932 -144.35579104 46.34848979 -122.47558594 32.29516602 C-121.81220215 31.86252441 -121.14881836 31.42988281 -120.46533203 30.98413086 C-85.0404356 8.1829543 -41.57479945 0.23244696 0 0 Z M-141.95385742 79.64306641 C-143.66765827 81.36225271 -145.38677676 83.07599185 -147.10644531 84.78930664 C-152.26446949 89.94458531 -157.36200561 95.09517202 -162.06518555 100.67651367 C-164.11754369 103.03191171 -166.36195825 105.15302982 -168.64746094 107.27954102 C-170.63071514 109.32314852 -170.63071514 109.32314852 -172.17871094 112.24829102 C-174.35338941 115.76667326 -176.04829297 117.95017609 -179.47558594 120.29516602 C-185.35838411 121.2992667 -191.46980255 119.81457855 -197.27294922 118.81079102 C-203.22739975 117.85212357 -209.22866015 117.29470632 -215.22558594 116.67016602 C-216.40290283 116.53594238 -217.58021973 116.40171875 -218.79321289 116.26342773 C-219.92073975 116.13726074 -221.0482666 116.01109375 -222.20996094 115.88110352 C-223.2022168 115.76814941 -224.19447266 115.65519531 -225.21679688 115.53881836 C-226.29219727 115.45841309 -227.36759766 115.37800781 -228.47558594 115.29516602 C-229.14585312 115.17503143 -229.8161203 115.05489685 -230.50669861 114.93112183 C-234.38025072 114.48384445 -236.64529534 114.73317965 -239.92477417 116.95291138 C-242.66443099 119.40768291 -245.21736193 121.97343608 -247.76074219 124.63110352 C-248.71011333 125.59220029 -249.66135361 126.551454 -250.61436462 127.50894165 C-252.59892677 129.51175585 -254.5681594 131.52806419 -256.52612305 133.55688477 C-259.03921592 136.16084804 -261.57577674 138.74023514 -264.12238407 141.31139183 C-266.5510336 143.76475149 -268.96935172 146.2281764 -271.38574219 148.69360352 C-272.75425072 150.08897842 -272.75425072 150.08897842 -274.15040588 151.51254272 C-274.98224899 152.373284 -275.8140921 153.23402527 -276.67114258 154.12084961 C-277.77625938 155.26002335 -277.77625938 155.26002335 -278.90370178 156.42221069 C-280.68987152 158.14296905 -280.68987152 158.14296905 -280.47558594 160.29516602 C-279.5029203 160.66981491 -279.5029203 160.66981491 -278.51060486 161.05203247 C-272.37056676 163.41996002 -266.23605637 165.80162568 -260.10724545 168.19847298 C-256.95691321 169.42995203 -253.80476098 170.6562117 -250.64770508 171.87036133 C-247.01077811 173.27210106 -243.3813894 174.69198743 -239.75292969 176.11547852 C-238.62974838 176.54386017 -237.50656708 176.97224182 -236.34934998 177.41360474 C-229.00866677 180.32049061 -222.98432579 183.13683937 -218.81333923 190.05039978 C-214.79441372 199.79844065 -217.88400548 212.82092575 -219.66308594 222.81469727 C-219.88841707 224.1334899 -220.11259541 225.45247996 -220.33569336 226.77165222 C-220.91675369 230.1904539 -221.51213949 233.60659156 -222.11120605 237.02227783 C-222.8417223 241.20310674 -223.55534162 245.38684812 -224.27101135 249.57023907 C-224.82652907 252.81608201 -225.38551894 256.06123703 -225.95092773 259.30537415 C-226.15113525 260.45805283 -226.35134277 261.61073151 -226.55761719 262.79833984 C-226.73526611 263.8145491 -226.91291504 264.83075836 -227.09594727 265.87776184 C-227.52730009 268.21662462 -227.52730009 268.21662462 -227.47558594 270.29516602 C-218.20592501 269.27109245 -209.02486115 267.93442704 -199.83496094 266.34985352 C-198.81229126 266.17415833 -197.78962158 265.99846313 -196.73596191 265.81744385 C-192.492716 265.08601168 -188.25020987 264.35078982 -184.00976562 263.60327148 C-180.86964881 263.05147386 -177.7275551 262.5123374 -174.58496094 261.97485352 C-173.64714783 261.80613739 -172.70933472 261.63742126 -171.74310303 261.46359253 C-162.89841641 259.96705736 -153.50312655 258.53578234 -145.29199219 262.83422852 C-138.82684316 268.03415483 -136.3953527 274.63737042 -133.46386719 282.18579102 C-133.00956833 283.32675232 -132.55526947 284.46771362 -132.08720398 285.64324951 C-130.64353616 289.27311566 -129.21492756 292.90865648 -127.78808594 296.54516602 C-126.34843461 300.19506743 -124.90558379 303.84362986 -123.45683289 307.4899292 C-122.55733141 309.75574463 -121.6634551 312.02380273 -120.77571106 314.29425049 C-120.37156479 315.31581238 -119.96741852 316.33737427 -119.55102539 317.38989258 C-119.19748489 318.29112854 -118.8439444 319.1923645 -118.47969055 320.12091064 C-117.56018562 322.44089376 -117.56018562 322.44089376 -115.47558594 324.29516602 C-86.17275873 302.2130071 -86.17275873 302.2130071 -69.45974731 271.73905945 C-69.28961047 262.5439178 -71.44165444 253.65284153 -74.31225586 244.96606445 C-75.68041148 240.64883718 -76.17341712 236.7946485 -76.47558594 232.29516602 C-76.64703125 231.41086914 -76.81847656 230.52657227 -76.99511719 229.61547852 C-77.36853389 226.8173427 -77.30912047 225.0153348 -76.47558594 222.29516602 C-73.3798138 218.63377156 -69.93361136 215.68060517 -66.20556641 212.68774414 C-57.65233218 205.80266822 -50.06113037 197.96445569 -42.35058594 190.17016602 C-39.87178451 187.6645943 -37.38956466 185.16248085 -34.90527344 182.66235352 C-34.07067093 181.8153035 -34.07067093 181.8153035 -33.21920776 180.95114136 C-29.79388545 177.5046428 -26.23963802 174.36809009 -22.47558594 171.29516602 C9.71070596 139.46491717 20.41138583 89.45768459 20.75878906 45.77172852 C20.76394531 44.45946289 20.76910156 43.14719727 20.77441406 41.79516602 C20.79519754 40.43839442 20.81603064 39.08162358 20.83691406 37.72485352 C20.84207031 36.43836914 20.84722656 35.15188477 20.85253906 33.82641602 C20.86655762 32.08714844 20.86655762 32.08714844 20.88085938 30.31274414 C20.48788633 26.98593121 19.88258553 25.63537836 17.52441406 23.29516602 C-36.3322894 5.34293153 -105.89448548 43.44897056 -141.95385742 79.64306641 Z " fill="#000000" transform="translate(405.4755859375,73.704833984375)"/>
<path d="M0 0 C2.03150645 1.44609143 3.87779739 2.98126324 5.734375 4.64453125 C6.33894531 5.14597656 6.94351563 5.64742187 7.56640625 6.1640625 C15.75987444 13.50069742 19.86515566 24.01555384 20.94921875 34.77734375 C21.48448376 46.72445888 17.2137016 57.77286316 9.609375 66.76953125 C0.7305508 76.21416287 -9.73879715 80.60073563 -22.640625 81.08203125 C-35.99675072 80.70178568 -46.91427134 75.51165079 -56.078125 65.89453125 C-63.51778937 56.80550733 -66.68849934 45.80827035 -66.140625 34.20703125 C-64.73909388 20.5139111 -58.86476268 11.21803833 -48.5625 2.40234375 C-35.01782257 -7.96348081 -14.5726581 -8.71846958 0 0 Z M-40.0390625 25.86328125 C-43.79701225 31.32068598 -43.98778385 36.12704763 -43.265625 42.64453125 C-41.33195828 49.17065644 -37.41721228 53.38880624 -31.41796875 56.6484375 C-26.26524749 58.93284474 -21.68845972 59.19661658 -16.265625 57.64453125 C-10.37137866 54.9321347 -5.95648999 51.30294823 -3.19140625 45.3203125 C-1.40467639 40.15613549 -1.15854045 34.46213271 -3.17578125 29.328125 C-6.29310187 24.04571996 -10.23857072 20.36258909 -15.578125 17.33203125 C-25.83679506 14.7077203 -33.46766891 17.78670812 -40.0390625 25.86328125 Z " fill="#000000" transform="translate(368.265625,139.35546875)"/>
<path d="M0 0 C2.653052 1.14219421 5.226301 2.3807551 7.80224609 3.6875 C8.72432861 4.14237793 9.64641113 4.59725586 10.59643555 5.06591797 C43.92378036 21.81312123 67.63132981 49.95638193 81.48974609 84.1875 C82.06101304 88.18636864 81.6781878 89.82457524 79.80224609 93.4375 C77.30566109 96.4064119 76.25439522 97.41745813 72.48974609 98.1875 C65.78140865 98.29398155 65.78140865 98.29398155 62.91455078 95.83813477 C59.26706742 91.50999392 56.8746112 87.25708542 54.67724609 82.0625 C51.0849413 74.06988164 46.89699923 67.1187486 41.48974609 60.1875 C41.04646973 59.61402832 40.60319336 59.04055664 40.14648438 58.44970703 C26.63159119 41.20916282 9.1789097 29.9174986 -10.58447266 20.890625 C-13.82228997 19.00586085 -15.50800032 17.34140779 -17.51025391 14.1875 C-18.22689149 11.11017391 -18.0833951 8.28920527 -17.51025391 5.1875 C-13.28197884 -1.57774011 -7.38182879 -2.38929452 0 0 Z " fill="#000000" transform="translate(211.51025390625,230.8125)"/>
<path d="M0 0 C4.02720898 2.1275821 6.30352585 3.78710138 8 8 C8.58980866 11.28693844 8.1487451 13.87280706 7 17 C3.87079885 21.26345639 0.14553444 24.86045814 -3.640625 28.52734375 C-4.72734105 29.60674194 -5.81250257 30.68770723 -6.8961792 31.77015686 C-9.16409472 34.02733917 -11.44449023 36.27076459 -13.73583984 38.50415039 C-16.66785562 41.36248104 -19.57526459 44.24432517 -22.47473526 47.13562679 C-24.71259607 49.36489078 -26.95861427 51.58577275 -29.20763397 53.80377388 C-30.28238295 54.86398422 -31.355628 55.92572141 -32.42731476 56.98902702 C-33.92743055 58.47316889 -35.43712731 59.94680384 -36.95019531 61.41772461 C-37.80655579 62.25661728 -38.66291626 63.09550995 -39.54522705 63.95982361 C-43.19238147 66.99099533 -45.76226529 68.02210241 -50.5 67.9375 C-54.81036857 66.78293699 -56.38833491 65.61024292 -59 62 C-60.51801768 57.76552962 -60.5286961 55.13562475 -58.60913086 51.01245117 C-55.31929585 45.41394175 -50.48793896 41.07743831 -45.90625 36.54296875 C-44.91212682 35.54936508 -43.91852375 34.5552408 -42.92541504 33.56062317 C-40.85225911 31.48755652 -38.77407396 29.41971531 -36.69189453 27.35571289 C-34.0269524 24.7135306 -31.37330569 22.06033715 -28.72309113 19.40339184 C-26.6765564 17.35351342 -24.62506202 15.3086592 -22.57194519 13.26537514 C-21.59143955 12.28870928 -20.61226745 11.31070269 -19.63447571 10.33131981 C-18.26840583 8.96487821 -16.89509488 7.60568736 -15.52148438 6.24682617 C-14.74301147 5.47296066 -13.96453857 4.69909515 -13.16247559 3.90177917 C-8.9020693 0.15498453 -5.68983612 -0.58860374 0 0 Z " fill="#000000" transform="translate(128,280)"/>
<path d="M0 0 C2.57342854 1.9852163 3.98043246 3.65582721 4.62890625 6.88671875 C4.68884766 8.11841797 4.68884766 8.11841797 4.75 9.375 C4.81316406 10.18324219 4.87632812 10.99148438 4.94140625 11.82421875 C2.05130922 22.80059762 -12.96837565 33.18281673 -20.84545898 41.12548828 C-22.78833472 43.08626204 -24.72230365 45.05523187 -26.64916992 47.03173828 C-29.44576173 49.90021919 -32.26664365 52.7436374 -35.08984375 55.5859375 C-35.94529282 56.46921722 -36.80074188 57.35249695 -37.68211365 58.26254272 C-42.54171945 63.10565906 -45.88049758 65.99108338 -52.8125 66.6875 C-56.77977959 65.5818647 -59.0170036 64.5856411 -61.75 61.5 C-63.16855497 57.74500154 -63.81096588 54.58251599 -62.8125 50.6875 C-61.57122803 48.88548279 -61.57122803 48.88548279 -59.89746094 47.06030273 C-59.26014038 46.36379608 -58.62281982 45.66728943 -57.96618652 44.94967651 C-53.97419763 40.75659483 -49.91930357 36.63142152 -45.828125 32.53515625 C-44.88117545 31.58498539 -43.93429772 30.63474296 -42.98748779 29.68443298 C-41.01929546 27.71030275 -39.04909859 25.73819883 -37.07763672 23.76733398 C-34.55178954 21.2415893 -32.0329452 18.70897958 -29.51572037 16.17464542 C-27.57005256 14.2178793 -25.6198773 12.26565452 -23.66838837 10.31469536 C-22.28549379 8.93005019 -20.90714597 7.54086883 -19.52886963 6.15162659 C-18.69079773 5.31663132 -17.85272583 4.48163605 -16.98925781 3.62133789 C-16.2531427 2.88379776 -15.51702759 2.14625763 -14.75860596 1.3863678 C-10.50413942 -2.32760069 -4.97251745 -2.32050814 0 0 Z " fill="#000000" transform="translate(153.8125,364.3125)"/>
<path d="M0 0 C2.87029869 1.79393668 4.49131638 2.98263276 6 6 C6.23828125 7.953125 6.23828125 7.953125 6.3125 10.25 C6.36857422 11.37148438 6.36857422 11.37148438 6.42578125 12.515625 C5.13257431 20.06130952 -2.48163945 25.77027476 -7.62109375 30.88671875 C-8.56776116 31.83473568 -9.5141317 32.78304914 -10.46022034 33.73164368 C-12.43647599 35.71083564 -14.4162721 37.68639636 -16.39868164 39.65942383 C-18.93174664 42.18107954 -21.45570441 44.7116304 -23.97708035 47.24496746 C-25.92691004 49.20204283 -27.88150123 51.15430686 -29.83754158 53.10517311 C-31.22108656 54.48674719 -32.60062585 55.87232895 -33.98008728 57.25798035 C-34.82769119 58.09927994 -35.6752951 58.94057953 -36.54858398 59.80737305 C-37.65966774 60.91607002 -37.65966774 60.91607002 -38.79319763 62.04716492 C-42.96502109 65.73887892 -46.27609333 67.62482068 -52 67.4296875 C-55.61068185 66.65395507 -57.45265225 64.60947818 -60 62 C-61.65345935 58.69308129 -61.75045838 55.54846492 -61 52 C-59.77217102 50.17967224 -59.77217102 50.17967224 -58.0949707 48.36108398 C-57.13731308 47.31886185 -57.13731308 47.31886185 -56.16030884 46.25558472 C-52.15018475 42.06860254 -48.08457869 37.94251664 -43.98046875 33.84765625 C-43.03104843 32.89756065 -42.08177646 31.9473168 -41.13264465 30.99693298 C-39.16011503 29.02294123 -37.18581861 27.05073914 -35.21020508 25.07983398 C-32.67702339 22.552396 -30.14842172 20.0204305 -27.62108898 17.48714542 C-25.66955192 15.53200245 -23.71564907 13.57923782 -21.76101112 11.62719536 C-20.37368135 10.24085585 -18.98836335 8.85250409 -17.60307312 7.46412659 C-16.34585197 6.21163368 -16.34585197 6.21163368 -15.06323242 4.93383789 C-14.3248967 4.19629776 -13.58656097 3.45875763 -12.82585144 2.6988678 C-9.05915993 -0.80585924 -4.92442959 -0.63787948 0 0 Z " fill="#000000" transform="translate(235,386)"/>
</svg>
