<svg width="24" height="31" viewBox="0 0 24 31" fill="none" xmlns="http://www.w3.org/2000/svg">
<path d="M1.33345 0.827079C1.72071 0.926779 1.87887 1.09343 2.11211 1.39905C2.15285 1.44972 2.19359 1.50038 2.23557 1.55258C2.59126 1.99918 2.93145 2.45844 3.27101 2.91736C3.58979 3.34708 3.92069 3.76488 4.25993 4.1786C4.71002 4.72759 5.14655 5.28442 5.57726 5.84882C5.81954 6.16489 6.06431 6.47904 6.30888 6.79334C6.38778 6.89474 6.38778 6.89474 6.46827 6.99818C6.94243 7.60705 7.41897 8.21402 7.89641 8.82032C8.47901 9.56016 9.05899 10.3019 9.63675 11.0456C10.0314 11.5532 10.4277 12.0595 10.8256 12.5646C10.9921 12.776 11.1577 12.988 11.3228 13.2004C11.3662 13.2561 11.4096 13.3119 11.4544 13.3693C11.5371 13.4754 11.6196 13.5816 11.7019 13.688C11.9128 13.9583 12.1304 14.2089 12.3788 14.4453C12.407 14.4061 12.4352 14.367 12.4642 14.3266C13.0175 13.5574 13.5735 12.7904 14.1366 12.0283C14.5831 11.4242 15.0249 10.8168 15.4637 10.2071C15.7625 9.79242 16.0641 9.37987 16.3678 8.96879C16.5235 8.75807 16.6786 8.547 16.8338 8.33589C17.0168 8.08699 17.2017 7.83967 17.3886 7.59363C17.9124 6.89669 18.3114 6.2845 18.262 5.3816C18.156 4.67616 17.8643 4.23845 17.335 3.77039C16.6545 3.33115 16.0131 3.33346 15.2247 3.33728C15.1047 3.33692 14.9846 3.33644 14.8646 3.33585C14.6074 3.33483 14.3502 3.3346 14.093 3.335C13.6864 3.33561 13.2798 3.33421 12.8732 3.33251C11.9373 3.32891 11.0015 3.3279 10.0656 3.32693C9.2064 3.326 8.34717 3.32453 7.48794 3.32094C7.08359 3.31933 6.67928 3.31899 6.27493 3.31962C6.0239 3.31975 5.77288 3.3188 5.52185 3.31756C5.34966 3.31704 5.17748 3.31784 5.00529 3.31866C4.85208 3.31758 4.85208 3.31758 4.69578 3.31648C4.60684 3.31642 4.51791 3.31636 4.42628 3.31629C4.17057 3.27806 4.09483 3.22307 3.94133 3.01954C3.83973 2.78508 3.84839 2.68566 3.91936 2.43726C4.02922 2.22852 4.02922 2.22852 4.29289 2.05274C4.51181 2.03038 4.51181 2.03038 4.77796 2.02983C4.87886 2.02921 4.97975 2.02858 5.0837 2.02794C5.19451 2.02816 5.30532 2.02838 5.41948 2.0286C5.53731 2.02822 5.65513 2.02776 5.77295 2.02724C6.09333 2.02606 6.4137 2.02601 6.73407 2.02624C7.00201 2.02633 7.26995 2.0259 7.53788 2.02548C8.17088 2.0245 8.80388 2.02447 9.43688 2.025C10.0879 2.02553 10.739 2.02445 11.3901 2.02257C11.9501 2.02102 12.5102 2.0205 13.0702 2.02078C13.4042 2.02094 13.7381 2.02072 14.0721 2.01949C14.387 2.01838 14.7019 2.01856 15.0168 2.0197C15.1858 2.02001 15.3548 2.01902 15.5238 2.01798C16.5611 2.02418 17.4496 2.17743 18.2675 2.84376C18.3226 2.88794 18.3776 2.93213 18.4344 2.97765C19.1287 3.59924 19.4705 4.46102 19.5749 5.37302C19.6318 6.84017 18.824 7.88 17.9718 8.98327C17.7307 9.29968 17.4994 9.62309 17.2677 9.94642C16.8215 10.5673 16.3697 11.1838 15.9151 11.7987C15.5168 12.3383 15.1232 12.8812 14.733 13.4267C14.4954 13.7576 14.2538 14.0839 14.0034 14.4052C13.9539 14.4692 13.9043 14.5332 13.8533 14.5992C13.7588 14.7208 13.6633 14.8417 13.5669 14.9617C13.3253 15.243 13.3253 15.243 13.2799 15.5907C13.3818 15.8588 13.5528 16.0557 13.7301 16.28C13.7694 16.3301 13.8087 16.3801 13.8492 16.4317C13.9738 16.5903 14.0992 16.7483 14.2245 16.9063C14.3013 17.0038 14.378 17.1014 14.4546 17.1991C14.6125 17.4005 14.7707 17.6016 14.929 17.8027C15.223 18.1765 15.5148 18.5521 15.8066 18.9277C16.1715 19.3975 16.5372 19.8666 16.9052 20.334C17.2732 20.8014 17.6389 21.2705 18.0038 21.7402C18.5288 22.4159 19.0565 23.0895 19.5859 23.7617C20.1685 24.5016 20.7484 25.2434 21.3262 25.987C21.6441 26.3959 21.9628 26.8042 22.283 27.2114C22.3213 27.2601 22.3596 27.3088 22.399 27.359C22.6053 27.6212 22.8118 27.8831 23.0184 28.1449C23.0626 28.201 23.1068 28.2571 23.1524 28.315C23.2371 28.4224 23.3219 28.5298 23.4068 28.6372C23.8856 29.245 23.8856 29.245 23.9255 29.557C23.8925 29.8262 23.8925 29.8262 23.7497 30.0349C23.4789 30.2202 23.3371 30.2154 23.0136 30.1777C22.82 30.0256 22.82 30.0256 22.6401 29.8097C22.5723 29.7291 22.5046 29.6486 22.4348 29.5656C22.1428 29.1985 21.8541 28.8293 21.571 28.4553C21.345 28.1568 21.1142 27.8624 20.8822 27.5685C20.5068 27.092 20.1337 26.6138 19.7616 26.1348C19.2367 25.4591 18.709 24.7855 18.1796 24.1133C17.597 23.3735 17.017 22.6317 16.4393 21.888C15.9669 21.2804 15.4917 20.675 15.0155 20.0703C14.4773 19.3868 13.9406 18.7022 13.4061 18.0159C13.3555 17.9511 13.305 17.8863 13.253 17.8196C12.9276 17.4014 12.6074 16.9797 12.2909 16.5547C11.9616 16.6645 11.8788 16.8003 11.6647 17.0711C11.5947 17.1587 11.5247 17.2464 11.4525 17.3368C11.3812 17.4267 11.3098 17.5167 11.2363 17.6094C11.1047 17.7708 10.9729 17.9319 10.8407 18.0928C10.7755 18.1725 10.7102 18.2523 10.643 18.3345C10.1816 18.8984 9.72014 19.4624 9.25871 20.0264C9.19311 20.1067 9.12752 20.187 9.05993 20.2698C8.93213 20.4257 8.80375 20.5811 8.67472 20.736C8.14818 21.3707 7.65092 22.0249 7.16123 22.6882C7.06208 22.8224 6.9627 22.9566 6.86314 23.0905C6.70698 23.3009 6.55176 23.512 6.39677 23.7233C6.32451 23.8205 6.32451 23.8205 6.25078 23.9197C5.81275 24.5212 5.50468 25.1088 5.52336 25.8711C5.62139 26.484 5.85887 27.0243 6.31438 27.4531C6.97222 27.8895 7.60582 27.9911 8.3879 27.992C8.55721 27.9925 8.55721 27.9925 8.72994 27.9931C8.85347 27.993 8.977 27.993 9.10053 27.9929C9.23181 27.9932 9.36309 27.9935 9.49437 27.9939C9.77612 27.9946 10.0579 27.995 10.3396 27.9953C10.785 27.9958 11.2304 27.9973 11.6757 27.9989C11.8284 27.9995 11.981 28 12.1337 28.0006C12.2483 28.001 12.2483 28.001 12.3652 28.0014C13.4015 28.0051 14.4378 28.008 15.4741 28.0091C16.174 28.0099 16.874 28.0118 17.574 28.0152C17.9442 28.017 18.3145 28.018 18.6847 28.0176C19.0325 28.0172 19.3801 28.0184 19.7279 28.0209C19.8556 28.0215 19.9833 28.0215 20.1111 28.0208C20.2851 28.0201 20.4591 28.0216 20.6332 28.0233C20.7306 28.0236 20.8281 28.0238 20.9285 28.024C21.1679 28.0684 21.1679 28.0684 21.3338 28.227C21.4821 28.5196 21.4241 28.725 21.3437 29.0352C21.0306 29.2438 20.8964 29.2334 20.5249 29.2344C20.4683 29.2348 20.4118 29.2352 20.3535 29.2357C20.1637 29.2368 19.9738 29.2366 19.784 29.2365C19.648 29.237 19.512 29.2376 19.376 29.2383C19.006 29.2398 18.6361 29.2402 18.2661 29.2403C18.0347 29.2405 17.8033 29.2408 17.5719 29.2413C16.7638 29.2429 15.9556 29.2437 15.1474 29.2435C14.3957 29.2434 13.644 29.2453 12.8923 29.248C12.2461 29.2503 11.5998 29.2513 10.9535 29.2512C10.568 29.2511 10.1824 29.2516 9.79689 29.2535C9.43351 29.2552 9.07016 29.2552 8.70678 29.2539C8.57414 29.2537 8.4415 29.2541 8.30886 29.2552C7.13046 29.2641 6.13045 29.0898 5.25969 28.2441C4.48389 27.4299 4.23792 26.5843 4.25152 25.4809C4.27307 24.9368 4.3693 24.501 4.64445 24.0254C4.68513 23.9535 4.7258 23.8815 4.76771 23.8074C5.18847 23.1109 5.69102 22.4681 6.18456 21.8223C6.30173 21.6689 6.41821 21.515 6.53445 21.3609C7.09119 20.628 7.67477 19.9186 8.26235 19.2104C8.53113 18.8861 8.79876 18.5608 9.06645 18.2356C9.11799 18.173 9.16954 18.1104 9.22264 18.046C9.56938 17.6249 9.91594 17.2037 10.2598 16.7803C10.3945 16.6165 10.5312 16.4544 10.6691 16.2934C10.742 16.2074 10.815 16.1214 10.8902 16.0328C10.9565 15.9559 11.0227 15.879 11.091 15.7997C11.2694 15.5824 11.2694 15.5824 11.2363 15.2363C11.1069 15.0457 10.9766 14.8743 10.8298 14.698C10.7406 14.588 10.6516 14.4779 10.5627 14.3677C10.515 14.3092 10.4674 14.2508 10.4184 14.1905C10.159 13.8689 9.90706 13.5416 9.65422 13.2149C9.12938 12.539 8.60157 11.8656 8.07219 11.1934C7.48959 10.4535 6.90961 9.71174 6.33184 8.96812C5.85951 8.36044 5.38429 7.75507 4.90813 7.1504C4.32544 6.41045 3.74519 5.66869 3.16759 4.92477C2.89112 4.56889 2.61361 4.21391 2.334 3.86051C2.17825 3.66327 2.02359 3.46519 1.86908 3.26699C1.7799 3.15316 1.6902 3.03974 1.60017 2.92658C1.45098 2.73877 1.30353 2.5497 1.1563 2.36036C1.10972 2.30245 1.06314 2.24454 1.01515 2.18488C0.806294 1.91324 0.696451 1.75578 0.651611 1.4097C0.689377 1.17384 0.689377 1.17384 0.826706 0.959602C1.04094 0.822273 1.04094 0.822273 1.33345 0.827079Z" fill="white"/>
<path d="M12.3673 18.436C12.8453 18.5691 13.1528 19.1144 13.4446 19.4935C13.5303 19.6037 13.616 19.7139 13.7018 19.8241C13.745 19.8799 13.7882 19.9357 13.8328 19.9931C13.9914 20.1973 14.1512 20.4004 14.3112 20.6034C14.824 21.254 15.3325 21.9079 15.8407 22.5621C16.103 22.8998 16.3661 23.2369 16.6295 23.5738C16.7829 23.7706 16.9355 23.9679 17.088 24.1654C17.2893 24.426 17.4937 24.6836 17.7004 24.9399C17.798 25.0635 17.8955 25.1871 17.993 25.3107C18.0385 25.3658 18.0841 25.4209 18.131 25.4776C18.3474 25.7559 18.4748 25.9723 18.499 26.329C18.4434 26.662 18.4434 26.662 18.2786 26.8559C17.8778 27.086 17.5243 27.0621 17.0696 27.0577C16.9285 27.0584 16.9285 27.0584 16.7845 27.0591C16.4735 27.0602 16.1626 27.0588 15.8516 27.0572C15.6352 27.0572 15.4188 27.0574 15.2024 27.0576C14.7487 27.0577 14.295 27.0566 13.8413 27.0546C13.2605 27.0521 12.6798 27.0524 12.0991 27.0535C11.652 27.0541 11.205 27.0534 10.7579 27.0523C10.5439 27.0519 10.3298 27.0519 10.1157 27.0522C9.81596 27.0525 9.51625 27.051 9.21648 27.0491C9.12848 27.0495 9.04047 27.0499 8.9498 27.0503C8.36453 27.0441 7.83099 26.9888 7.36402 26.5989C7.32403 26.5472 7.28403 26.4956 7.24283 26.4423C7.20125 26.3907 7.15967 26.339 7.11683 26.2858C6.92841 25.9989 6.91329 25.7381 6.90775 25.4041C6.90435 25.2823 6.90435 25.2823 6.90088 25.158C6.96184 24.6217 7.28552 24.2346 7.61636 23.8276C7.70339 23.7187 7.79036 23.6097 7.87729 23.5007C7.92329 23.4433 7.96929 23.3858 8.01668 23.3267C8.26689 23.0124 8.51272 22.6948 8.75894 22.3774C8.86353 22.2428 8.96813 22.1082 9.07274 21.9736C9.17871 21.8372 9.28469 21.7008 9.39066 21.5644C9.75205 21.0992 10.1136 20.634 10.4756 20.1693C10.572 20.0455 10.6683 19.9217 10.7646 19.7979C10.8979 19.6267 11.0314 19.4557 11.1649 19.2847C11.2041 19.2343 11.2433 19.184 11.2836 19.132C11.8081 18.4623 11.8081 18.4623 12.3673 18.436Z" fill="white"/>
</svg>
