<svg width="30" height="30" viewBox="0 0 30 30" fill="none" xmlns="http://www.w3.org/2000/svg">
<path d="M16.0825 26.1885C17.1674 26.0852 18.2412 25.8244 19.271 25.3955L19.7817 25.167L19.7935 25.1611L20.4028 24.8418L20.5151 24.7803L20.521 24.7764C20.8478 24.5943 21.1722 24.3896 21.4907 24.168C19.9165 25.2999 18.0405 26.0167 16.1079 26.1885C16.0995 26.1889 16.091 26.1881 16.0825 26.1885ZM14.8198 3.79785C14.4618 3.80145 14.1026 3.82221 13.7437 3.86133L13.2017 3.93457L13.187 3.93652L13.1724 3.93945C11.8845 4.1851 10.713 4.59031 9.55225 5.20996C9.49212 5.24176 9.43157 5.27388 9.36963 5.30664L9.35205 5.31641C6.9853 6.63091 5.2601 8.83424 4.37549 11.3203L4.20947 11.8213L4.20654 11.8311L4.20361 11.8398C3.41795 14.5977 3.68068 17.4994 4.96143 20.0674V20.0684L5.01514 20.1787L5.01611 20.1807C6.25735 22.7036 8.49217 24.5788 11.062 25.5439C10.7204 25.4223 10.3827 25.2814 10.0474 25.1201L9.70947 24.9502H9.7085C9.61449 24.9009 9.52092 24.8534 9.43213 24.8086C7.80289 23.9635 6.37348 22.568 5.39795 20.9727L5.2085 20.6514V20.6504L5.08252 20.4307C3.63452 17.9404 3.3691 14.8863 4.0708 12.04C4.65084 9.90784 5.87645 7.94838 7.54541 6.51465L7.88525 6.23438L7.89404 6.22754C7.95183 6.18088 8.00939 6.13394 8.06885 6.08594C9.6715 4.80605 11.8152 3.92804 13.8413 3.81348L14.2446 3.80078H14.2476C14.3214 3.80016 14.3215 3.80044 14.397 3.7998L14.396 3.79883C14.5492 3.79784 14.69 3.7986 14.8198 3.79785ZM24.9136 20.1875C24.8761 20.2674 24.8367 20.3398 24.7896 20.4219L24.6187 20.7168V20.7178C24.5975 20.7551 24.5759 20.7927 24.5542 20.8311C24.3715 21.1482 24.1649 21.449 23.939 21.7471C24.2518 21.31 24.5265 20.8618 24.7827 20.3896L24.7837 20.3906C24.8527 20.2661 24.9051 20.1735 24.9468 20.1006C24.937 20.1256 24.9286 20.1554 24.9136 20.1875ZM24.5532 8.74414L24.5103 8.74512L24.0034 8.74609H24.0005L23.6431 8.74707L22.896 8.74805L21.9302 8.75195C21.6924 8.75321 21.4541 8.75298 21.2144 8.75293L21.3013 8.75195C21.5901 8.74569 21.8792 8.74012 22.1685 8.73438L24.4966 8.6875L24.5532 8.74414ZM24.98 5.83984L24.981 6.83887V7.96973L24.98 8.47266V8.48535C24.9803 8.53323 24.9806 8.57291 24.981 8.62012C24.9805 8.6671 24.975 8.70011 24.9731 8.72363C24.9658 8.72527 24.9572 8.72691 24.9468 8.72852L24.9644 6.74707L24.9663 6.62793L24.98 5.39453V5.39355C24.9806 5.34736 24.9804 5.30108 24.981 5.25488L24.98 5.83984ZM14.8364 3.79785C15.5865 3.79359 15.9664 3.79294 16.2417 3.81055C16.3821 3.81953 16.4903 3.83321 16.6196 3.85645L17.1226 3.96387L17.1284 3.96484C17.1795 3.9761 17.2311 3.98647 17.2837 3.99805V3.99902C18.6803 4.31474 20.0193 4.84167 21.1538 5.625L21.3784 5.78516L21.3823 5.78809C21.4414 5.83128 21.5013 5.87357 21.562 5.91797V5.91895C21.7256 6.04056 21.8843 6.16953 22.0415 6.30176C21.9236 6.20794 21.7823 6.09766 21.5767 5.94043L21.5581 5.92578L21.5396 5.91309L21.4126 5.8252L21.4058 5.82031L20.9526 5.52637C19.1187 4.39621 16.9964 3.7794 14.8364 3.79785Z" fill="#2A2B41" stroke="#2A2B41" stroke-width="2"/>
<path d="M15.0452 14.2651C15.1572 14.6228 15.2963 15.015 15.4622 15.4741L15.3733 15.3853L15.1399 15.1489L15.0461 15.0552V14.8022L15.0452 14.6362C15.0446 14.513 15.0452 14.3895 15.0452 14.2651Z" fill="#2A2B41" stroke="#2A2B41" stroke-width="2"/>
</svg>
