<svg width="30" height="16" viewBox="0 0 30 16" fill="none" xmlns="http://www.w3.org/2000/svg">
<mask id="path-1-inside-1_229_48" fill="white">
<path d="M14.5216 0.932617C14.7888 0.950591 14.958 1.0778 15.1538 1.25053C15.2253 1.31007 15.2967 1.36958 15.3683 1.42906C15.4223 1.475 15.4223 1.475 15.4775 1.52187C15.6481 1.66536 15.8239 1.80199 15.9997 1.93901C16.0682 1.99279 16.1366 2.04658 16.205 2.10037C16.4293 2.27601 16.6551 2.44944 16.8812 2.62269C17.1148 2.80204 17.3468 2.9835 17.5781 3.16582C17.8664 3.39294 18.1561 3.61795 18.4474 3.8413C18.8559 4.15485 19.2618 4.47164 19.6681 4.78802C19.8894 4.96026 20.1107 5.13237 20.332 5.30449C20.4199 5.37285 20.5078 5.44121 20.5957 5.50957C20.6392 5.54341 20.6827 5.57724 20.7275 5.61211C20.9253 5.76591 20.9253 5.76591 21.123 5.91972C21.1666 5.95359 21.2101 5.98747 21.255 6.02236C21.3424 6.09037 21.4299 6.1584 21.5173 6.22644C21.7439 6.40289 21.9709 6.57896 22.1983 6.75446C22.2451 6.79067 22.292 6.82689 22.3402 6.8642C22.4288 6.93268 22.5174 7.00105 22.6062 7.06928C22.8171 7.23254 23.0254 7.39877 23.2299 7.56996C23.2682 7.60188 23.3066 7.6338 23.3461 7.66669C23.4485 7.77731 23.4767 7.84857 23.4997 7.99614C23.4674 8.27712 23.2851 8.41019 23.074 8.57933C23.0199 8.62012 22.9659 8.6609 22.9101 8.70293C22.8549 8.74613 22.7996 8.78933 22.7426 8.83385C22.6173 8.93114 22.4917 9.02774 22.3654 9.12361C22.1219 9.30857 21.8806 9.49642 21.6394 9.68437C21.5488 9.75487 21.4583 9.82536 21.3677 9.89586C21.3224 9.93117 21.277 9.96648 21.2303 10.0029C21.0091 10.1751 20.7877 10.3472 20.5664 10.5193C20.4785 10.5877 20.3906 10.6561 20.3027 10.7244C19.0723 11.6814 17.8418 12.6385 16.6113 13.5955C16.5678 13.6294 16.5242 13.6633 16.4793 13.6982C16.392 13.7661 16.3046 13.8338 16.2171 13.9013C15.9871 14.0791 15.7601 14.2595 15.536 14.4447C15.4892 14.4827 15.4424 14.5208 15.3941 14.56C15.3047 14.6328 15.216 14.7064 15.1282 14.7811C14.9298 14.9411 14.7745 15.0542 14.5152 15.0718C14.2969 15.0311 14.2969 15.0311 14.1675 14.9118C14.0344 14.6916 14.0326 14.5102 14.0396 14.2609C14.0399 14.2158 14.0403 14.1707 14.0406 14.1242C14.0419 13.9809 14.0448 13.8377 14.0478 13.6944C14.049 13.5969 14.0501 13.4995 14.051 13.402C14.0536 13.1637 14.0577 12.9255 14.0625 12.6873C13.9559 12.6876 13.9559 12.6876 13.8472 12.688C12.1613 12.693 10.4755 12.6969 8.78959 12.6993C8.58217 12.6996 8.37476 12.6999 8.16735 12.7002C8.12605 12.7002 8.08476 12.7003 8.04222 12.7004C7.37324 12.7014 6.70426 12.7032 6.03529 12.7054C5.34907 12.7076 4.66285 12.7089 3.97663 12.7094C3.5911 12.7097 3.20558 12.7104 2.82005 12.7121C2.45743 12.7137 2.09483 12.7142 1.7322 12.7138C1.59889 12.7139 1.46557 12.7143 1.33226 12.7152C1.15066 12.7164 0.969114 12.7161 0.787513 12.7155C0.734392 12.7162 0.68127 12.7169 0.626538 12.7176C0.270345 12.7141 0.270346 12.7141 0.0846746 12.5757C-0.00629939 12.4438 -0.0332843 12.3773 -0.0329742 12.2186C-0.0342583 12.1799 -0.0355423 12.1412 -0.0368652 12.1014C0.0233764 11.9098 0.123406 11.8548 0.292953 11.7498C0.486368 11.7151 0.677347 11.7179 0.873426 11.7196C0.932331 11.7192 0.991235 11.7188 1.05192 11.7184C1.24954 11.7173 1.44711 11.7179 1.64473 11.7185C1.78631 11.7181 1.92788 11.7176 2.06946 11.717C2.41422 11.7158 2.75897 11.7158 3.10373 11.7162C3.38392 11.7166 3.66411 11.7165 3.94431 11.7162C3.98419 11.7161 4.02407 11.7161 4.06516 11.716C4.14617 11.7159 4.22719 11.7158 4.3082 11.7157C5.06787 11.7147 5.82754 11.7152 6.58721 11.7162C7.28227 11.7171 7.97732 11.7162 8.67239 11.7145C9.3861 11.7128 10.0998 11.7121 10.8135 11.7127C10.8942 11.7128 10.9749 11.7128 11.0557 11.7129C11.0954 11.7129 11.1351 11.7129 11.176 11.713C11.4559 11.7131 11.7357 11.7125 12.0156 11.7117C12.3922 11.7105 12.7689 11.7109 13.1456 11.7124C13.284 11.7127 13.4223 11.7125 13.5607 11.7117C13.7494 11.7108 13.9379 11.7117 14.1265 11.713C14.1816 11.7123 14.2366 11.7116 14.2933 11.7109C14.5581 11.7147 14.6713 11.7224 14.8874 11.8881C15.0202 12.0705 15.038 12.1679 15.0414 12.3918C15.0431 12.457 15.0448 12.5221 15.0466 12.5892C15.0469 12.6566 15.0472 12.724 15.0476 12.7935C15.0498 12.8963 15.0498 12.8963 15.0521 13.0012C15.0555 13.17 15.0576 13.3388 15.0586 13.5076C15.565 13.1323 16.0661 12.7523 16.5568 12.3567C16.8143 12.1493 17.0745 11.9461 17.3371 11.7451C17.6077 11.538 17.8769 11.3292 18.1457 11.1199C18.1904 11.0852 18.235 11.0504 18.281 11.0147C18.3723 10.9436 18.4635 10.8725 18.5548 10.8014C18.7761 10.6292 18.9974 10.4571 19.2187 10.285C19.3066 10.2166 19.3945 10.1482 19.4824 10.0799C19.6582 9.94316 19.834 9.80644 20.0098 9.66972C20.0533 9.63583 20.0969 9.60194 20.1418 9.56703C20.229 9.49919 20.3162 9.43135 20.4035 9.36352C20.6334 9.18466 20.8634 9.00575 21.0933 8.82675C21.1412 8.78948 21.1891 8.7522 21.2384 8.7138C21.3301 8.6424 21.4218 8.57099 21.5135 8.49957C21.5756 8.45124 21.5756 8.45124 21.6389 8.40195C21.6752 8.37372 21.7114 8.3455 21.7488 8.31642C21.8617 8.22937 21.9756 8.14371 22.0898 8.0584C22.0259 7.86657 21.9943 7.83883 21.8385 7.72354C21.7983 7.69335 21.758 7.66316 21.7166 7.63206C21.673 7.59994 21.6294 7.56781 21.5845 7.53471C21.493 7.46613 21.4016 7.39747 21.3103 7.32872C21.2641 7.29401 21.2178 7.25931 21.1702 7.22355C20.9709 7.07209 20.7758 6.91563 20.581 6.75835C20.2881 6.52242 19.9929 6.29014 19.6941 6.06153C19.4235 5.85445 19.1543 5.64563 18.8855 5.43633C18.8411 5.40176 18.7967 5.3672 18.7509 5.33158C18.5679 5.18914 18.3849 5.04666 18.202 4.90417C18.0661 4.79834 17.9301 4.69252 17.7942 4.58672C17.7281 4.53527 17.7281 4.53527 17.6606 4.48279C17.4043 4.28343 17.1473 4.08489 16.8896 3.88725C16.6281 3.68655 16.3684 3.48361 16.1096 3.27934C15.7443 2.9911 15.3737 2.71062 15 2.4334C15.0009 2.47832 15.0018 2.52324 15.0028 2.56952C15.0064 2.77317 15.0087 2.9768 15.011 3.18047C15.0132 3.28651 15.0132 3.28651 15.0154 3.3947C15.016 3.46268 15.0166 3.53065 15.0172 3.60069C15.0181 3.66329 15.019 3.72589 15.0199 3.79038C14.9973 3.97933 14.9572 4.05711 14.8242 4.19121C14.6634 4.24482 14.569 4.25727 14.4034 4.25767C14.3532 4.25793 14.3031 4.25819 14.2514 4.25846C14.1962 4.25845 14.1411 4.25844 14.0843 4.25842C14.0257 4.25864 13.9671 4.25886 13.9068 4.25908C13.7096 4.25973 13.5125 4.25995 13.3153 4.26017C13.1743 4.26054 13.0334 4.26093 12.8924 4.26134C12.4687 4.26247 12.045 4.26309 11.6214 4.26361C11.4219 4.26387 11.2224 4.26418 11.023 4.26449C10.36 4.26548 9.69699 4.26633 9.034 4.26676C8.86198 4.26687 8.68996 4.26698 8.51794 4.2671C8.47518 4.26712 8.43243 4.26715 8.38838 4.26718C7.69539 4.26767 7.00241 4.26915 6.30942 4.27106C5.5981 4.27299 4.88679 4.27405 4.17546 4.27424C3.77602 4.27436 3.37658 4.27488 2.97713 4.27637C2.60152 4.27778 2.22593 4.27799 1.85032 4.27738C1.7123 4.27735 1.57429 4.27773 1.43627 4.27853C1.24816 4.27956 1.0601 4.27915 0.871991 4.27838C0.817107 4.27902 0.762225 4.27967 0.705678 4.28033C0.458203 4.27786 0.327247 4.27103 0.112582 4.13815C-0.00892451 4.00572 -0.0388411 3.95775 -0.0329742 3.78105C-0.0330498 3.74238 -0.0331253 3.70371 -0.0332031 3.66386C0.0174835 3.48489 0.08432 3.42419 0.23436 3.3123C0.418477 3.27721 0.600583 3.28171 0.787513 3.28412C0.844182 3.28392 0.900849 3.28372 0.959235 3.28351C1.14962 3.28312 1.33996 3.28441 1.53035 3.28569C1.66662 3.28576 1.80289 3.28572 1.93916 3.28559C2.30959 3.28552 2.68 3.2869 3.05042 3.28854C3.39818 3.28985 3.74593 3.29009 4.09368 3.29033C4.78247 3.29084 5.47126 3.2924 6.16005 3.29462C6.82915 3.29677 7.49825 3.29843 8.16735 3.29943C8.20859 3.29949 8.24983 3.29955 8.29233 3.29961C8.49923 3.29992 8.70613 3.30022 8.91304 3.30051C10.6295 3.30294 12.346 3.30708 14.0625 3.3123C14.0613 3.25171 14.06 3.19112 14.0588 3.1287C14.0545 2.90321 14.0518 2.67772 14.0496 2.45221C14.0484 2.35474 14.0468 2.25727 14.0448 2.15981C14.042 2.01944 14.0406 1.87913 14.0396 1.73874C14.0384 1.69539 14.0372 1.65205 14.0359 1.60739C14.0358 1.3952 14.0569 1.27078 14.1671 1.08746C14.2969 0.968552 14.2969 0.968552 14.5216 0.932617Z"/>
</mask>
<path d="M14.5216 0.932617C14.7888 0.950591 14.958 1.0778 15.1538 1.25053C15.2253 1.31007 15.2967 1.36958 15.3683 1.42906C15.4223 1.475 15.4223 1.475 15.4775 1.52187C15.6481 1.66536 15.8239 1.80199 15.9997 1.93901C16.0682 1.99279 16.1366 2.04658 16.205 2.10037C16.4293 2.27601 16.6551 2.44944 16.8812 2.62269C17.1148 2.80204 17.3468 2.9835 17.5781 3.16582C17.8664 3.39294 18.1561 3.61795 18.4474 3.8413C18.8559 4.15485 19.2618 4.47164 19.6681 4.78802C19.8894 4.96026 20.1107 5.13237 20.332 5.30449C20.4199 5.37285 20.5078 5.44121 20.5957 5.50957C20.6392 5.54341 20.6827 5.57724 20.7275 5.61211C20.9253 5.76591 20.9253 5.76591 21.123 5.91972C21.1666 5.95359 21.2101 5.98747 21.255 6.02236C21.3424 6.09037 21.4299 6.1584 21.5173 6.22644C21.7439 6.40289 21.9709 6.57896 22.1983 6.75446C22.2451 6.79067 22.292 6.82689 22.3402 6.8642C22.4288 6.93268 22.5174 7.00105 22.6062 7.06928C22.8171 7.23254 23.0254 7.39877 23.2299 7.56996C23.2682 7.60188 23.3066 7.6338 23.3461 7.66669C23.4485 7.77731 23.4767 7.84857 23.4997 7.99614C23.4674 8.27712 23.2851 8.41019 23.074 8.57933C23.0199 8.62012 22.9659 8.6609 22.9101 8.70293C22.8549 8.74613 22.7996 8.78933 22.7426 8.83385C22.6173 8.93114 22.4917 9.02774 22.3654 9.12361C22.1219 9.30857 21.8806 9.49642 21.6394 9.68437C21.5488 9.75487 21.4583 9.82536 21.3677 9.89586C21.3224 9.93117 21.277 9.96648 21.2303 10.0029C21.0091 10.1751 20.7877 10.3472 20.5664 10.5193C20.4785 10.5877 20.3906 10.6561 20.3027 10.7244C19.0723 11.6814 17.8418 12.6385 16.6113 13.5955C16.5678 13.6294 16.5242 13.6633 16.4793 13.6982C16.392 13.7661 16.3046 13.8338 16.2171 13.9013C15.9871 14.0791 15.7601 14.2595 15.536 14.4447C15.4892 14.4827 15.4424 14.5208 15.3941 14.56C15.3047 14.6328 15.216 14.7064 15.1282 14.7811C14.9298 14.9411 14.7745 15.0542 14.5152 15.0718C14.2969 15.0311 14.2969 15.0311 14.1675 14.9118C14.0344 14.6916 14.0326 14.5102 14.0396 14.2609C14.0399 14.2158 14.0403 14.1707 14.0406 14.1242C14.0419 13.9809 14.0448 13.8377 14.0478 13.6944C14.049 13.5969 14.0501 13.4995 14.051 13.402C14.0536 13.1637 14.0577 12.9255 14.0625 12.6873C13.9559 12.6876 13.9559 12.6876 13.8472 12.688C12.1613 12.693 10.4755 12.6969 8.78959 12.6993C8.58217 12.6996 8.37476 12.6999 8.16735 12.7002C8.12605 12.7002 8.08476 12.7003 8.04222 12.7004C7.37324 12.7014 6.70426 12.7032 6.03529 12.7054C5.34907 12.7076 4.66285 12.7089 3.97663 12.7094C3.5911 12.7097 3.20558 12.7104 2.82005 12.7121C2.45743 12.7137 2.09483 12.7142 1.7322 12.7138C1.59889 12.7139 1.46557 12.7143 1.33226 12.7152C1.15066 12.7164 0.969114 12.7161 0.787513 12.7155C0.734392 12.7162 0.68127 12.7169 0.626538 12.7176C0.270345 12.7141 0.270346 12.7141 0.0846746 12.5757C-0.00629939 12.4438 -0.0332843 12.3773 -0.0329742 12.2186C-0.0342583 12.1799 -0.0355423 12.1412 -0.0368652 12.1014C0.0233764 11.9098 0.123406 11.8548 0.292953 11.7498C0.486368 11.7151 0.677347 11.7179 0.873426 11.7196C0.932331 11.7192 0.991235 11.7188 1.05192 11.7184C1.24954 11.7173 1.44711 11.7179 1.64473 11.7185C1.78631 11.7181 1.92788 11.7176 2.06946 11.717C2.41422 11.7158 2.75897 11.7158 3.10373 11.7162C3.38392 11.7166 3.66411 11.7165 3.94431 11.7162C3.98419 11.7161 4.02407 11.7161 4.06516 11.716C4.14617 11.7159 4.22719 11.7158 4.3082 11.7157C5.06787 11.7147 5.82754 11.7152 6.58721 11.7162C7.28227 11.7171 7.97732 11.7162 8.67239 11.7145C9.3861 11.7128 10.0998 11.7121 10.8135 11.7127C10.8942 11.7128 10.9749 11.7128 11.0557 11.7129C11.0954 11.7129 11.1351 11.7129 11.176 11.713C11.4559 11.7131 11.7357 11.7125 12.0156 11.7117C12.3922 11.7105 12.7689 11.7109 13.1456 11.7124C13.284 11.7127 13.4223 11.7125 13.5607 11.7117C13.7494 11.7108 13.9379 11.7117 14.1265 11.713C14.1816 11.7123 14.2366 11.7116 14.2933 11.7109C14.5581 11.7147 14.6713 11.7224 14.8874 11.8881C15.0202 12.0705 15.038 12.1679 15.0414 12.3918C15.0431 12.457 15.0448 12.5221 15.0466 12.5892C15.0469 12.6566 15.0472 12.724 15.0476 12.7935C15.0498 12.8963 15.0498 12.8963 15.0521 13.0012C15.0555 13.17 15.0576 13.3388 15.0586 13.5076C15.565 13.1323 16.0661 12.7523 16.5568 12.3567C16.8143 12.1493 17.0745 11.9461 17.3371 11.7451C17.6077 11.538 17.8769 11.3292 18.1457 11.1199C18.1904 11.0852 18.235 11.0504 18.281 11.0147C18.3723 10.9436 18.4635 10.8725 18.5548 10.8014C18.7761 10.6292 18.9974 10.4571 19.2187 10.285C19.3066 10.2166 19.3945 10.1482 19.4824 10.0799C19.6582 9.94316 19.834 9.80644 20.0098 9.66972C20.0533 9.63583 20.0969 9.60194 20.1418 9.56703C20.229 9.49919 20.3162 9.43135 20.4035 9.36352C20.6334 9.18466 20.8634 9.00575 21.0933 8.82675C21.1412 8.78948 21.1891 8.7522 21.2384 8.7138C21.3301 8.6424 21.4218 8.57099 21.5135 8.49957C21.5756 8.45124 21.5756 8.45124 21.6389 8.40195C21.6752 8.37372 21.7114 8.3455 21.7488 8.31642C21.8617 8.22937 21.9756 8.14371 22.0898 8.0584C22.0259 7.86657 21.9943 7.83883 21.8385 7.72354C21.7983 7.69335 21.758 7.66316 21.7166 7.63206C21.673 7.59994 21.6294 7.56781 21.5845 7.53471C21.493 7.46613 21.4016 7.39747 21.3103 7.32872C21.2641 7.29401 21.2178 7.25931 21.1702 7.22355C20.9709 7.07209 20.7758 6.91563 20.581 6.75835C20.2881 6.52242 19.9929 6.29014 19.6941 6.06153C19.4235 5.85445 19.1543 5.64563 18.8855 5.43633C18.8411 5.40176 18.7967 5.3672 18.7509 5.33158C18.5679 5.18914 18.3849 5.04666 18.202 4.90417C18.0661 4.79834 17.9301 4.69252 17.7942 4.58672C17.7281 4.53527 17.7281 4.53527 17.6606 4.48279C17.4043 4.28343 17.1473 4.08489 16.8896 3.88725C16.6281 3.68655 16.3684 3.48361 16.1096 3.27934C15.7443 2.9911 15.3737 2.71062 15 2.4334C15.0009 2.47832 15.0018 2.52324 15.0028 2.56952C15.0064 2.77317 15.0087 2.9768 15.011 3.18047C15.0132 3.28651 15.0132 3.28651 15.0154 3.3947C15.016 3.46268 15.0166 3.53065 15.0172 3.60069C15.0181 3.66329 15.019 3.72589 15.0199 3.79038C14.9973 3.97933 14.9572 4.05711 14.8242 4.19121C14.6634 4.24482 14.569 4.25727 14.4034 4.25767C14.3532 4.25793 14.3031 4.25819 14.2514 4.25846C14.1962 4.25845 14.1411 4.25844 14.0843 4.25842C14.0257 4.25864 13.9671 4.25886 13.9068 4.25908C13.7096 4.25973 13.5125 4.25995 13.3153 4.26017C13.1743 4.26054 13.0334 4.26093 12.8924 4.26134C12.4687 4.26247 12.045 4.26309 11.6214 4.26361C11.4219 4.26387 11.2224 4.26418 11.023 4.26449C10.36 4.26548 9.69699 4.26633 9.034 4.26676C8.86198 4.26687 8.68996 4.26698 8.51794 4.2671C8.47518 4.26712 8.43243 4.26715 8.38838 4.26718C7.69539 4.26767 7.00241 4.26915 6.30942 4.27106C5.5981 4.27299 4.88679 4.27405 4.17546 4.27424C3.77602 4.27436 3.37658 4.27488 2.97713 4.27637C2.60152 4.27778 2.22593 4.27799 1.85032 4.27738C1.7123 4.27735 1.57429 4.27773 1.43627 4.27853C1.24816 4.27956 1.0601 4.27915 0.871991 4.27838C0.817107 4.27902 0.762225 4.27967 0.705678 4.28033C0.458203 4.27786 0.327247 4.27103 0.112582 4.13815C-0.00892451 4.00572 -0.0388411 3.95775 -0.0329742 3.78105C-0.0330498 3.74238 -0.0331253 3.70371 -0.0332031 3.66386C0.0174835 3.48489 0.08432 3.42419 0.23436 3.3123C0.418477 3.27721 0.600583 3.28171 0.787513 3.28412C0.844182 3.28392 0.900849 3.28372 0.959235 3.28351C1.14962 3.28312 1.33996 3.28441 1.53035 3.28569C1.66662 3.28576 1.80289 3.28572 1.93916 3.28559C2.30959 3.28552 2.68 3.2869 3.05042 3.28854C3.39818 3.28985 3.74593 3.29009 4.09368 3.29033C4.78247 3.29084 5.47126 3.2924 6.16005 3.29462C6.82915 3.29677 7.49825 3.29843 8.16735 3.29943C8.20859 3.29949 8.24983 3.29955 8.29233 3.29961C8.49923 3.29992 8.70613 3.30022 8.91304 3.30051C10.6295 3.30294 12.346 3.30708 14.0625 3.3123C14.0613 3.25171 14.06 3.19112 14.0588 3.1287C14.0545 2.90321 14.0518 2.67772 14.0496 2.45221C14.0484 2.35474 14.0468 2.25727 14.0448 2.15981C14.042 2.01944 14.0406 1.87913 14.0396 1.73874C14.0384 1.69539 14.0372 1.65205 14.0359 1.60739C14.0358 1.3952 14.0569 1.27078 14.1671 1.08746C14.2969 0.968552 14.2969 0.968552 14.5216 0.932617Z" fill="white" stroke="black" stroke-width="0.5" mask="url(#path-1-inside-1_229_48)"/>
<path d="M18.0034 1.09033C18.0614 1.12655 18.1141 1.16083 18.1646 1.19775L18.3345 1.33447L18.3374 1.33643C18.4093 1.396 18.4812 1.4557 18.5532 1.51514V1.51416L18.6675 1.61084L18.6685 1.61182L19.3032 2.11182L19.5728 2.3208H19.5737L19.7095 2.42725L20.3726 2.94287L24.4595 6.12158L24.7222 6.32568L25.4028 6.854L25.5454 6.96338L25.811 7.16846C25.916 7.24971 26.0202 7.33166 26.1235 7.41455L26.4302 7.6665H26.4312C26.4663 7.69586 26.5015 7.72526 26.5376 7.75537C26.5817 7.803 26.6058 7.83638 26.6216 7.86963C26.6363 7.90056 26.646 7.93746 26.6567 7.99365C26.6237 8.2186 26.4687 8.33414 26.2427 8.52002L26.0571 8.6626L25.9517 8.74268L25.3647 9.18213C25.2459 9.27045 25.1284 9.36073 25.0122 9.45166L24.6665 9.72705L23.7788 10.4253L22.9692 11.0513L22.8335 11.1558L22.5601 11.3696L21.896 11.8862L21.6323 12.0913C21.6308 12.0925 21.6289 12.0931 21.6274 12.0942C21.6259 12.0954 21.6241 12.097 21.6226 12.0981C21.6211 12.0993 21.6201 12.1009 21.6187 12.1021C21.6172 12.1032 21.6153 12.1038 21.6138 12.105C21.6122 12.1062 21.6104 12.1077 21.6089 12.1089C21.6075 12.11 21.6064 12.1117 21.605 12.1128C21.6035 12.1139 21.6016 12.1146 21.6001 12.1157C21.5987 12.1168 21.5976 12.1185 21.5962 12.1196C21.5948 12.1207 21.5927 12.1214 21.5913 12.1226C21.5898 12.1237 21.5879 12.1253 21.5864 12.1265C21.5851 12.1275 21.5838 12.1284 21.5825 12.1294C21.581 12.1305 21.5791 12.1322 21.5776 12.1333C21.5763 12.1343 21.575 12.1352 21.5737 12.1362C21.5723 12.1374 21.5703 12.139 21.5688 12.1401C21.5676 12.1411 21.5662 12.1421 21.5649 12.1431C21.5635 12.1442 21.5615 12.1458 21.5601 12.147C21.5588 12.148 21.5574 12.1489 21.5562 12.1499C21.5547 12.151 21.5527 12.1527 21.5513 12.1538C21.55 12.1548 21.5486 12.1557 21.5474 12.1567C21.546 12.1578 21.5449 12.1596 21.5435 12.1606C21.542 12.1618 21.54 12.1625 21.5386 12.1636C21.5373 12.1646 21.536 12.1655 21.5347 12.1665C21.5333 12.1675 21.5321 12.1694 21.5308 12.1704C21.5294 12.1715 21.5273 12.1722 21.5259 12.1733C21.5245 12.1744 21.5234 12.1762 21.522 12.1772C21.5207 12.1782 21.5193 12.1792 21.5181 12.1802C21.5167 12.1813 21.5146 12.182 21.5132 12.1831C21.5118 12.1842 21.5106 12.1859 21.5093 12.187L21.5015 12.1929C21.5001 12.1939 21.4979 12.1947 21.4966 12.1958C21.4952 12.1969 21.494 12.1986 21.4927 12.1997L21.481 12.2085C21.4797 12.2095 21.4783 12.2114 21.4771 12.2124C21.4757 12.2134 21.4735 12.2143 21.4722 12.2153L21.4604 12.2241C21.4591 12.2251 21.4579 12.227 21.4565 12.228L21.4136 12.2603C21.4125 12.2611 21.4117 12.2623 21.4106 12.2632L21.3911 12.2778C21.39 12.2787 21.3893 12.2799 21.3882 12.2808L21.3765 12.2896C21.3754 12.2904 21.3746 12.2916 21.3735 12.2925L21.3657 12.2983C21.3646 12.2992 21.3639 12.3004 21.3628 12.3013C21.3617 12.3021 21.36 12.3024 21.3589 12.3032C21.3577 12.3042 21.3562 12.3052 21.355 12.3062C21.3539 12.307 21.3531 12.3082 21.3521 12.3091L21.3442 12.3149C21.3432 12.3158 21.3424 12.317 21.3413 12.3179C21.3402 12.3187 21.3385 12.3189 21.3374 12.3198C21.3363 12.3206 21.3355 12.3219 21.3345 12.3228L21.3267 12.3286C21.3257 12.3293 21.3247 12.3298 21.3237 12.3306C21.3226 12.3315 21.321 12.3326 21.3198 12.3335C21.3187 12.3343 21.318 12.3356 21.3169 12.3364C21.3158 12.3373 21.3141 12.3385 21.313 12.3394C21.3121 12.3401 21.311 12.3406 21.3101 12.3413C21.3089 12.3422 21.3073 12.3434 21.3062 12.3442C21.3051 12.3451 21.3043 12.3463 21.3032 12.3472C21.3021 12.348 21.3004 12.3483 21.2993 12.3491L21.2935 12.355C21.2924 12.3558 21.2906 12.3561 21.2896 12.3569C21.2885 12.3578 21.2877 12.359 21.2866 12.3599C21.2855 12.3607 21.2838 12.3619 21.2827 12.3628C21.2818 12.3635 21.2807 12.364 21.2798 12.3647C21.2787 12.3656 21.2779 12.3669 21.2769 12.3677C21.2758 12.3685 21.274 12.3698 21.2729 12.3706C21.272 12.3713 21.2709 12.3718 21.27 12.3726C21.269 12.3734 21.2681 12.3747 21.2671 12.3755C21.266 12.3763 21.2643 12.3766 21.2632 12.3774C21.2621 12.3783 21.2613 12.3795 21.2603 12.3804C21.2593 12.3811 21.2582 12.3816 21.2573 12.3823C21.2563 12.3832 21.2545 12.3844 21.2534 12.3853C21.2524 12.386 21.2515 12.3874 21.2505 12.3882C21.2496 12.3889 21.2485 12.3894 21.2476 12.3901C21.2465 12.391 21.2457 12.3923 21.2446 12.3931C21.2436 12.3939 21.2418 12.3942 21.2407 12.395C21.2397 12.3958 21.2388 12.3972 21.2378 12.3979C21.2369 12.3987 21.2358 12.3992 21.2349 12.3999C21.2338 12.4007 21.233 12.402 21.2319 12.4028C21.231 12.4036 21.2299 12.4041 21.229 12.4048C21.228 12.4056 21.2261 12.4069 21.2251 12.4077C21.2242 12.4084 21.2231 12.409 21.2222 12.4097C21.2212 12.4104 21.2202 12.4118 21.2192 12.4126L21.2134 12.4165C21.2124 12.4173 21.2114 12.4187 21.2104 12.4194C21.2096 12.4201 21.2084 12.4207 21.2075 12.4214C21.2065 12.4222 21.2046 12.4235 21.2036 12.4243C21.2027 12.425 21.2016 12.4256 21.2007 12.4263C21.1997 12.427 21.1987 12.4285 21.1978 12.4292L21.1919 12.4331C21.1909 12.4339 21.19 12.4353 21.189 12.436L21.1831 12.4399C21.1821 12.4407 21.1812 12.4421 21.1802 12.4429L21.1743 12.4468C21.1733 12.4475 21.1724 12.4489 21.1714 12.4497L21.1655 12.4536C21.1646 12.4544 21.1636 12.4558 21.1626 12.4565L21.1567 12.4604C21.1558 12.4612 21.1548 12.4626 21.1538 12.4634L21.145 12.4692L21.1401 12.4741L21.1343 12.478C21.1333 12.4788 21.1323 12.4802 21.1313 12.481L21.1226 12.4868L21.1177 12.4917L21.1089 12.4976L21.104 12.5024L21.0952 12.5083L21.0933 12.5103L21.0903 12.5122C21.0894 12.5129 21.0883 12.5144 21.0874 12.5151C21.0866 12.5158 21.0853 12.5165 21.0845 12.5171L21.0825 12.519L21.0737 12.5249L21.0718 12.5269L21.0659 12.5308C21.065 12.5314 21.0648 12.533 21.064 12.5337L21.0581 12.5376L21.0562 12.5396L21.0503 12.5435L21.0483 12.5454L21.0425 12.5493L21.0405 12.5513C21.0397 12.5519 21.0384 12.5526 21.0376 12.5532L21.0356 12.5552L21.0298 12.5591L21.0278 12.561C21.027 12.5617 21.0257 12.5623 21.0249 12.563L21.0229 12.5649L21.0171 12.5688L21.0151 12.5708C21.0143 12.5715 21.013 12.5721 21.0122 12.5728L21.0103 12.5747C21.0094 12.5753 21.0081 12.576 21.0073 12.5767L21.0054 12.5786C21.0046 12.5792 21.0032 12.5799 21.0024 12.5806L21.0005 12.5825L20.9946 12.5864L20.9927 12.5884C20.9919 12.589 20.9906 12.5897 20.9897 12.5903L20.9878 12.5923C20.987 12.5929 20.9857 12.5936 20.9849 12.5942L20.9829 12.5962C20.9821 12.5968 20.9808 12.5975 20.98 12.5981L20.978 12.6001C20.9772 12.6007 20.9759 12.6014 20.9751 12.6021L20.9731 12.604L20.9702 12.606L20.9683 12.6079L20.9653 12.6089L20.9614 12.6128L20.9585 12.6147L20.9565 12.6167C20.9557 12.6173 20.9544 12.618 20.9536 12.6187L20.9517 12.6206C20.9509 12.6212 20.9495 12.6219 20.9487 12.6226L20.9468 12.6245C20.946 12.6251 20.9446 12.6258 20.9438 12.6265L20.9419 12.6284L20.939 12.6294L20.9351 12.6333C20.9343 12.6339 20.9329 12.6346 20.9321 12.6353L20.9302 12.6372C20.9294 12.6378 20.928 12.6385 20.9272 12.6392L20.9253 12.6411L20.9224 12.6431L20.9204 12.645L20.9185 12.646L20.9155 12.6479L20.9136 12.6499L20.9106 12.6519L20.9067 12.6558L20.9038 12.6577L20.9019 12.6597L20.8989 12.6606L20.895 12.6646L20.8921 12.6665L20.8901 12.6685L20.8872 12.6704L20.8853 12.6724L20.8833 12.6733L20.8804 12.6753L20.8765 12.6792L20.8735 12.6812L20.8716 12.6831L20.8687 12.6851L20.8667 12.686L20.8647 12.688L20.8618 12.6899L20.8579 12.6938L20.855 12.6958L20.853 12.6968L20.8501 12.6987L20.8462 12.7026L20.8433 12.7046L20.8394 12.7085L20.8364 12.7095L20.8345 12.7114L20.8315 12.7134L20.8276 12.7173L20.8247 12.7192L20.8228 12.7202L20.8208 12.7222L20.8179 12.7241L20.8159 12.7261L20.813 12.728L20.8091 12.7319L20.8062 12.7329L20.8022 12.7368L20.7993 12.7388L20.7974 12.7407L20.7944 12.7427L20.7925 12.7446L20.7905 12.7456L20.7876 12.7476L20.7856 12.7495L20.7827 12.7515L20.7788 12.7554L20.7759 12.7573L20.7739 12.7583L20.771 12.7603L20.7671 12.7642L20.7642 12.7661L20.7622 12.7681L20.7593 12.77L20.7573 12.772L20.7554 12.7729L20.7524 12.7749L20.7505 12.7769C20.7497 12.7775 20.7483 12.7782 20.7476 12.7788L20.7456 12.7808C20.7448 12.7814 20.7435 12.7821 20.7427 12.7827L20.7407 12.7847L20.7378 12.7866L20.7358 12.7886L20.7339 12.7896L20.731 12.7915L20.729 12.7935C20.7282 12.7941 20.7269 12.7948 20.7261 12.7954L20.7241 12.7974C20.7233 12.798 20.722 12.7987 20.7212 12.7993L20.7192 12.8013C20.7184 12.8019 20.7171 12.8026 20.7163 12.8032L20.7144 12.8052C20.7136 12.8058 20.7122 12.8065 20.7114 12.8071L20.7095 12.8091L20.7065 12.811L20.7046 12.813L20.7017 12.8149L20.6997 12.8159C20.6989 12.8166 20.6976 12.8172 20.6968 12.8179L20.6948 12.8198C20.694 12.8205 20.6927 12.8211 20.6919 12.8218L20.6899 12.8237C20.6891 12.8244 20.6878 12.825 20.687 12.8257L20.6851 12.8276C20.6842 12.8283 20.683 12.8289 20.6821 12.8296L20.6802 12.8315C20.6793 12.8322 20.6781 12.8329 20.6772 12.8335L20.6753 12.8354C20.6745 12.8361 20.6732 12.8368 20.6724 12.8374L20.6704 12.8394L20.6646 12.8433L20.6626 12.8452C20.6618 12.8459 20.6605 12.8465 20.6597 12.8472L20.6577 12.8491L20.6519 12.853L20.6499 12.855C20.6491 12.8556 20.6478 12.8563 20.647 12.8569L20.645 12.8589L20.6392 12.8628L20.6372 12.8647C20.6364 12.8654 20.6351 12.8661 20.6343 12.8667L20.6323 12.8687L20.6294 12.8706L20.6245 12.8755L20.6187 12.8794L20.6167 12.8813L20.6079 12.8872L20.606 12.8892C20.6051 12.8898 20.6039 12.8905 20.603 12.8911L20.5981 12.896L20.5894 12.9019L20.5874 12.9038C20.5866 12.9044 20.5853 12.9051 20.5845 12.9058C20.5836 12.9065 20.5824 12.908 20.5815 12.9087L20.5757 12.9126L20.5737 12.9146L20.5679 12.9185C20.567 12.9192 20.5659 12.9207 20.5649 12.9214C20.5641 12.922 20.5628 12.9227 20.562 12.9233L20.5601 12.9253L20.5542 12.9292C20.5533 12.9299 20.5522 12.9314 20.5513 12.9321L20.5425 12.938C20.5415 12.9387 20.5405 12.9402 20.5396 12.9409C20.5387 12.9415 20.5374 12.9422 20.5366 12.9429L20.5347 12.9448C20.5339 12.9455 20.5325 12.9461 20.5317 12.9468C20.5308 12.9475 20.5297 12.949 20.5288 12.9497L20.5229 12.9536C20.522 12.9544 20.521 12.9558 20.52 12.9565L20.5142 12.9604C20.5132 12.9612 20.5122 12.9626 20.5112 12.9634L20.5054 12.9673C20.5044 12.968 20.5034 12.9694 20.5024 12.9702L20.4966 12.9741C20.4956 12.9749 20.4946 12.9763 20.4937 12.9771L20.4878 12.981C20.4869 12.9817 20.4858 12.9832 20.4849 12.9839C20.4839 12.9847 20.482 12.9851 20.481 12.9858C20.48 12.9866 20.479 12.988 20.478 12.9888L20.4722 12.9927C20.4712 12.9935 20.4703 12.9948 20.4692 12.9956C20.4683 12.9963 20.4672 12.9968 20.4663 12.9976C20.4653 12.9983 20.4644 12.9997 20.4634 13.0005C20.4625 13.0012 20.4614 13.0017 20.4604 13.0024C20.4594 13.0032 20.4576 13.0046 20.4565 13.0054C20.4556 13.0061 20.4545 13.0066 20.4536 13.0073C20.4526 13.0081 20.4517 13.0095 20.4507 13.0103C20.4498 13.011 20.4487 13.0115 20.4478 13.0122C20.4467 13.013 20.4458 13.0143 20.4448 13.0151C20.4438 13.016 20.442 13.0163 20.4409 13.0171C20.4399 13.0179 20.439 13.0192 20.438 13.02C20.4371 13.0207 20.436 13.0213 20.4351 13.022C20.434 13.0228 20.4332 13.0241 20.4321 13.0249C20.4311 13.0257 20.4293 13.026 20.4282 13.0269C20.4272 13.0277 20.4263 13.029 20.4253 13.0298C20.4244 13.0305 20.4233 13.031 20.4224 13.0317C20.4213 13.0326 20.4195 13.0338 20.4185 13.0347C20.4175 13.0354 20.4165 13.0368 20.4155 13.0376C20.4146 13.0383 20.4135 13.0388 20.4126 13.0396C20.4115 13.0404 20.4098 13.0416 20.4087 13.0425C20.4078 13.0432 20.4067 13.0437 20.4058 13.0444C20.4047 13.0452 20.4039 13.0465 20.4028 13.0474C20.4017 13.0482 20.4 13.0494 20.3989 13.0503C20.398 13.051 20.3969 13.0515 20.396 13.0522C20.395 13.0531 20.3941 13.0544 20.3931 13.0552C20.392 13.056 20.3903 13.0572 20.3892 13.0581C20.3882 13.0588 20.3872 13.0593 20.3862 13.0601C20.3851 13.0609 20.3834 13.0621 20.3823 13.063C20.3813 13.0638 20.3804 13.0651 20.3794 13.0659C20.3783 13.0668 20.3766 13.067 20.3755 13.0679C20.3744 13.0687 20.3736 13.07 20.3726 13.0708C20.3714 13.0717 20.3698 13.0728 20.3687 13.0737C20.3677 13.0744 20.3666 13.075 20.3657 13.0757C20.3646 13.0766 20.363 13.0777 20.3618 13.0786C20.3607 13.0795 20.36 13.0807 20.3589 13.0815C20.3577 13.0824 20.3561 13.0836 20.355 13.0845C20.3541 13.0852 20.353 13.0857 20.3521 13.0864C20.3509 13.0873 20.3493 13.0885 20.3481 13.0894C20.3471 13.0902 20.3463 13.0914 20.3452 13.0923L20.3374 13.0981C20.3365 13.0989 20.3354 13.0994 20.3345 13.1001C20.3333 13.101 20.3318 13.1021 20.3306 13.103C20.3295 13.1039 20.3287 13.1051 20.3276 13.106L20.3198 13.1118C20.3187 13.1127 20.318 13.1139 20.3169 13.1147C20.3158 13.1156 20.3141 13.1158 20.313 13.1167L20.3052 13.1226C20.3041 13.1234 20.3033 13.1246 20.3022 13.1255L20.2905 13.1343C20.2894 13.1351 20.2887 13.1364 20.2876 13.1372L20.2642 13.1548C20.2631 13.1556 20.2623 13.1569 20.2612 13.1577L20.2378 13.1753C20.2365 13.1763 20.2352 13.1782 20.2339 13.1792L20.2144 13.1938C20.213 13.1949 20.2108 13.1957 20.2095 13.1968C20.2081 13.1978 20.2069 13.1996 20.2056 13.2007L20.1938 13.2095C20.1925 13.2105 20.1913 13.2123 20.1899 13.2134C20.1886 13.2144 20.1864 13.2152 20.1851 13.2163L20.1772 13.2222C20.1759 13.2232 20.1747 13.225 20.1733 13.2261C20.1721 13.2271 20.1707 13.228 20.1694 13.229C20.1681 13.2301 20.1659 13.2309 20.1646 13.2319C20.1632 13.233 20.162 13.2347 20.1606 13.2358C20.1594 13.2368 20.158 13.2378 20.1567 13.2388C20.1553 13.2399 20.1533 13.2406 20.1519 13.2417C20.1504 13.2428 20.1494 13.2445 20.1479 13.2456C20.1467 13.2466 20.1453 13.2475 20.144 13.2485C20.1426 13.2496 20.1406 13.2513 20.1392 13.2524C20.1379 13.2534 20.1365 13.2544 20.1353 13.2554C20.1338 13.2565 20.1318 13.2582 20.1304 13.2593L20.1226 13.2651C20.1211 13.2663 20.1191 13.2679 20.1177 13.269C20.1164 13.27 20.1151 13.271 20.1138 13.272C20.1123 13.2731 20.1104 13.2747 20.1089 13.2759C20.1076 13.2769 20.1063 13.2778 20.105 13.2788C20.1035 13.28 20.1016 13.2816 20.1001 13.2827C20.0986 13.2839 20.0967 13.2845 20.0952 13.2856C20.0938 13.2868 20.0928 13.2884 20.0913 13.2896C20.0898 13.2907 20.0879 13.2923 20.0864 13.2935C20.0851 13.2945 20.0838 13.2954 20.0825 13.2964C20.081 13.2976 20.0791 13.2991 20.0776 13.3003C20.0762 13.3014 20.0742 13.3021 20.0728 13.3032C20.0713 13.3043 20.0703 13.306 20.0688 13.3071C20.0673 13.3083 20.0655 13.3098 20.064 13.311C20.0625 13.3122 20.0605 13.3128 20.0591 13.314C20.0576 13.3151 20.0566 13.3167 20.0552 13.3179L20.0503 13.3218L19.9185 13.4243L19.6567 13.6274L18.9663 14.1646L18.8218 14.2778L18.5464 14.4917L18.4214 14.5894C18.3854 14.6174 18.3491 14.6455 18.312 14.6743L18.2046 14.7563L18.2017 14.7593C18.1649 14.7893 18.1281 14.8192 18.0903 14.8501C18.0159 14.9004 17.9583 14.9195 17.8999 14.9253C17.8416 14.931 17.7781 14.9232 17.686 14.9106C17.6032 14.8495 17.5526 14.8071 17.5171 14.7593C17.4833 14.7137 17.4586 14.657 17.437 14.564C17.4723 14.431 17.5638 14.3106 17.6938 14.1919C17.7654 14.1266 17.8401 14.0684 17.9155 14.0112L18.144 13.8364V13.8354L18.2681 13.7358C18.4267 13.6082 18.5868 13.4827 18.7485 13.3589L19.2378 12.9907H19.2388C19.3941 12.8752 19.5468 12.7571 19.6987 12.6382L20.1509 12.2788L20.9282 11.6694L21.7378 11.0435L21.8735 10.938L22.147 10.7251L22.811 10.2085L23.0747 10.0034L23.0786 9.99951H23.0796L23.0815 9.99756L23.0835 9.99658L23.0845 9.99561H23.0854L23.0903 9.99072H23.0913L23.0952 9.98682H23.0962L23.1001 9.98291L23.1021 9.98193H23.103L23.1069 9.97803H23.1079L23.1128 9.97314H23.1138L23.1187 9.96826H23.1196L23.1216 9.96729L23.1245 9.96436H23.1255L23.1304 9.95947H23.1313L23.1353 9.95557H23.1362L23.1382 9.95361L23.1401 9.95264L23.1421 9.95068H23.1431L23.147 9.94678H23.1479L23.1528 9.94189H23.1538L23.1567 9.93896L23.1587 9.93799L23.1597 9.93701H23.1606L23.1646 9.93311H23.1655L23.1704 9.92822H23.1714L23.1753 9.92432H23.1763L23.1782 9.92334L23.1821 9.91943H23.1831L23.187 9.91553H23.188L23.1929 9.91064H23.1938L23.1948 9.90967L23.1968 9.90869L23.1997 9.90576H23.2007L23.2046 9.90186H23.2056L23.2104 9.89697H23.2114L23.2134 9.89502L23.2153 9.89404L23.2163 9.89307H23.2173L23.2222 9.88818H23.2231L23.2271 9.88428H23.228L23.2319 9.88037L23.2339 9.87939H23.2349L23.2388 9.87549H23.2397L23.2446 9.87061H23.2456L23.2505 9.86572H23.2515L23.2534 9.86475L23.2563 9.86182H23.2573L23.2622 9.85693H23.2632L23.2671 9.85303H23.2681L23.27 9.85107L23.272 9.8501L23.2739 9.84814H23.2749L23.2788 9.84424H23.2798L23.2847 9.83936H23.2856L23.2886 9.83643L23.2905 9.83545L23.2915 9.83447H23.2925L23.2964 9.83057H23.2974L23.3022 9.82568H23.3032L23.3071 9.82178H23.3081L23.3101 9.8208L23.314 9.81689H23.3149L23.3188 9.81299H23.3198L23.3247 9.80811H23.3257L23.3267 9.80713L23.3286 9.80615L23.3315 9.80322H23.3325L23.3364 9.79932H23.3374L23.3423 9.79443H23.3433L23.3452 9.79248L23.3472 9.7915L23.3481 9.79053H23.3491L23.354 9.78564H23.355L23.3589 9.78174H23.3599L23.3638 9.77783L23.3657 9.77686H23.3667L23.3706 9.77295H23.3716L23.3765 9.76807H23.3774L23.3823 9.76318H23.3833L23.3853 9.76221L23.3882 9.75928H23.3892L23.394 9.75439H23.395L23.3989 9.75049H23.3999L23.4019 9.74854L23.4038 9.74756L23.4058 9.74561H23.4067L23.4106 9.7417H23.4116L23.4165 9.73682H23.4175L23.4204 9.73389L23.4224 9.73291L23.4233 9.73193H23.4243L23.4282 9.72803H23.4292L23.4341 9.72314H23.4351L23.439 9.71924H23.4399L23.4419 9.71826L23.4458 9.71436H23.4468L23.4507 9.71045H23.4517L23.4565 9.70557H23.4575L23.4585 9.70459L23.4604 9.70361L23.4634 9.70068H23.4644L23.4683 9.69678H23.4692L23.4741 9.69189H23.4751L23.4771 9.68994L23.479 9.68896L23.48 9.68799H23.481L23.4858 9.68311H23.4868L23.4907 9.6792H23.4917L23.4956 9.67529L23.4976 9.67432H23.4985L23.5024 9.67041H23.5034L23.5083 9.66553H23.5093L23.5142 9.66064H23.5151L23.5171 9.65967L23.52 9.65674H23.521L23.5259 9.65186H23.5269L23.5308 9.64795H23.5317L23.5337 9.646L23.5356 9.64502L23.5376 9.64307H23.5386L23.5425 9.63916H23.5435L23.5483 9.63428H23.5493L23.5522 9.63135L23.5542 9.63037L23.5552 9.62939H23.5562L23.5601 9.62549H23.561L23.5659 9.62061H23.5669L23.5708 9.6167H23.5718L23.5737 9.61572L23.5776 9.61182H23.5786L23.5825 9.60791H23.5835L23.5884 9.60303H23.5894L23.5903 9.60205L23.5923 9.60107L23.5952 9.59814H23.5962L23.6001 9.59424H23.6011L23.6021 9.59326L23.7339 9.49072L23.7368 9.48779L23.7388 9.48682L23.7397 9.48584H23.7407L23.7446 9.48193H23.7456L23.7495 9.47803H23.7505L23.7554 9.47314H23.7563L23.7593 9.47021L23.7612 9.46924H23.7622L23.7661 9.46533H23.7671L23.772 9.46045H23.7729L23.7769 9.45654H23.7778L23.7817 9.45264H23.7837L23.7886 9.44775H23.7896L23.7935 9.44385H23.7944L23.7983 9.43994H23.7993L23.8042 9.43506H23.8052L23.8071 9.43408L23.8101 9.43115H23.811L23.8149 9.42725H23.8159L23.8208 9.42236H23.8218L23.8257 9.41846H23.8267L23.8276 9.41748L23.8296 9.4165L23.8315 9.41455H23.8325L23.8374 9.40967H23.8384L23.8423 9.40576H23.8433L23.8472 9.40186H23.8481L23.8501 9.3999L23.8521 9.39893L23.854 9.39697H23.855L23.8589 9.39307H23.8599L23.8638 9.38916H23.8647L23.8696 9.38428H23.8706L23.8735 9.38135L23.8755 9.38037H23.8765L23.8804 9.37646H23.8813L23.8862 9.37158H23.8872L23.8911 9.36768H23.8921L23.896 9.36377H23.8979L23.9028 9.35889H23.9038L23.9077 9.35498H23.9087L23.9126 9.35107H23.9136L23.9185 9.34619H23.9204L23.9243 9.34229H23.9253L23.9292 9.33838H23.9302L23.9351 9.3335H23.936L23.9399 9.32959H23.9409L23.9429 9.32861L23.9458 9.32568H23.9468L23.9517 9.3208H23.9526L23.9565 9.31689H23.9575L23.9614 9.31299H23.9624L23.9644 9.31104L23.9663 9.31006L23.9683 9.30811H23.9692L23.9731 9.3042H23.9741L23.979 9.29932H23.98L23.9839 9.29541H23.9849L23.9868 9.29346L23.9888 9.29248L23.9897 9.2915H23.9907L23.9956 9.28662H23.9966L24.0005 9.28271H24.0015L24.0054 9.27881H24.0063L24.0093 9.27588L24.0112 9.2749L24.0122 9.27393H24.0132L24.0171 9.27002H24.0181L24.022 9.26611H24.0229L24.0278 9.26123H24.0288L24.0317 9.2583L24.0337 9.25732H24.0347L24.0386 9.25342H24.0396L24.0444 9.24854H24.0454L24.0493 9.24463H24.0503L24.0542 9.24072H24.0552L24.0571 9.23975L24.061 9.23584H24.062L24.0659 9.23193H24.0669L24.0708 9.22803H24.0718L24.0767 9.22314H24.0776L24.0796 9.22217L24.0825 9.21924H24.0835L24.0874 9.21533H24.0884L24.0933 9.21045H24.0942L24.0981 9.20654H24.0991L24.1001 9.20557L24.1021 9.20459L24.104 9.20264H24.105L24.1099 9.19775H24.1108L24.1147 9.19385H24.1157L24.1196 9.18994H24.1206L24.1226 9.18799L24.1245 9.18701L24.1265 9.18506H24.1274L24.1313 9.18115H24.1323L24.1362 9.17725H24.1372L24.1421 9.17236H24.1431L24.146 9.16943L24.1479 9.16846H24.1489L24.1528 9.16455H24.1538L24.1587 9.15967H24.1597L24.1636 9.15576H24.1646L24.1685 9.15186H24.1704L24.1753 9.14697H24.1763L24.1802 9.14307H24.1812L24.1851 9.13916H24.186L24.1909 9.13428H24.1929L24.1968 9.13037H24.1978L24.2017 9.12646H24.2026L24.2075 9.12158H24.2085L24.2124 9.11768H24.2134L24.2144 9.1167L24.2163 9.11572L24.2183 9.11377H24.2192L24.2241 9.10889H24.2251L24.229 9.10498H24.23L24.2339 9.10107H24.2349L24.2368 9.09912L24.2388 9.09814L24.2407 9.09619H24.2417L24.2456 9.09229H24.2466L24.2505 9.08838H24.2515L24.2563 9.0835H24.2583V9.08252H24.2593V9.08154H24.2603V9.08057H24.2612V9.07959H24.2632V9.07861H24.2642V9.07764H24.2651L24.2671 9.07568H24.2681V9.07471H24.269V9.07373H24.27L24.272 9.07178H24.2729V9.0708H24.2739V9.06982H24.2749L24.2759 9.06885H24.2769V9.06787H24.2778V9.06689H24.2788L24.2798 9.06592H24.2808V9.06494H24.2817V9.06396H24.2827V9.06299H24.2847V9.06201H24.2856V9.06104H24.2866V9.06006H24.2876L24.2896 9.05811H24.2905V9.05713H24.2915V9.05615H24.2935V9.05518H24.2944V9.0542H24.2954V9.05322H24.2964V9.05225H24.2983V9.05127H24.2993V9.05029H24.3003V9.04932H24.3013L24.3022 9.04834H24.3032V9.04736H24.3042V9.04639H24.3052L24.3071 9.04443H24.3081V9.04346H24.3091V9.04248H24.3101L24.311 9.0415H24.312V9.04053H24.313V9.03955H24.314L24.3149 9.03857H24.3159V9.0376H24.3169V9.03662H24.3179V9.03564H24.3188L24.3198 9.03467H24.3208V9.03369H24.3218V9.03271H24.3228V9.03174H24.3247V9.03076H24.3257V9.02979H24.3267V9.02881H24.3276L24.3286 9.02783H24.3296V9.02686H24.3306V9.02588H24.3315L24.3325 9.0249H24.3335V9.02393H24.3345V9.02295H24.3354V9.02197H24.3364L24.3374 9.021H24.3384V9.02002H24.3394V9.01904H24.3403V9.01807H24.3423V9.01709H24.3433V9.01611H24.3442V9.01514H24.3462V9.01416H24.3472V9.01318H24.3481V9.01221H24.3491V9.01123H24.3511V9.01025H24.3521V9.00928H24.353L24.355 9.00732H24.356V9.00635H24.3569V9.00537H24.3579L24.3599 9.00342H24.3608V9.00244H24.3618V9.00146H24.3638V9.00049H24.3647V8.99951H24.3657V8.99854H24.3667V8.99756H24.3677L24.3687 8.99658H24.3696V8.99561H24.3706V8.99463H24.3716L24.3726 8.99365H24.3735V8.99268H24.3745V8.9917H24.3755L24.3774 8.98975H24.3784V8.98877H24.3794L24.3813 8.98682H24.3823V8.98584H24.3833V8.98486H24.3843L24.3853 8.98389H24.3862V8.98291H24.3872V8.98193H24.3882L24.3901 8.97998H24.3911V8.979H24.3921V8.97803H24.3931L24.396 8.9751H24.397V8.97412H24.3979L24.3989 8.97314H24.3999V8.97217H24.4009L24.4038 8.96924H24.4048V8.96826H24.4058V8.96729H24.4077V8.96631H24.4087V8.96533H24.4097L24.4126 8.9624H24.4136V8.96143H24.4146V8.96045H24.4165V8.95947H24.4175V8.9585H24.4185L24.4214 8.95557H24.4224V8.95459H24.4233V8.95361H24.4243L24.4253 8.95264H24.4263V8.95166H24.4272L24.4302 8.94873H24.4312V8.94775H24.4321V8.94678H24.4331L24.4341 8.9458H24.4351V8.94482H24.436L24.439 8.94189H24.4399V8.94092H24.4409V8.93994H24.4419L24.4429 8.93896H24.4438V8.93799H24.4448L24.4478 8.93506H24.4487V8.93408H24.4497V8.93311H24.4507L24.4526 8.93115H24.4536L24.4565 8.92822H24.4575V8.92725H24.4585V8.92627H24.4595L24.4614 8.92432H24.4624L24.4653 8.92139H24.4663V8.92041H24.4673V8.91943H24.4683L24.4702 8.91748H24.4712L24.4741 8.91455H24.4751V8.91357H24.4761V8.9126H24.4771L24.479 8.91064H24.48L24.4819 8.90869H24.4829V8.90771H24.4839V8.90674H24.4849L24.4878 8.90381H24.4888V8.90283H24.4897L24.4907 8.90186H24.4917V8.90088H24.4927V8.8999H24.4937L24.4966 8.89697H24.4976V8.896H24.4985L24.4995 8.89502H24.5005V8.89404H24.5015V8.89307H24.5024L24.5054 8.89014H24.5063V8.88916H24.5073L24.5083 8.88818H24.5093V8.88721H24.5103V8.88623H24.5112L24.5142 8.8833H24.5151V8.88232H24.5161L24.5171 8.88135H24.5181V8.88037H24.519V8.87939H24.52L24.5229 8.87646H24.5239V8.87549H24.5249V8.87451H24.5269V8.87354H24.5278V8.87256H24.5288L24.5317 8.86963H24.5327V8.86865H24.5337V8.86768H24.5356V8.8667H24.5366V8.86572H24.5376L24.5405 8.86279H24.5415V8.86182H24.5425V8.86084H24.5444V8.85986H24.5454V8.85889H24.5464L24.5493 8.85596H24.5503V8.85498H24.5513V8.854H24.5522L24.5532 8.85303H24.5542V8.85205H24.5552L24.5571 8.8501H24.5581V8.84912H24.5591V8.84814H24.5601L24.562 8.84619H24.563L24.5659 8.84326H24.5669V8.84229H24.5679V8.84131H24.5688L24.5708 8.83936H24.5718L24.5747 8.83643H24.5757V8.83545H24.5767V8.83447H24.5776L24.5796 8.83252H24.5806L24.5835 8.82959H24.5845V8.82861H24.5854V8.82764H24.5864L24.5894 8.82471H24.5903L24.5923 8.82275H24.5933V8.82178H24.5942V8.8208H24.5952L24.5981 8.81787H24.5991L24.6011 8.81592H24.6021V8.81494H24.603V8.81396H24.604L24.6069 8.81104H24.6079L24.6099 8.80908H24.6108V8.80811H24.6118V8.80713H24.6128L24.6157 8.8042H24.6167L24.6187 8.80225H24.6196V8.80127H24.6206V8.80029H24.6216L24.6245 8.79736H24.6255V8.79639H24.6265L24.6274 8.79541H24.6284V8.79443H24.6294V8.79346H24.6304L24.6333 8.79053H24.6343V8.78955H24.6362V8.78857H24.6372V8.7876H24.6382L24.6411 8.78467H24.6421V8.78369H24.6431V8.78271H24.645V8.78174H24.646V8.78076H24.647L24.6499 8.77783H24.6509V8.77686H24.6519V8.77588H24.6538V8.7749H24.6548V8.77393H24.6558L24.6587 8.771H24.6597V8.77002H24.6606V8.76904H24.6616L24.6626 8.76807H24.6636V8.76709H24.6646L24.6675 8.76416H24.6685V8.76318H24.6694V8.76221H24.6704L24.6714 8.76123H24.6724V8.76025H24.6733L24.6763 8.75732H24.6772V8.75635H24.6782V8.75537H24.6792L24.6802 8.75439H24.6812V8.75342H24.6821L24.6851 8.75049H24.686V8.74951H24.687V8.74854H24.688L24.6899 8.74658H24.6909L24.6938 8.74365L24.8423 8.62842L25.2544 8.30811L25.3677 8.22021C25.394 8.1997 25.4206 8.17885 25.4478 8.15771L25.5249 8.09814L25.4858 8.00928C25.4228 7.86489 25.3596 7.76159 25.2573 7.66553L25.1411 7.5708L25.0288 7.48877L25.0278 7.48779L24.9058 7.40088H24.9067L24.6509 7.21338C24.6075 7.18149 24.5637 7.14955 24.519 7.1167H24.52L23.9448 6.66553L23.0513 5.9624L22.2437 5.33838L22.1079 5.23291L21.8345 5.02002L21.1704 4.50342L20.7749 4.1958C20.774 4.19507 20.7729 4.19361 20.772 4.19287L20.7632 4.18701C20.7623 4.18633 20.7621 4.18477 20.7612 4.18408L20.7524 4.17822C20.7515 4.17749 20.7505 4.17603 20.7495 4.17529L20.7407 4.16943C20.7398 4.1687 20.7387 4.16724 20.7378 4.1665C20.737 4.16587 20.7357 4.16518 20.7349 4.16455L20.7329 4.1626C20.7321 4.16197 20.7308 4.16128 20.73 4.16064C20.729 4.15991 20.728 4.15845 20.7271 4.15771L20.7183 4.15186C20.7173 4.15112 20.7163 4.14966 20.7153 4.14893L20.7065 4.14307C20.7057 4.14238 20.7055 4.14082 20.7046 4.14014L20.6958 4.13428C20.6949 4.13354 20.6938 4.13208 20.6929 4.13135L20.687 4.12744C20.6861 4.12671 20.685 4.12525 20.6841 4.12451L20.6782 4.12061L20.6733 4.11572L20.6646 4.10986C20.6636 4.10913 20.6626 4.10767 20.6616 4.10693L20.6528 4.10107L20.6479 4.09619L20.6421 4.09229C20.6411 4.09155 20.6401 4.09009 20.6392 4.08936L20.6304 4.0835C20.6294 4.08276 20.6284 4.0813 20.6274 4.08057L20.6216 4.07666L20.6167 4.07178L20.6079 4.06592C20.607 4.06518 20.6059 4.06372 20.605 4.06299L20.5962 4.05713L20.5913 4.05225L20.5854 4.04834C20.5845 4.04761 20.5835 4.04614 20.5825 4.04541L20.5737 4.03955C20.5728 4.03882 20.5717 4.03736 20.5708 4.03662L20.5649 4.03271C20.5641 4.03203 20.5639 4.03047 20.563 4.02979L20.5542 4.02393C20.5533 4.02319 20.5522 4.02173 20.5513 4.021L20.5425 4.01514C20.5415 4.0144 20.5405 4.01294 20.5396 4.01221C20.5387 4.01158 20.5374 4.01088 20.5366 4.01025L20.5347 4.0083C20.5338 4.00766 20.5326 4.00699 20.5317 4.00635C20.5308 4.00561 20.5298 4.00415 20.5288 4.00342L20.52 3.99756C20.5191 3.99682 20.518 3.99536 20.5171 3.99463L20.5083 3.98877C20.5074 3.98809 20.5072 3.98652 20.5063 3.98584L20.4976 3.97998C20.4966 3.97925 20.4956 3.97779 20.4946 3.97705L20.4858 3.97119C20.4849 3.97046 20.4839 3.969 20.4829 3.96826C20.4821 3.96762 20.4808 3.96695 20.48 3.96631L20.478 3.96436C20.4772 3.96373 20.4759 3.96303 20.4751 3.9624C20.4742 3.96167 20.4731 3.9602 20.4722 3.95947L20.4634 3.95361C20.4624 3.95288 20.4614 3.95142 20.4604 3.95068L20.4517 3.94482C20.4508 3.94414 20.4506 3.94258 20.4497 3.94189L20.4438 3.93799C20.4429 3.93725 20.4419 3.93579 20.4409 3.93506L20.4321 3.9292C20.4312 3.92846 20.4301 3.927 20.4292 3.92627L20.4233 3.92236L20.4185 3.91748L20.4097 3.91162C20.4087 3.91089 20.4077 3.90943 20.4067 3.90869L20.3979 3.90283L20.3931 3.89795L20.3872 3.89404C20.3863 3.89331 20.3852 3.89185 20.3843 3.89111L20.3755 3.88525C20.3745 3.88452 20.3735 3.88306 20.3726 3.88232L20.3667 3.87842L20.3618 3.87354L20.353 3.86768C20.3521 3.86694 20.351 3.86548 20.3501 3.86475L20.3413 3.85889L20.3364 3.854L20.3306 3.8501C20.3296 3.84936 20.3286 3.8479 20.3276 3.84717L20.3218 3.84326C20.3208 3.84253 20.3198 3.84107 20.3188 3.84033L20.3101 3.83447C20.3092 3.83379 20.309 3.83223 20.3081 3.83154L20.2993 3.82568C20.2984 3.82495 20.2973 3.82349 20.2964 3.82275L20.2876 3.81689C20.2867 3.81616 20.2856 3.8147 20.2847 3.81396C20.2839 3.81333 20.2826 3.81265 20.2817 3.81201L20.2798 3.81006C20.279 3.80943 20.2777 3.80874 20.2769 3.80811C20.2759 3.80737 20.2749 3.80591 20.2739 3.80518L20.2651 3.79932C20.2642 3.79858 20.2632 3.79712 20.2622 3.79639L20.2534 3.79053C20.2525 3.78984 20.2523 3.78828 20.2515 3.7876L20.2427 3.78174C20.2417 3.781 20.2407 3.77954 20.2397 3.77881L20.231 3.77295C20.23 3.77221 20.229 3.77075 20.228 3.77002C20.2272 3.76937 20.2259 3.76872 20.2251 3.76807L20.2231 3.76611C20.2224 3.7655 20.221 3.76477 20.2202 3.76416C20.2193 3.76344 20.2182 3.76195 20.2173 3.76123L20.2085 3.75537C20.2076 3.75464 20.2065 3.75318 20.2056 3.75244L20.1997 3.74854L20.1948 3.74365L20.189 3.73975C20.188 3.73901 20.187 3.73755 20.186 3.73682L20.1772 3.73096C20.1763 3.73022 20.1753 3.72876 20.1743 3.72803L20.1685 3.72412L20.1636 3.71924L20.1548 3.71338C20.1538 3.71264 20.1528 3.71118 20.1519 3.71045L20.1431 3.70459C20.1421 3.70386 20.1411 3.70239 20.1401 3.70166C20.1393 3.70103 20.138 3.70033 20.1372 3.69971L20.1353 3.69775C20.1344 3.69712 20.1331 3.69644 20.1323 3.6958C20.1314 3.69507 20.1303 3.69361 20.1294 3.69287L20.1206 3.68701C20.1197 3.68628 20.1186 3.68482 20.1177 3.68408L20.1089 3.67822C20.108 3.67754 20.1078 3.67598 20.1069 3.67529L20.0981 3.66943C20.0972 3.6687 20.0962 3.66724 20.0952 3.6665L20.0864 3.66064C20.0855 3.65991 20.0844 3.65845 20.0835 3.65771C20.0827 3.65707 20.0814 3.6564 20.0806 3.65576L20.0757 3.65088L20.0669 3.64502C20.066 3.64429 20.0649 3.64282 20.064 3.64209L20.0552 3.63623L20.0503 3.63135L20.0444 3.62744C20.0435 3.62671 20.0424 3.62525 20.0415 3.62451L20.0327 3.61865C20.0318 3.61792 20.0307 3.61646 20.0298 3.61572L20.0239 3.61182L20.019 3.60693L20.0103 3.60107C20.0093 3.60034 20.0083 3.59888 20.0073 3.59814L19.9985 3.59229L19.9937 3.5874L19.9878 3.5835C19.9868 3.58276 19.9858 3.5813 19.9849 3.58057L19.9761 3.57471C19.9751 3.57397 19.9741 3.57251 19.9731 3.57178L19.9673 3.56787L19.9624 3.56299L19.9565 3.55908C19.9556 3.55835 19.9546 3.55689 19.9536 3.55615L19.9448 3.55029C19.9439 3.54957 19.9428 3.54809 19.9419 3.54736C19.9411 3.54674 19.9398 3.54603 19.939 3.54541L19.937 3.54346C19.9362 3.54281 19.9349 3.54215 19.9341 3.5415C19.9331 3.54077 19.9321 3.53931 19.9312 3.53857L19.9224 3.53271C19.9214 3.53198 19.9204 3.53052 19.9194 3.52979L19.9106 3.52393C19.9098 3.52324 19.9096 3.52168 19.9087 3.521L19.8999 3.51514C19.899 3.5144 19.8979 3.51294 19.897 3.51221L19.8882 3.50635C19.8872 3.50561 19.8862 3.50415 19.8853 3.50342C19.8844 3.50278 19.8831 3.5021 19.8823 3.50146L19.8804 3.49951C19.8796 3.49888 19.8782 3.49819 19.8774 3.49756C19.8765 3.49682 19.8755 3.49536 19.8745 3.49463L19.8657 3.48877C19.8648 3.48804 19.8637 3.48657 19.8628 3.48584L19.854 3.47998C19.8531 3.4793 19.8529 3.47773 19.8521 3.47705L19.8462 3.47314C19.8452 3.47241 19.8442 3.47095 19.8433 3.47021L19.8345 3.46436C19.8335 3.46362 19.8325 3.46216 19.8315 3.46143L19.8257 3.45752L19.8208 3.45264L19.812 3.44678C19.8111 3.44604 19.81 3.44458 19.8091 3.44385L19.8003 3.43799L19.7954 3.43311L19.7896 3.4292C19.7886 3.42846 19.7876 3.427 19.7866 3.42627L19.7778 3.42041C19.7769 3.41968 19.7758 3.41821 19.7749 3.41748L19.769 3.41357L19.7642 3.40869L19.7554 3.40283C19.7544 3.4021 19.7534 3.40064 19.7524 3.3999L19.7437 3.39404L19.7388 3.38916L19.7329 3.38525C19.732 3.38452 19.7309 3.38306 19.73 3.38232L19.7241 3.37842C19.7232 3.37768 19.7221 3.37622 19.7212 3.37549L19.7124 3.36963C19.7115 3.36895 19.7113 3.36738 19.7104 3.3667L19.7017 3.36084C19.7007 3.36011 19.6997 3.35864 19.6987 3.35791L19.6899 3.35205C19.689 3.35132 19.688 3.34986 19.687 3.34912C19.6862 3.34849 19.6849 3.3478 19.6841 3.34717L19.6821 3.34521C19.6813 3.34458 19.68 3.3439 19.6792 3.34326C19.6783 3.34253 19.6772 3.34107 19.6763 3.34033L19.6675 3.33447C19.6665 3.33374 19.6655 3.33228 19.6646 3.33154L19.6558 3.32568C19.6549 3.325 19.6547 3.32344 19.6538 3.32275L19.645 3.31689C19.6441 3.31616 19.643 3.3147 19.6421 3.31396L19.6333 3.30811C19.6324 3.30737 19.6313 3.30591 19.6304 3.30518C19.6295 3.30453 19.6283 3.30387 19.6274 3.30322L19.6255 3.30127C19.6247 3.30065 19.6234 3.29994 19.6226 3.29932C19.6216 3.29859 19.6206 3.29711 19.6196 3.29639L19.6108 3.29053C19.6099 3.28979 19.6089 3.28833 19.6079 3.2876L19.6021 3.28369L19.5972 3.27881L19.5913 3.2749C19.5904 3.27417 19.5893 3.27271 19.5884 3.27197L19.5796 3.26611C19.5786 3.26538 19.5776 3.26392 19.5767 3.26318L19.5708 3.25928L19.5659 3.25439L19.5571 3.24854C19.5562 3.2478 19.5551 3.24634 19.5542 3.24561L19.5454 3.23975L19.5405 3.23486L19.5347 3.23096C19.5337 3.23022 19.5327 3.22876 19.5317 3.22803L19.5229 3.22217C19.522 3.22143 19.521 3.21997 19.52 3.21924L19.5142 3.21533L19.5093 3.21045L19.5005 3.20459C19.4995 3.20386 19.4985 3.20239 19.4976 3.20166L19.4888 3.1958L19.4839 3.19092C19.4831 3.19028 19.4818 3.18961 19.481 3.18896C19.48 3.18823 19.479 3.18677 19.478 3.18604L19.4692 3.18018C19.4683 3.17944 19.4673 3.17798 19.4663 3.17725L19.4575 3.17139C19.4566 3.1707 19.4564 3.16914 19.4556 3.16846L19.4468 3.1626C19.4458 3.16186 19.4448 3.1604 19.4438 3.15967L19.4351 3.15381C19.4341 3.15307 19.4331 3.15161 19.4321 3.15088L19.4263 3.14697L19.4214 3.14209L19.4126 3.13623C19.4117 3.1355 19.4106 3.13404 19.4097 3.1333L19.4009 3.12744L19.396 3.12256L19.3901 3.11865C19.3892 3.11792 19.3882 3.11646 19.3872 3.11572L19.3784 3.10986C19.3775 3.10913 19.3764 3.10767 19.3755 3.10693L19.3696 3.10303L19.3647 3.09814L19.3589 3.09424C19.3579 3.0935 19.3569 3.09204 19.356 3.09131L19.3472 3.08545C19.3462 3.08473 19.3452 3.08324 19.3442 3.08252C19.3434 3.0819 19.3421 3.08118 19.3413 3.08057L19.3394 3.07861C19.3385 3.07797 19.3373 3.07731 19.3364 3.07666C19.3355 3.07593 19.3344 3.07446 19.3335 3.07373L19.3247 3.06787C19.2811 3.03398 19.2378 2.99928 19.1929 2.96436H19.1919L18.9312 2.76123L18.2349 2.22217L18.0874 2.10889L17.8052 1.89209L17.6782 1.79346L17.5688 1.71045C17.515 1.66318 17.4939 1.6314 17.481 1.60107C17.4666 1.56705 17.4585 1.52494 17.4478 1.4458C17.4579 1.36057 17.4626 1.33491 17.4722 1.31104C17.4822 1.28599 17.4988 1.25978 17.5522 1.18506C17.6458 1.11897 17.7042 1.09349 17.7603 1.0835C17.8195 1.073 17.8861 1.07745 18.0034 1.09033Z" fill="white" stroke="black" stroke-width="0.25"/>
<path d="M28.895 7.86035L28.8208 7.82715C28.7903 7.81357 28.7593 7.80009 28.728 7.78613C28.6497 7.74371 28.5772 7.69663 28.5054 7.64551L28.2827 7.47656L28.1831 7.39941L27.9663 7.23047L27.603 6.94727L26.9321 6.42578L26.2681 5.90918L23.2358 3.55078L22.9731 3.3457L22.3013 2.82227L22.0278 2.60938L21.895 2.50586L21.3003 2.05469L21.2017 1.98242L20.9507 1.80273H20.9517C20.8888 1.74904 20.8493 1.71103 20.8198 1.6709C20.7937 1.63526 20.773 1.59328 20.7505 1.53125C20.7574 1.34571 20.7685 1.24958 20.8589 1.13281C20.9355 1.10106 20.9964 1.08646 21.0571 1.08105C21.1219 1.07531 21.1912 1.07933 21.2866 1.08984C21.3626 1.13345 21.4342 1.1818 21.5044 1.23535L21.7349 1.42285L21.7368 1.4248L22.0181 1.65234L22.1616 1.76953V1.77051L22.8335 2.29785L23.2466 2.61914C23.2496 2.62148 23.2533 2.62364 23.2563 2.62598C23.2593 2.62829 23.2622 2.63147 23.2651 2.63379L23.2827 2.64746C23.2857 2.6498 23.2895 2.65196 23.2925 2.6543L23.3101 2.66797C23.3131 2.67031 23.3158 2.67344 23.3188 2.67578L23.3276 2.68262C23.3306 2.68495 23.3344 2.68712 23.3374 2.68945L23.3638 2.70996C23.3668 2.7123 23.3705 2.71544 23.3735 2.71777L23.4087 2.74512C23.4117 2.74745 23.4155 2.75059 23.4185 2.75293L23.4448 2.77344C23.4478 2.77577 23.4516 2.77794 23.4546 2.78027L23.4634 2.78711C23.4664 2.78945 23.4692 2.79259 23.4722 2.79492L23.481 2.80176C23.484 2.80409 23.4877 2.80626 23.4907 2.80859L23.5083 2.82227C23.5113 2.8246 23.5141 2.82774 23.5171 2.83008L23.5259 2.83691C23.5289 2.83925 23.5326 2.84141 23.5356 2.84375L23.562 2.86426C23.565 2.86659 23.5688 2.86973 23.5718 2.87207L23.5981 2.89258C23.6011 2.89491 23.6049 2.89708 23.6079 2.89941L23.6167 2.90625C23.6197 2.90859 23.6225 2.91173 23.6255 2.91406L23.6431 2.92773C23.6461 2.93007 23.6498 2.93223 23.6528 2.93457L23.6616 2.94141C23.6646 2.94374 23.6674 2.94688 23.6704 2.94922L23.6792 2.95605C23.6822 2.95839 23.686 2.96055 23.689 2.96289L23.7153 2.9834C23.7183 2.98571 23.7212 2.9889 23.7241 2.99121C23.7271 2.99355 23.7309 2.99571 23.7339 2.99805L23.7603 3.01855C23.7633 3.02089 23.767 3.02305 23.77 3.02539C23.773 3.02773 23.7758 3.03087 23.7788 3.0332L23.7964 3.04688C23.7994 3.04921 23.8031 3.05137 23.8062 3.05371L23.8149 3.06055C23.8179 3.06288 23.8207 3.06602 23.8237 3.06836L23.8413 3.08203C23.8443 3.08437 23.8481 3.08653 23.8511 3.08887L23.8687 3.10254C23.8716 3.10487 23.8745 3.10803 23.8774 3.11035C23.8804 3.11269 23.8842 3.11485 23.8872 3.11719L23.9136 3.1377C23.9166 3.14003 23.9203 3.14317 23.9233 3.14551L23.9585 3.17285C23.9615 3.17519 23.9653 3.17735 23.9683 3.17969C23.9713 3.18202 23.9741 3.18517 23.9771 3.1875L23.9946 3.20117C23.9976 3.20351 24.0014 3.20567 24.0044 3.20801L24.022 3.22168C24.025 3.22402 24.0278 3.22716 24.0308 3.22949L24.0396 3.23633C24.0426 3.23866 24.0463 3.24083 24.0493 3.24316L24.0669 3.25684C24.0699 3.25917 24.0727 3.26232 24.0757 3.26465C24.0787 3.26698 24.0824 3.26915 24.0854 3.27148L24.1118 3.29199C24.1148 3.29433 24.1186 3.29649 24.1216 3.29883C24.1246 3.30114 24.1274 3.30433 24.1304 3.30664L24.1567 3.32715C24.1597 3.32948 24.1635 3.33165 24.1665 3.33398L24.1753 3.34082C24.1783 3.34316 24.1811 3.3463 24.1841 3.34863L24.1929 3.35547C24.1959 3.35781 24.1996 3.35997 24.2026 3.3623L24.2202 3.37598C24.2232 3.37831 24.226 3.38145 24.229 3.38379C24.232 3.38611 24.2358 3.3883 24.2388 3.39062L24.2739 3.41797C24.2769 3.42031 24.2807 3.42344 24.2837 3.42578L24.3101 3.44629C24.3131 3.44863 24.3168 3.45079 24.3198 3.45312L24.3286 3.45996C24.3316 3.4623 24.3344 3.46544 24.3374 3.46777L24.355 3.48145C24.358 3.48378 24.3617 3.48594 24.3647 3.48828L24.3735 3.49512C24.3765 3.49745 24.3793 3.50059 24.3823 3.50293L24.3911 3.50977C24.3941 3.5121 24.3979 3.51427 24.4009 3.5166L24.4272 3.53711C24.4303 3.53945 24.434 3.54259 24.437 3.54492L24.4722 3.57227C24.4752 3.5746 24.4789 3.57774 24.4819 3.58008L24.5083 3.60059C24.5113 3.60292 24.5151 3.60509 24.5181 3.60742L24.5269 3.61426C24.5299 3.61659 24.5326 3.61973 24.5356 3.62207L24.5444 3.62891C24.5474 3.63124 24.5512 3.63341 24.5542 3.63574L24.5806 3.65625C24.5835 3.65856 24.5864 3.66175 24.5894 3.66406C24.5924 3.6664 24.5961 3.66856 24.5991 3.6709L24.6255 3.69141C24.6285 3.69374 24.6322 3.69688 24.6353 3.69922L24.6704 3.72656C24.6734 3.72889 24.6772 3.73107 24.6802 3.7334C24.6832 3.73573 24.686 3.73887 24.689 3.74121L24.7065 3.75488C24.7095 3.75722 24.7133 3.75938 24.7163 3.76172L24.7339 3.77539C24.7369 3.77772 24.7397 3.78087 24.7427 3.7832C24.7457 3.78554 24.7494 3.7877 24.7524 3.79004L24.7788 3.81055C24.7818 3.81287 24.7846 3.81604 24.7876 3.81836C24.7906 3.8207 24.7944 3.82286 24.7974 3.8252L24.8237 3.8457C24.8267 3.84804 24.8305 3.8502 24.8335 3.85254C24.8365 3.85487 24.8393 3.85802 24.8423 3.86035L24.8599 3.87402C24.8629 3.87636 24.8666 3.87852 24.8696 3.88086L24.8784 3.8877C24.8814 3.89003 24.8842 3.89317 24.8872 3.89551L24.9048 3.90918C24.9078 3.91152 24.9115 3.91368 24.9146 3.91602L24.9321 3.92969C24.9351 3.93202 24.9379 3.93517 24.9409 3.9375C24.9439 3.93984 24.9477 3.942 24.9507 3.94434L24.9858 3.97168C24.9888 3.97402 24.9926 3.97716 24.9956 3.97949L25.022 4C25.025 4.00234 25.0287 4.0045 25.0317 4.00684C25.0347 4.00916 25.0375 4.01233 25.0405 4.01465L25.0581 4.02832C25.0611 4.03066 25.0649 4.03282 25.0679 4.03516L25.0854 4.04883C25.0885 4.05116 25.0912 4.0543 25.0942 4.05664L25.103 4.06348C25.106 4.06581 25.1098 4.06798 25.1128 4.07031L25.1392 4.09082C25.1422 4.09316 25.1459 4.0963 25.1489 4.09863L25.1753 4.11914C25.1783 4.12148 25.1821 4.12364 25.1851 4.12598C25.188 4.12828 25.1909 4.13148 25.1938 4.13379L25.2202 4.1543C25.2232 4.15663 25.227 4.1588 25.23 4.16113L25.2388 4.16797C25.2418 4.17031 25.2446 4.17344 25.2476 4.17578L25.2563 4.18262C25.2594 4.18495 25.2631 4.18712 25.2661 4.18945L25.2837 4.20312C25.2867 4.20546 25.2895 4.2086 25.2925 4.21094L25.3013 4.21777C25.3043 4.22011 25.308 4.22227 25.311 4.22461L25.3374 4.24512C25.3404 4.24745 25.3442 4.25059 25.3472 4.25293L25.3735 4.27344C25.3765 4.27577 25.3803 4.27794 25.3833 4.28027L25.3921 4.28711C25.3951 4.28945 25.3979 4.29259 25.4009 4.29492L25.4185 4.30859C25.4215 4.31093 25.4252 4.31309 25.4282 4.31543L25.437 4.32227C25.44 4.3246 25.4428 4.32774 25.4458 4.33008L25.4546 4.33691C25.4576 4.33925 25.4614 4.34141 25.4644 4.34375L25.4907 4.36426C25.4937 4.36659 25.4975 4.36973 25.5005 4.37207L25.5356 4.39941C25.5386 4.40175 25.5424 4.40392 25.5454 4.40625C25.5484 4.40859 25.5512 4.41173 25.5542 4.41406L25.5718 4.42773C25.5748 4.43007 25.5785 4.43223 25.5815 4.43457L25.5903 4.44141C25.5933 4.44374 25.5961 4.44688 25.5991 4.44922L25.6167 4.46289C25.6197 4.46523 25.6235 4.46739 25.6265 4.46973L25.644 4.4834C25.647 4.48572 25.6498 4.48889 25.6528 4.49121C25.6558 4.49355 25.6596 4.49571 25.6626 4.49805L25.689 4.51855C25.692 4.52089 25.6957 4.52403 25.6987 4.52637L25.7339 4.55371C25.7369 4.55605 25.7406 4.55821 25.7437 4.56055C25.7467 4.56288 25.7494 4.56603 25.7524 4.56836L25.77 4.58203C25.773 4.58437 25.7768 4.58653 25.7798 4.58887L25.7974 4.60254C25.8004 4.60488 25.8031 4.60802 25.8062 4.61035L25.8149 4.61719C25.8179 4.61952 25.8217 4.62169 25.8247 4.62402L25.8423 4.6377C25.8453 4.64002 25.8481 4.64318 25.8511 4.64551C25.8541 4.64784 25.8578 4.65001 25.8608 4.65234L25.8872 4.67285C25.8902 4.67519 25.894 4.67735 25.897 4.67969C25.9 4.68201 25.9028 4.68518 25.9058 4.6875L25.9321 4.70801C25.9351 4.71034 25.9389 4.71251 25.9419 4.71484L25.9507 4.72168C25.9537 4.72402 25.9565 4.72716 25.9595 4.72949L25.9683 4.73633C25.9713 4.73866 25.975 4.74083 25.978 4.74316L25.9956 4.75684C25.9986 4.75917 26.0014 4.76231 26.0044 4.76465C26.0074 4.76698 26.0112 4.76916 26.0142 4.77148L26.0493 4.79883C26.0523 4.80116 26.0561 4.8043 26.0591 4.80664L26.0854 4.82715C26.0885 4.82948 26.0922 4.83165 26.0952 4.83398C26.0982 4.8363 26.101 4.83949 26.104 4.8418L26.1304 4.8623C26.1334 4.86464 26.1371 4.8668 26.1401 4.86914L26.1489 4.87598C26.1519 4.87831 26.1547 4.88145 26.1577 4.88379L26.1665 4.89062C26.1695 4.89296 26.1733 4.89512 26.1763 4.89746L26.2026 4.91797C26.2056 4.92031 26.2094 4.92344 26.2124 4.92578L26.2476 4.95312C26.2506 4.95546 26.2543 4.9586 26.2573 4.96094L26.2837 4.98145C26.2867 4.98378 26.2905 4.98594 26.2935 4.98828L26.3022 4.99512C26.3053 4.99745 26.308 5.00059 26.311 5.00293L26.3198 5.00977C26.3228 5.0121 26.3266 5.01427 26.3296 5.0166L26.356 5.03711C26.3589 5.03942 26.3618 5.04261 26.3647 5.04492C26.3678 5.04726 26.3715 5.04942 26.3745 5.05176L26.4009 5.07227C26.4039 5.0746 26.4076 5.07774 26.4106 5.08008L26.4458 5.10742C26.4488 5.10975 26.4526 5.11193 26.4556 5.11426C26.4586 5.11659 26.4614 5.11973 26.4644 5.12207L26.4819 5.13574C26.4849 5.13808 26.4887 5.14024 26.4917 5.14258L26.5005 5.14941C26.5035 5.15175 26.5063 5.15489 26.5093 5.15723L26.5181 5.16406C26.5211 5.1664 26.5248 5.16856 26.5278 5.1709L26.5542 5.19141C26.5572 5.19372 26.56 5.1969 26.563 5.19922C26.566 5.20156 26.5697 5.20372 26.5728 5.20605L26.5991 5.22656C26.6021 5.2289 26.6059 5.23106 26.6089 5.2334C26.6119 5.23573 26.6147 5.23888 26.6177 5.24121L26.6353 5.25488C26.6383 5.25722 26.642 5.25938 26.645 5.26172L26.6538 5.26855C26.6568 5.27089 26.6596 5.27403 26.6626 5.27637L26.6802 5.29004C26.6832 5.29238 26.6869 5.29454 26.6899 5.29688L26.7075 5.31055C26.7105 5.31288 26.7133 5.31603 26.7163 5.31836C26.7193 5.3207 26.7231 5.32286 26.7261 5.3252L26.7612 5.35254C26.7642 5.35488 26.768 5.35802 26.771 5.36035L26.7974 5.38086C26.8004 5.3832 26.8041 5.38536 26.8071 5.3877C26.8101 5.39002 26.8129 5.39318 26.8159 5.39551L26.8335 5.40918C26.8365 5.41152 26.8403 5.41368 26.8433 5.41602L26.8608 5.42969C26.8638 5.43202 26.8666 5.43516 26.8696 5.4375L26.8784 5.44434C26.8814 5.44667 26.8852 5.44884 26.8882 5.45117L26.9058 5.46484C26.9088 5.46718 26.9115 5.47032 26.9146 5.47266C26.9176 5.47499 26.9213 5.47716 26.9243 5.47949L26.9507 5.5C26.9537 5.50234 26.9574 5.5045 26.9604 5.50684C26.9634 5.50915 26.9663 5.51234 26.9692 5.51465L26.9956 5.53516C26.9986 5.53749 27.0024 5.53966 27.0054 5.54199L27.0142 5.54883C27.0172 5.55116 27.0199 5.5543 27.0229 5.55664L27.0317 5.56348C27.0347 5.56581 27.0385 5.56798 27.0415 5.57031L27.0591 5.58398C27.0621 5.58632 27.0649 5.58946 27.0679 5.5918L27.0767 5.59863C27.0797 5.60097 27.0834 5.60313 27.0864 5.60547L27.1128 5.62598C27.1158 5.62831 27.1196 5.63145 27.1226 5.63379L27.1489 5.6543C27.1519 5.65663 27.1557 5.6588 27.1587 5.66113L27.1675 5.66797C27.1705 5.67031 27.1733 5.67344 27.1763 5.67578L27.1938 5.68945C27.1969 5.69179 27.2006 5.69395 27.2036 5.69629L27.2124 5.70312C27.2154 5.70546 27.2182 5.7086 27.2212 5.71094L27.23 5.71777C27.233 5.72011 27.2367 5.72227 27.2397 5.72461L27.2661 5.74512C27.2691 5.74745 27.2729 5.75059 27.2759 5.75293L27.311 5.78027C27.314 5.78261 27.3178 5.78575 27.3208 5.78809L27.3472 5.80859C27.3502 5.81093 27.3539 5.81309 27.3569 5.81543L27.3657 5.82227C27.3687 5.8246 27.3715 5.82774 27.3745 5.83008L27.3921 5.84375C27.3951 5.84609 27.3989 5.84825 27.4019 5.85059L27.4194 5.86426C27.4224 5.86657 27.4252 5.86975 27.4282 5.87207C27.4312 5.87441 27.435 5.87657 27.438 5.87891L27.4644 5.89941C27.4674 5.90175 27.4711 5.90489 27.4741 5.90723L27.5093 5.93457C27.5123 5.9369 27.516 5.93907 27.519 5.94141C27.522 5.94374 27.5248 5.94688 27.5278 5.94922L27.5454 5.96289C27.5484 5.96523 27.5522 5.96739 27.5552 5.96973L27.5728 5.9834C27.5758 5.98573 27.5785 5.98888 27.5815 5.99121C27.5845 5.99355 27.5883 5.99571 27.5913 5.99805L27.6177 6.01855C27.6207 6.02088 27.6235 6.02404 27.6265 6.02637C27.6295 6.0287 27.6332 6.03087 27.6362 6.0332L27.6626 6.05371C27.6656 6.05605 27.6694 6.05821 27.6724 6.06055C27.6754 6.06287 27.6782 6.06604 27.6812 6.06836L27.7075 6.08887C27.7105 6.0912 27.7143 6.09337 27.7173 6.0957C27.7203 6.09803 27.7231 6.10118 27.7261 6.10352L27.7437 6.11719C27.7467 6.11952 27.7504 6.12169 27.7534 6.12402L27.771 6.1377C27.774 6.14003 27.7768 6.14317 27.7798 6.14551C27.7828 6.14784 27.7866 6.15001 27.7896 6.15234L27.8247 6.17969C27.8277 6.18202 27.8315 6.18516 27.8345 6.1875L27.9751 6.29688L28.2368 6.5L28.9272 7.03516L29.0718 7.14746L29.3472 7.35938C29.6328 7.58038 29.7595 7.67856 29.8276 7.75684C29.881 7.81812 29.8932 7.86094 29.9243 7.99121C29.9168 8.08386 29.8939 8.14511 29.8589 8.19824C29.8192 8.25839 29.7623 8.31355 29.6753 8.39355L29.3374 8.66211L29.3364 8.66309L29.1655 8.79785L28.7915 9.08496L28.0669 9.64453L27.7944 9.85547L27.6577 9.96289L26.9937 10.4795L26.73 10.6846C26.7283 10.6858 26.7267 10.6872 26.7251 10.6885C26.7234 10.6898 26.721 10.691 26.7192 10.6924L26.7046 10.7041C26.7029 10.7054 26.7004 10.7067 26.6987 10.708C26.6971 10.7093 26.6955 10.7106 26.6938 10.7119C26.6921 10.7132 26.6907 10.7155 26.689 10.7168C26.6873 10.7181 26.6848 10.7194 26.6831 10.7207L26.6685 10.7324C26.6667 10.7338 26.6643 10.735 26.6626 10.7363L26.6479 10.748C26.6463 10.7494 26.6438 10.7506 26.6421 10.752C26.6404 10.7533 26.6389 10.7555 26.6372 10.7568C26.6356 10.7581 26.634 10.7595 26.6323 10.7607C26.6306 10.7621 26.6282 10.7633 26.6265 10.7646L26.6118 10.7764C26.6101 10.7777 26.6077 10.7789 26.606 10.7803L26.5913 10.792C26.5896 10.7933 26.5872 10.7955 26.5854 10.7969L26.5757 10.8047C26.574 10.806 26.5715 10.8073 26.5698 10.8086L26.5552 10.8203C26.5535 10.8216 26.551 10.8229 26.5493 10.8242L26.5396 10.832C26.5379 10.8333 26.5364 10.8356 26.5347 10.8369C26.533 10.8382 26.5305 10.8395 26.5288 10.8408L26.519 10.8486C26.5173 10.85 26.5149 10.8512 26.5132 10.8525L26.4985 10.8643C26.4968 10.8656 26.4944 10.8668 26.4927 10.8682C26.491 10.8695 26.4895 10.8717 26.4878 10.873L26.478 10.8809C26.4763 10.8822 26.4739 10.8834 26.4722 10.8848L26.4624 10.8926C26.4607 10.8939 26.4583 10.8951 26.4565 10.8965L26.4419 10.9082C26.4402 10.9095 26.4378 10.9118 26.436 10.9131L26.4214 10.9248C26.4197 10.9261 26.4172 10.9274 26.4155 10.9287L26.4058 10.9365C26.404 10.9379 26.4016 10.9391 26.3999 10.9404L26.3901 10.9482C26.3884 10.9496 26.387 10.9518 26.3853 10.9531C26.3835 10.9545 26.3811 10.9557 26.3794 10.957L26.3647 10.9688C26.363 10.9701 26.3606 10.9713 26.3589 10.9727L26.3491 10.9805C26.3474 10.9818 26.345 10.983 26.3433 10.9844C26.3416 10.9857 26.34 10.987 26.3384 10.9883C26.3367 10.9896 26.3352 10.9918 26.3335 10.9932C26.3319 10.9944 26.3303 10.9958 26.3286 10.9971C26.3269 10.9984 26.3245 10.9996 26.3228 11.001L26.313 11.0088C26.3113 11.0101 26.3088 11.0114 26.3071 11.0127L26.2925 11.0244C26.2908 11.0257 26.2883 11.027 26.2866 11.0283C26.2849 11.0297 26.2834 11.0319 26.2817 11.0332L26.272 11.041C26.2703 11.0424 26.2678 11.0436 26.2661 11.0449L26.2563 11.0527C26.2546 11.0541 26.2522 11.0553 26.2505 11.0566L26.2358 11.0684C26.2341 11.0697 26.2317 11.0719 26.23 11.0732L26.2153 11.085C26.2136 11.0863 26.2112 11.0875 26.2095 11.0889L26.1997 11.0967C26.198 11.098 26.1956 11.0993 26.1938 11.1006C26.1922 11.1019 26.1906 11.1032 26.189 11.1045C26.1872 11.1058 26.1858 11.108 26.1841 11.1094C26.1824 11.1107 26.1808 11.112 26.1792 11.1133C26.1775 11.1146 26.1751 11.1159 26.1733 11.1172L26.1587 11.1289C26.157 11.1302 26.1545 11.1315 26.1528 11.1328L26.1431 11.1406C26.1413 11.142 26.1389 11.1432 26.1372 11.1445C26.1355 11.1458 26.134 11.1481 26.1323 11.1494L26.1226 11.1572C26.1208 11.1586 26.1184 11.1598 26.1167 11.1611L26.1021 11.1729C26.1003 11.1742 26.0979 11.1754 26.0962 11.1768L26.0864 11.1846C26.0847 11.1859 26.0823 11.1881 26.0806 11.1895L26.0659 11.2012C26.0642 11.2025 26.0618 11.2037 26.0601 11.2051L26.0454 11.2168C26.0437 11.2181 26.0413 11.2194 26.0396 11.2207C26.0379 11.222 26.0363 11.2233 26.0347 11.2246C26.033 11.2259 26.0315 11.2282 26.0298 11.2295C26.0281 11.2308 26.0256 11.2321 26.0239 11.2334L26.0093 11.2451C26.0076 11.2465 26.0051 11.2477 26.0034 11.249L25.9888 11.2607C25.9871 11.2621 25.9846 11.2633 25.9829 11.2646C25.9812 11.266 25.9797 11.2682 25.978 11.2695C25.9764 11.2708 25.9748 11.2722 25.9731 11.2734C25.9714 11.2748 25.969 11.276 25.9673 11.2773L25.9526 11.2891C25.9509 11.2904 25.9485 11.2916 25.9468 11.293L25.9321 11.3047C25.9304 11.306 25.928 11.3082 25.9263 11.3096L25.9165 11.3174C25.9148 11.3187 25.9124 11.32 25.9106 11.3213L25.896 11.333C25.8943 11.3343 25.8919 11.3356 25.8901 11.3369L25.8804 11.3447C25.8787 11.346 25.8772 11.3483 25.8755 11.3496C25.8738 11.3509 25.8713 11.3522 25.8696 11.3535L25.8599 11.3613C25.8581 11.3627 25.8557 11.3639 25.854 11.3652L25.8394 11.377C25.8376 11.3783 25.8352 11.3795 25.8335 11.3809C25.8318 11.3822 25.8303 11.3844 25.8286 11.3857L25.8188 11.3936C25.8171 11.3949 25.8147 11.3961 25.813 11.3975L25.8032 11.4053C25.8015 11.4066 25.7991 11.4078 25.7974 11.4092L25.7827 11.4209C25.781 11.4222 25.7786 11.4244 25.7769 11.4258L25.7622 11.4375C25.7605 11.4388 25.7581 11.4401 25.7563 11.4414L25.7466 11.4492C25.7449 11.4506 25.7424 11.4518 25.7407 11.4531L25.731 11.4609C25.7293 11.4623 25.7278 11.4645 25.7261 11.4658C25.7244 11.4672 25.7219 11.4684 25.7202 11.4697L25.7056 11.4814C25.7038 11.4828 25.7014 11.484 25.6997 11.4854L25.6899 11.4932C25.6882 11.4945 25.6858 11.4957 25.6841 11.4971C25.6824 11.4983 25.6808 11.4997 25.6792 11.501C25.6775 11.5023 25.676 11.5045 25.6743 11.5059C25.6727 11.5071 25.6711 11.5085 25.6694 11.5098C25.6677 11.5111 25.6653 11.5123 25.6636 11.5137L25.6538 11.5215C25.6521 11.5228 25.6497 11.5241 25.6479 11.5254L25.6333 11.5371C25.6316 11.5384 25.6292 11.5397 25.6274 11.541C25.6257 11.5423 25.6243 11.5446 25.6226 11.5459L25.6128 11.5537C25.6111 11.555 25.6087 11.5563 25.6069 11.5576L25.5972 11.5654C25.5955 11.5668 25.593 11.568 25.5913 11.5693L25.5767 11.5811C25.5749 11.5824 25.5725 11.5846 25.5708 11.5859L25.5562 11.5977C25.5544 11.599 25.552 11.6002 25.5503 11.6016L25.5405 11.6094C25.5388 11.6107 25.5364 11.6119 25.5347 11.6133C25.533 11.6146 25.5314 11.6159 25.5298 11.6172C25.5281 11.6185 25.5266 11.6207 25.5249 11.6221C25.5233 11.6233 25.5217 11.6247 25.52 11.626C25.5183 11.6273 25.5159 11.6285 25.5142 11.6299L25.4995 11.6416C25.4978 11.6429 25.4954 11.6442 25.4937 11.6455L25.4839 11.6533C25.4822 11.6547 25.4797 11.6559 25.478 11.6572C25.4763 11.6585 25.4748 11.6608 25.4731 11.6621L25.4634 11.6699C25.4617 11.6713 25.4592 11.6725 25.4575 11.6738L25.4429 11.6855C25.4412 11.6869 25.4387 11.6881 25.437 11.6895L25.4272 11.6973C25.4255 11.6986 25.4231 11.7008 25.4214 11.7021L25.4067 11.7139C25.405 11.7152 25.4026 11.7164 25.4009 11.7178L25.3862 11.7295C25.3845 11.7308 25.3821 11.7321 25.3804 11.7334C25.3787 11.7347 25.3771 11.736 25.3755 11.7373C25.3738 11.7386 25.3723 11.7409 25.3706 11.7422C25.3689 11.7435 25.3664 11.7448 25.3647 11.7461L25.3501 11.7578C25.3484 11.7591 25.346 11.7604 25.3442 11.7617L25.3296 11.7734C25.3279 11.7748 25.3254 11.776 25.3237 11.7773C25.322 11.7787 25.3206 11.7809 25.3188 11.7822C25.3172 11.7835 25.3156 11.7849 25.314 11.7861C25.3122 11.7875 25.3098 11.7887 25.3081 11.79L25.2935 11.8018C25.2917 11.8031 25.2893 11.8043 25.2876 11.8057L25.2729 11.8174C25.2712 11.8187 25.2688 11.8209 25.2671 11.8223L25.2573 11.8301C25.2556 11.8314 25.2532 11.8326 25.2515 11.834L25.2368 11.8457C25.2351 11.847 25.2327 11.8483 25.231 11.8496L25.2212 11.8574C25.2195 11.8587 25.218 11.861 25.2163 11.8623C25.2146 11.8636 25.2122 11.8649 25.2104 11.8662L25.2007 11.874C25.199 11.8754 25.1965 11.8766 25.1948 11.8779L25.1802 11.8896C25.1785 11.891 25.176 11.8922 25.1743 11.8936C25.1726 11.8949 25.1711 11.8971 25.1694 11.8984L25.1597 11.9062C25.158 11.9076 25.1555 11.9088 25.1538 11.9102L25.144 11.918C25.1423 11.9193 25.1399 11.9205 25.1382 11.9219L25.1235 11.9336C25.1218 11.9349 25.1194 11.9371 25.1177 11.9385L25.103 11.9502C25.1013 11.9515 25.0989 11.9528 25.0972 11.9541L25.0874 11.9619C25.0857 11.9632 25.0833 11.9645 25.0815 11.9658L25.0718 11.9736C25.0701 11.975 25.0686 11.9772 25.0669 11.9785C25.0652 11.9799 25.0628 11.9811 25.061 11.9824L25.0464 11.9941C25.0447 11.9955 25.0422 11.9967 25.0405 11.998L25.0308 12.0059C25.029 12.0072 25.0266 12.0084 25.0249 12.0098C25.0233 12.011 25.0217 12.0124 25.02 12.0137C25.0183 12.015 25.0169 12.0172 25.0151 12.0186C25.0135 12.0198 25.0119 12.0212 25.0103 12.0225C25.0085 12.0238 25.0061 12.025 25.0044 12.0264L24.9946 12.0342C24.9929 12.0355 24.9905 12.0368 24.9888 12.0381L24.9741 12.0498C24.9724 12.0511 24.97 12.0524 24.9683 12.0537C24.9666 12.055 24.9651 12.0573 24.9634 12.0586L24.9536 12.0664C24.9519 12.0677 24.9495 12.069 24.9478 12.0703L24.938 12.0781C24.9363 12.0795 24.9338 12.0807 24.9321 12.082L24.9175 12.0938C24.9158 12.0951 24.9133 12.0973 24.9116 12.0986L24.897 12.1104C24.8953 12.1117 24.8928 12.1129 24.8911 12.1143L24.8813 12.1221C24.8796 12.1234 24.8772 12.1246 24.8755 12.126C24.8738 12.1273 24.8723 12.1286 24.8706 12.1299C24.8689 12.1312 24.8674 12.1334 24.8657 12.1348C24.8641 12.136 24.8625 12.1374 24.8608 12.1387C24.8591 12.14 24.8567 12.1412 24.855 12.1426L24.8403 12.1543C24.8386 12.1556 24.8362 12.1569 24.8345 12.1582L24.8247 12.166C24.823 12.1674 24.8206 12.1686 24.8188 12.1699C24.8172 12.1712 24.8157 12.1735 24.814 12.1748L24.8042 12.1826C24.8025 12.184 24.8001 12.1852 24.7983 12.1865L24.7837 12.1982C24.782 12.1996 24.7795 12.2008 24.7778 12.2021L24.7681 12.21C24.7663 12.2113 24.7639 12.2135 24.7622 12.2148L24.7476 12.2266C24.7458 12.2279 24.7434 12.2291 24.7417 12.2305L24.7271 12.2422C24.7253 12.2435 24.7229 12.2448 24.7212 12.2461C24.7195 12.2474 24.718 12.2487 24.7163 12.25C24.7146 12.2513 24.7131 12.2535 24.7114 12.2549C24.7097 12.2562 24.7073 12.2575 24.7056 12.2588L24.6909 12.2705C24.6892 12.2718 24.6868 12.2731 24.6851 12.2744L24.6704 12.2861C24.6687 12.2875 24.6662 12.2887 24.6646 12.29C24.6628 12.2914 24.6614 12.2936 24.6597 12.2949C24.658 12.2962 24.6564 12.2975 24.6548 12.2988C24.6531 12.3002 24.6506 12.3014 24.6489 12.3027L24.6343 12.3145C24.6326 12.3158 24.6301 12.317 24.6284 12.3184L24.6138 12.3301C24.6121 12.3314 24.6096 12.3336 24.6079 12.335L24.5981 12.3428C24.5964 12.3441 24.594 12.3453 24.5923 12.3467L24.5776 12.3584C24.5759 12.3597 24.5735 12.361 24.5718 12.3623L24.562 12.3701C24.5603 12.3714 24.5588 12.3737 24.5571 12.375C24.5554 12.3763 24.553 12.3776 24.5513 12.3789L24.5415 12.3867C24.5398 12.3881 24.5374 12.3893 24.5356 12.3906L24.521 12.4023C24.5193 12.4037 24.5169 12.4049 24.5151 12.4062C24.5134 12.4076 24.512 12.4098 24.5103 12.4111L24.5005 12.4189C24.4988 12.4203 24.4963 12.4215 24.4946 12.4229L24.4849 12.4307C24.4831 12.432 24.4807 12.4332 24.479 12.4346L24.4644 12.4463C24.4626 12.4476 24.4602 12.4498 24.4585 12.4512L24.4438 12.4629C24.4421 12.4642 24.4397 12.4655 24.438 12.4668L24.4282 12.4746C24.4265 12.4759 24.4241 12.4772 24.4224 12.4785L24.4126 12.4863C24.4109 12.4877 24.4094 12.4899 24.4077 12.4912C24.406 12.4925 24.4036 12.4938 24.4019 12.4951L24.3872 12.5068C24.3855 12.5082 24.3831 12.5094 24.3813 12.5107L24.3716 12.5186C24.3699 12.5199 24.3674 12.5211 24.3657 12.5225C24.3641 12.5237 24.3625 12.5251 24.3608 12.5264C24.3591 12.5277 24.3577 12.5299 24.356 12.5312C24.3543 12.5325 24.3527 12.5339 24.3511 12.5352C24.3494 12.5365 24.3469 12.5377 24.3452 12.5391L24.3354 12.5469C24.3337 12.5482 24.3313 12.5494 24.3296 12.5508L24.3149 12.5625C24.3132 12.5638 24.3108 12.5651 24.3091 12.5664C24.3074 12.5677 24.3059 12.57 24.3042 12.5713L24.2944 12.5791C24.2927 12.5804 24.2903 12.5817 24.2886 12.583L24.2788 12.5908C24.2771 12.5922 24.2747 12.5934 24.2729 12.5947L24.2583 12.6064C24.2566 12.6078 24.2542 12.61 24.2524 12.6113L24.2378 12.623C24.2361 12.6244 24.2337 12.6256 24.2319 12.627L24.2222 12.6348C24.2205 12.6361 24.218 12.6373 24.2163 12.6387C24.2147 12.64 24.2131 12.6413 24.2114 12.6426C24.2097 12.6439 24.2083 12.6461 24.2065 12.6475C24.2049 12.6487 24.2033 12.6501 24.2017 12.6514C24.1999 12.6527 24.1975 12.6539 24.1958 12.6553L24.1812 12.667C24.1794 12.6683 24.177 12.6696 24.1753 12.6709L24.1655 12.6787C24.1638 12.68 24.1614 12.6813 24.1597 12.6826C24.158 12.6839 24.1565 12.6862 24.1548 12.6875L24.145 12.6953C24.1433 12.6966 24.1409 12.6979 24.1392 12.6992L24.1245 12.7109C24.1228 12.7123 24.1204 12.7135 24.1187 12.7148L24.1089 12.7227C24.1072 12.724 24.1047 12.7262 24.103 12.7275L24.0933 12.7354L23.6978 13.043L22.9038 13.6611L22.6401 13.8652C22.416 14.0385 22.1936 14.2139 21.9731 14.3926L21.7075 14.6035L21.7065 14.6055C21.6665 14.6386 21.6257 14.6719 21.5845 14.7061C21.4875 14.7826 21.4213 14.8303 21.3521 14.8643C21.2874 14.8959 21.2144 14.9167 21.105 14.9316C21.0213 14.9189 20.9937 14.9141 20.9673 14.9033C20.9394 14.8919 20.9104 14.8737 20.8325 14.8203C20.7806 14.7437 20.7654 14.7189 20.7573 14.6943C20.7495 14.6703 20.747 14.6426 20.7437 14.5537C20.8004 14.391 20.9079 14.2564 21.0474 14.1309C21.1217 14.064 21.2004 14.0029 21.2817 13.9424L21.5327 13.7568L21.8169 13.5371H21.8179V13.5361H21.8188L21.8198 13.5352H21.8208V13.5342H21.8218V13.5332H21.8228V13.5322H21.8237L21.8257 13.5303H21.8267V13.5293H21.8276L21.8296 13.5273H21.8306V13.5264H21.8315V13.5254H21.8335V13.5244H21.8345V13.5234H21.8354L21.8374 13.5215H21.8384V13.5205H21.8394V13.5195H21.8403L21.8423 13.5176H21.8433V13.5166H21.8442V13.5156H21.8452L21.8462 13.5146H21.8472V13.5137H21.8481L21.8501 13.5117H21.8511V13.5107H21.8521V13.5098H21.853L21.854 13.5088H21.855V13.5078H21.856V13.5068H21.8569V13.5059H21.8589V13.5049H21.8599V13.5039H21.8608V13.5029H21.8618L21.8628 13.502H21.8638V13.501H21.8647V13.5H21.8657V13.499H21.8677V13.498H21.8687V13.4971H21.8696V13.4961H21.8706L21.8716 13.4951H21.8726V13.4941H21.8735V13.4932H21.8745L21.8755 13.4922H21.8765V13.4912H21.8774V13.4902H21.8784L21.8794 13.4893H21.8804V13.4883H21.8813V13.4873H21.8823V13.4863H21.8843V13.4854H21.8853V13.4844H21.8862V13.4834H21.8882V13.4824H21.8892V13.4814H21.8901V13.4805H21.8911V13.4795H21.8931V13.4785H21.894V13.4775H21.895V13.4766H21.897V13.4756H21.8979V13.4746H21.8989V13.4736H21.8999L21.9009 13.4727H21.9019V13.4717H21.9028V13.4707H21.9038L21.9048 13.4697H21.9058V13.4688H21.9067V13.4678H21.9077V13.4668H21.9097V13.4658H21.9106V13.4648H21.9116V13.4639H21.9126L21.9136 13.4629H21.9146V13.4619H21.9155V13.4609H21.9165L21.9175 13.46H21.9185V13.459H21.9194V13.458H21.9204V13.457H21.9224V13.4561H21.9233V13.4551H21.9243V13.4541H21.9253L21.9263 13.4531H21.9272V13.4521H21.9282V13.4512H21.9292L21.9302 13.4502H21.9312V13.4492H21.9321V13.4482H21.9331V13.4473H21.9341L21.9351 13.4463H21.936V13.4453H21.937V13.4443H21.939V13.4434H21.9399V13.4424H21.9409V13.4414H21.9419L21.9438 13.4395H21.9448V13.4385H21.9458V13.4375H21.9478V13.4365H21.9487V13.4355H21.9497V13.4346H21.9507L21.9517 13.4336H21.9526V13.4326H21.9536V13.4316H21.9546V13.4307H21.9565V13.4297H21.9575V13.4287H21.9585L21.9604 13.4268H21.9614V13.4258H21.9624L21.9634 13.4248L22.6353 12.9033L26.7222 9.72461L26.9839 9.52051L27.6714 8.98633L27.8159 8.87402L28.0894 8.66211C28.1508 8.61437 28.1501 8.6129 28.2124 8.56445L28.2134 8.56543L28.3306 8.47461V8.47363C28.4233 8.40074 28.5145 8.32632 28.604 8.25195C28.6358 8.22789 28.6562 8.21229 28.6724 8.20117C28.688 8.19047 28.6945 8.18742 28.6968 8.18652C28.7004 8.1851 28.7039 8.18359 28.77 8.18359H28.895V7.86035Z" fill="white" stroke="black" stroke-width="0.25"/>
<path d="M14.4106 5.86572C14.5509 5.90167 14.6696 5.99488 14.7817 6.12744C14.8424 6.19916 14.8967 6.27594 14.9497 6.35498L15.1099 6.59521C15.1548 6.65958 15.1554 6.66024 15.2007 6.7251V6.72607L15.4829 7.1333L15.5767 7.26904C16.0363 7.93422 16.0359 7.93398 16.2437 8.24561L16.4692 8.5835L16.4731 8.17725L16.4741 7.98193L16.4849 7.26514V7.26416L16.4888 6.95264L16.4956 6.50732V6.36865C16.4984 6.26498 16.5033 6.19351 16.519 6.12939C16.5328 6.07347 16.5569 6.01906 16.6021 5.95361C16.6737 5.90705 16.7286 5.88783 16.7837 5.88135C16.8415 5.87457 16.9052 5.87939 16.9985 5.89209C17.0718 5.94836 17.116 5.9932 17.146 6.0415C17.1783 6.09352 17.2003 6.15744 17.2192 6.2583L17.23 6.59912L17.2329 6.81689L17.2397 7.79639L17.2437 8.31494L17.2485 8.94092L17.2534 9.29639C17.2527 9.59983 17.2512 9.72996 17.2339 9.81006C17.2215 9.86699 17.2037 9.88976 17.1284 9.97119C16.9866 10.0572 16.883 10.0907 16.7261 10.0825C16.5597 10.0216 16.4 9.85733 16.2456 9.64014C16.1682 9.53126 16.0955 9.41511 16.0269 9.30225L15.8325 8.98877L15.7202 8.82178C15.4942 8.4868 15.2695 8.15076 15.0454 7.81396L14.8179 7.47217L14.8169 7.88232C14.8165 7.9732 14.8163 7.9732 14.8159 8.06592L14.8071 8.74072L14.8052 9.03467L14.7993 9.45361V9.45752L14.8003 9.58838C14.7971 9.69745 14.7878 9.76578 14.7681 9.82568C14.7492 9.88286 14.7165 9.93967 14.6548 10.02C14.5846 10.073 14.5613 10.0894 14.5356 10.1001C14.5089 10.1112 14.4769 10.1174 14.3833 10.1323C14.2801 10.1146 14.2316 10.0988 14.1948 10.0757C14.1583 10.0527 14.1243 10.0171 14.064 9.93994C14.0524 9.87236 14.0464 9.83904 14.0435 9.80322L14.0396 9.60889L14.0386 9.60791L14.0376 9.49365V9.12061L14.0356 8.85986L14.0366 8.31396L14.0337 7.61279V7.07471L14.0317 6.81592L14.0337 6.45752V6.26221C14.0597 6.14112 14.1037 6.05554 14.1636 5.99463C14.2205 5.9368 14.2997 5.89288 14.4106 5.86572Z" fill="white" stroke="black" stroke-width="0.25"/>
<path d="M9.45874 6.45068C10.2498 5.76913 11.2203 5.71324 12.1335 6.21924C12.6131 6.60284 12.9725 7.05792 13.0593 7.66064C13.0868 8.03768 13.0545 8.35137 12.9597 8.64111C12.865 8.93054 12.7051 9.2026 12.4705 9.49561C12.1445 9.85686 11.6684 10.0763 11.1794 10.1147C10.5318 10.1277 10.0075 10.0209 9.52124 9.60986C9.0536 9.13824 8.8421 8.66429 8.82983 8.0083C8.83505 7.38405 9.02293 6.89429 9.45874 6.45068ZM10.9451 6.56299C10.5361 6.57458 10.1587 6.71909 9.87085 7.05225H9.86987L9.86206 7.06396C9.72675 7.26193 9.63134 7.44957 9.57788 7.65186C9.5243 7.85469 9.51456 8.06574 9.5437 8.30811L9.54468 8.31885L9.54858 8.32861C9.61476 8.54909 9.70295 8.72825 9.82788 8.88232C9.92138 8.9976 10.0328 9.09606 10.1638 9.18701L10.3015 9.27588L10.3093 9.27979C10.6581 9.45679 11.0431 9.47691 11.4119 9.37354L11.4207 9.37061L11.4285 9.36768C11.8412 9.18469 12.1368 8.85902 12.3259 8.46436L12.3328 8.44971L12.3357 8.43311C12.4148 8.01112 12.4029 7.62969 12.1794 7.23486L12.1746 7.22705L12.1687 7.22021L12.0671 7.09619C11.8578 6.85819 11.6166 6.68416 11.2986 6.60107L11.1335 6.56689L11.1218 6.56592L10.9451 6.56299Z" fill="white" stroke="black" stroke-width="0.25"/>
<path d="M4.48633 6.396C5.23771 5.78848 6.2302 5.69852 7.06152 6.21143C7.57528 6.58036 7.89625 7.05955 8.00391 7.67725H8.00488C8.0654 8.32155 7.90448 8.89046 7.50195 9.39209C7.11358 9.82527 6.66469 10.0733 6.08691 10.1128C5.39217 10.122 4.87106 9.97799 4.37109 9.50342C3.95598 9.05385 3.7653 8.57489 3.75586 7.96045C3.79168 7.34232 4.0308 6.81185 4.4873 6.39697L4.48633 6.396ZM6.2002 6.59814C5.72035 6.51566 5.25033 6.6251 4.88477 6.98096L4.80273 7.06689L4.79883 7.07275C4.56278 7.36868 4.4413 7.66989 4.44531 8.06006V8.06885L4.44727 8.07861C4.51482 8.50145 4.66974 8.86433 5.01855 9.15088L5.02441 9.15576L5.03125 9.16064C5.38814 9.38701 5.74648 9.47579 6.1709 9.4126L6.18066 9.41162L6.18945 9.40869C6.61305 9.27723 6.9407 9.03514 7.18652 8.6665L7.19531 8.65283L7.2002 8.63818C7.32795 8.27612 7.36574 7.95401 7.26367 7.59326L7.21191 7.43604L7.20605 7.42432L7.13867 7.30225C6.9966 7.06384 6.80938 6.86583 6.56641 6.72314L6.44043 6.65674L6.43164 6.65186L6.42188 6.6499L6.2002 6.59814Z" fill="white" stroke="black" stroke-width="0.25"/>
<path d="M1.40869 5.89014C1.83078 5.85707 2.29405 5.97735 2.68604 6.17334H2.68701C2.81242 6.24756 2.88107 6.31272 2.95361 6.43115C2.96877 6.50406 2.97466 6.55484 2.97217 6.60205C2.96963 6.6495 2.95751 6.69948 2.93311 6.77002C2.89104 6.82975 2.87633 6.85216 2.85791 6.87061C2.84017 6.88834 2.81778 6.90293 2.76318 6.94189C2.61996 6.96 2.51472 6.94915 2.41748 6.9165C2.30894 6.88005 2.20388 6.81621 2.06006 6.72314H2.06104L2.04834 6.71631L1.96436 6.68115C1.76838 6.61252 1.56522 6.63376 1.39795 6.64502L1.38232 6.646L1.3667 6.65088L1.19092 6.70947L1.12256 6.73291L1.10791 6.8042L1.04932 7.09717L1.03076 7.18896L1.11377 7.23193C1.22862 7.29175 1.34455 7.34995 1.46143 7.40576L1.81787 7.56592C2.29268 7.76338 2.51199 7.85472 2.65283 7.94971C2.78014 8.03567 2.8421 8.12294 2.98389 8.33545C3.11036 8.69872 3.12965 8.99416 2.99561 9.34521C2.78741 9.7587 2.47616 9.94986 2.0249 10.1021C1.65641 10.1276 1.34285 10.1078 1.05322 10.0239C0.764806 9.94038 0.493626 9.79242 0.212402 9.55713C0.154451 9.46717 0.123092 9.38922 0.109863 9.31104C0.097002 9.23487 0.100955 9.15194 0.118652 9.04932C0.166638 8.99002 0.18487 8.96822 0.205566 8.95166C0.226551 8.93492 0.251982 8.92203 0.322754 8.88721C0.465947 8.88788 0.56351 8.91503 0.650879 8.96143C0.749509 9.01382 0.840173 9.09238 0.972168 9.20752L0.986816 9.21924L1.00244 9.22705C1.31001 9.36746 1.57026 9.37998 1.88525 9.35498L1.90576 9.354L1.92432 9.34521C2.01156 9.30808 2.09065 9.2726 2.15967 9.22021C2.23217 9.16518 2.28802 9.09686 2.34033 9.00146L2.35303 8.97705L2.35498 8.94971C2.35847 8.89661 2.36588 8.8279 2.33838 8.76416C2.32414 8.73123 2.30439 8.70475 2.28467 8.68311L2.21436 8.61377L2.09717 8.52002C1.9868 8.44127 1.88028 8.39174 1.74268 8.33936H1.74365L1.57373 8.27295H1.57178L1.396 8.20557C1.1669 8.11811 0.998564 8.05381 0.869629 7.99854C0.740364 7.9431 0.658312 7.89931 0.599121 7.85596C0.489649 7.77577 0.445904 7.68949 0.336426 7.44971C0.240224 7.13722 0.249649 6.81239 0.375488 6.51416C0.615799 6.10418 0.990891 5.92298 1.40869 5.89014Z" fill="white" stroke="black" stroke-width="0.25"/>
</svg>
