<svg width="30" height="16" viewBox="0 0 30 16" fill="none" xmlns="http://www.w3.org/2000/svg">
<path d="M14.5216 0.932617C14.7888 0.950591 14.958 1.0778 15.1538 1.25053C15.2253 1.31007 15.2967 1.36958 15.3683 1.42906C15.4223 1.475 15.4223 1.475 15.4775 1.52187C15.6481 1.66536 15.8239 1.80199 15.9997 1.93901C16.0682 1.99279 16.1366 2.04658 16.205 2.10037C16.4293 2.27601 16.6551 2.44944 16.8812 2.62269C17.1148 2.80204 17.3468 2.9835 17.5781 3.16582C17.8664 3.39294 18.1561 3.61795 18.4474 3.8413C18.8559 4.15485 19.2618 4.47164 19.6681 4.78802C19.8894 4.96026 20.1107 5.13237 20.332 5.30449C20.4199 5.37285 20.5078 5.44121 20.5957 5.50957C20.6392 5.54341 20.6827 5.57724 20.7275 5.61211C20.9253 5.76591 20.9253 5.76591 21.123 5.91972C21.1666 5.95359 21.2101 5.98747 21.255 6.02236C21.3424 6.09037 21.4299 6.1584 21.5173 6.22644C21.7439 6.40289 21.9709 6.57896 22.1983 6.75446C22.2451 6.79067 22.292 6.82689 22.3402 6.8642C22.4288 6.93268 22.5174 7.00105 22.6062 7.06928C22.8171 7.23254 23.0254 7.39877 23.2299 7.56996C23.2682 7.60188 23.3066 7.6338 23.3461 7.66669C23.4485 7.77731 23.4767 7.84857 23.4997 7.99614C23.4674 8.27712 23.2851 8.41019 23.074 8.57933C23.0199 8.62012 22.9659 8.6609 22.9101 8.70293C22.8549 8.74613 22.7996 8.78933 22.7426 8.83385C22.6173 8.93114 22.4917 9.02774 22.3654 9.12361C22.1219 9.30857 21.8806 9.49642 21.6394 9.68437C21.5488 9.75487 21.4583 9.82536 21.3677 9.89586C21.3224 9.93117 21.277 9.96648 21.2303 10.0029C21.0091 10.1751 20.7877 10.3472 20.5664 10.5193C20.4785 10.5877 20.3906 10.6561 20.3027 10.7244C19.0723 11.6814 17.8418 12.6385 16.6113 13.5955C16.5678 13.6294 16.5242 13.6633 16.4793 13.6982C16.392 13.7661 16.3046 13.8338 16.2171 13.9013C15.9871 14.0791 15.7601 14.2595 15.536 14.4447C15.4892 14.4827 15.4424 14.5208 15.3941 14.56C15.3047 14.6328 15.216 14.7064 15.1282 14.7811C14.9298 14.9411 14.7745 15.0542 14.5152 15.0718C14.2969 15.0311 14.2969 15.0311 14.1675 14.9118C14.0344 14.6916 14.0326 14.5102 14.0396 14.2609C14.0399 14.2158 14.0403 14.1707 14.0406 14.1242C14.0419 13.9809 14.0448 13.8377 14.0478 13.6944C14.049 13.5969 14.0501 13.4995 14.051 13.402C14.0536 13.1637 14.0577 12.9255 14.0625 12.6873C13.9559 12.6876 13.9559 12.6876 13.8472 12.688C12.1613 12.693 10.4755 12.6969 8.78959 12.6993C8.58218 12.6996 8.37476 12.6999 8.16735 12.7002C8.12605 12.7002 8.08476 12.7003 8.04222 12.7004C7.37324 12.7014 6.70426 12.7032 6.03529 12.7054C5.34907 12.7076 4.66286 12.7089 3.97663 12.7094C3.5911 12.7097 3.20558 12.7104 2.82005 12.7121C2.45743 12.7137 2.09483 12.7142 1.7322 12.7138C1.59889 12.7139 1.46557 12.7143 1.33226 12.7152C1.15066 12.7164 0.969114 12.7161 0.787513 12.7155C0.734392 12.7162 0.68127 12.7169 0.626538 12.7176C0.270345 12.7141 0.270346 12.7141 0.0846746 12.5757C-0.0062994 12.4438 -0.0332843 12.3773 -0.0329742 12.2186C-0.0342583 12.1799 -0.0355423 12.1412 -0.0368652 12.1014C0.0233764 11.9098 0.123406 11.8548 0.292953 11.7498C0.486368 11.7151 0.677347 11.7179 0.873426 11.7196C0.932331 11.7192 0.991235 11.7188 1.05192 11.7184C1.24954 11.7173 1.44711 11.7179 1.64473 11.7185C1.78631 11.7181 1.92788 11.7176 2.06946 11.717C2.41422 11.7158 2.75897 11.7158 3.10373 11.7162C3.38392 11.7166 3.66411 11.7165 3.94431 11.7162C3.98419 11.7161 4.02407 11.7161 4.06516 11.716C4.14617 11.7159 4.22719 11.7158 4.3082 11.7157C5.06787 11.7147 5.82754 11.7152 6.58721 11.7162C7.28227 11.7171 7.97732 11.7162 8.67239 11.7145C9.3861 11.7128 10.0998 11.7121 10.8135 11.7127C10.8942 11.7128 10.9749 11.7128 11.0557 11.7129C11.0954 11.7129 11.1351 11.7129 11.176 11.713C11.4559 11.7131 11.7357 11.7125 12.0156 11.7117C12.3922 11.7105 12.7689 11.7109 13.1456 11.7124C13.284 11.7127 13.4224 11.7125 13.5607 11.7117C13.7494 11.7108 13.9379 11.7117 14.1265 11.713C14.1816 11.7123 14.2366 11.7116 14.2933 11.7109C14.5581 11.7147 14.6713 11.7224 14.8874 11.8881C15.0202 12.0705 15.038 12.1679 15.0414 12.3918C15.0431 12.457 15.0448 12.5221 15.0466 12.5892C15.0469 12.6566 15.0472 12.724 15.0476 12.7935C15.0498 12.8963 15.0498 12.8963 15.0521 13.0012C15.0555 13.17 15.0576 13.3388 15.0586 13.5076C15.565 13.1323 16.0661 12.7523 16.5568 12.3567C16.8143 12.1493 17.0745 11.9461 17.3371 11.7451C17.6077 11.538 17.8769 11.3292 18.1457 11.1199C18.1904 11.0852 18.235 11.0504 18.281 11.0147C18.3723 10.9436 18.4635 10.8725 18.5548 10.8014C18.7761 10.6292 18.9974 10.4571 19.2187 10.285C19.3066 10.2166 19.3945 10.1482 19.4824 10.0799C19.6582 9.94316 19.834 9.80644 20.0098 9.66972C20.0533 9.63583 20.0969 9.60194 20.1418 9.56703C20.229 9.49919 20.3162 9.43135 20.4035 9.36352C20.6334 9.18466 20.8634 9.00575 21.0933 8.82675C21.1412 8.78948 21.1891 8.7522 21.2384 8.7138C21.3301 8.6424 21.4218 8.57099 21.5135 8.49957C21.5756 8.45124 21.5756 8.45124 21.6389 8.40195C21.6752 8.37372 21.7114 8.3455 21.7488 8.31642C21.8617 8.22937 21.9756 8.14371 22.0898 8.0584C22.0259 7.86657 21.9943 7.83883 21.8385 7.72354C21.7983 7.69335 21.758 7.66316 21.7166 7.63206C21.673 7.59994 21.6294 7.56781 21.5845 7.53471C21.493 7.46613 21.4016 7.39747 21.3103 7.32872C21.2641 7.29401 21.2178 7.25931 21.1702 7.22355C20.9709 7.07209 20.7758 6.91563 20.581 6.75835C20.2881 6.52242 19.9929 6.29014 19.6941 6.06153C19.4235 5.85445 19.1543 5.64563 18.8855 5.43633C18.8411 5.40176 18.7967 5.3672 18.7509 5.33158C18.5679 5.18914 18.3849 5.04666 18.202 4.90417C18.0661 4.79834 17.9301 4.69252 17.7942 4.58672C17.7281 4.53527 17.7281 4.53527 17.6606 4.48279C17.4043 4.28343 17.1473 4.08489 16.8896 3.88725C16.6281 3.68655 16.3684 3.48361 16.1096 3.27934C15.7443 2.9911 15.3737 2.71062 15 2.4334C15.0009 2.47832 15.0018 2.52324 15.0028 2.56952C15.0064 2.77317 15.0087 2.9768 15.011 3.18047C15.0132 3.28651 15.0132 3.28651 15.0154 3.3947C15.016 3.46268 15.0166 3.53065 15.0172 3.60069C15.0181 3.66329 15.019 3.72589 15.0199 3.79038C14.9973 3.97933 14.9572 4.05711 14.8242 4.19121C14.6634 4.24482 14.569 4.25727 14.4034 4.25767C14.3532 4.25793 14.3031 4.25819 14.2514 4.25846C14.1962 4.25845 14.1411 4.25844 14.0843 4.25842C14.0257 4.25864 13.9671 4.25886 13.9068 4.25908C13.7096 4.25973 13.5125 4.25995 13.3153 4.26017C13.1743 4.26054 13.0334 4.26093 12.8924 4.26134C12.4687 4.26247 12.0451 4.26309 11.6214 4.26361C11.4219 4.26387 11.2224 4.26418 11.023 4.26449C10.36 4.26548 9.69699 4.26633 9.034 4.26676C8.86198 4.26687 8.68996 4.26698 8.51794 4.2671C8.47518 4.26712 8.43243 4.26715 8.38838 4.26718C7.69539 4.26767 7.00241 4.26915 6.30942 4.27106C5.5981 4.27299 4.88679 4.27405 4.17546 4.27424C3.77602 4.27436 3.37658 4.27488 2.97713 4.27637C2.60152 4.27778 2.22593 4.27799 1.85032 4.27738C1.7123 4.27735 1.57429 4.27773 1.43627 4.27853C1.24816 4.27956 1.0601 4.27915 0.871991 4.27838C0.817107 4.27902 0.762225 4.27967 0.705678 4.28033C0.458203 4.27786 0.327247 4.27103 0.112582 4.13815C-0.00892451 4.00572 -0.0388411 3.95775 -0.0329742 3.78105C-0.0330498 3.74238 -0.0331253 3.70371 -0.0332031 3.66386C0.0174835 3.48489 0.08432 3.42419 0.23436 3.3123C0.418477 3.27721 0.600583 3.28171 0.787513 3.28412C0.844182 3.28392 0.900849 3.28372 0.959235 3.28351C1.14962 3.28312 1.33996 3.28441 1.53035 3.28569C1.66662 3.28576 1.80289 3.28572 1.93916 3.28559C2.30959 3.28552 2.68 3.2869 3.05042 3.28854C3.39818 3.28985 3.74593 3.29009 4.09368 3.29033C4.78247 3.29084 5.47126 3.2924 6.16005 3.29462C6.82915 3.29677 7.49825 3.29843 8.16735 3.29943C8.20859 3.29949 8.24983 3.29955 8.29233 3.29961C8.49923 3.29992 8.70613 3.30022 8.91304 3.30051C10.6295 3.30294 12.346 3.30708 14.0625 3.3123C14.0613 3.25171 14.06 3.19112 14.0588 3.1287C14.0545 2.90321 14.0518 2.67772 14.0496 2.45221C14.0484 2.35474 14.0468 2.25727 14.0448 2.15981C14.042 2.01944 14.0406 1.87913 14.0396 1.73874C14.0384 1.69539 14.0372 1.65205 14.0359 1.60739C14.0358 1.3952 14.0569 1.27078 14.1671 1.08746C14.2969 0.968552 14.2969 0.968552 14.5216 0.932617Z" fill="white"/>
<path d="M18.0469 0.968959C18.1866 1.05488 18.2949 1.1337 18.4167 1.23996C18.4888 1.29961 18.5609 1.35919 18.633 1.41871C18.671 1.45048 18.7089 1.48225 18.748 1.51499C18.9547 1.68583 19.1676 1.84876 19.3799 2.01266C19.4699 2.08259 19.56 2.15256 19.65 2.22255C19.6949 2.25749 19.7399 2.29243 19.7863 2.32843C20.0073 2.50019 20.2283 2.67208 20.4492 2.84396C20.5371 2.91232 20.625 2.98068 20.7129 3.04904C21.9434 4.00607 23.1738 4.9631 24.4043 5.92013C24.4478 5.954 24.4914 5.98787 24.5363 6.02277C24.6237 6.09078 24.7111 6.1588 24.7985 6.22685C25.0252 6.40329 25.2522 6.57936 25.4796 6.75486C25.5498 6.80919 25.5498 6.80919 25.6215 6.86461C25.7101 6.93309 25.7987 7.00146 25.8875 7.06969C26.0983 7.23295 26.3066 7.39923 26.5109 7.5706C26.5492 7.60256 26.5876 7.63453 26.627 7.66746C26.7286 7.77638 26.7592 7.84745 26.7847 7.99289C26.7496 8.28819 26.5409 8.4371 26.3221 8.61705C26.2592 8.66561 26.1961 8.71389 26.1328 8.76193C26.098 8.78852 26.0631 8.81512 26.0272 8.84252C25.8322 8.99069 25.6358 9.137 25.4388 9.28263C25.2032 9.4578 24.9734 9.63955 24.7449 9.82394C24.4507 10.0611 24.1544 10.2947 23.8543 10.5244C23.5837 10.7315 23.3145 10.9403 23.0457 11.1496C23.001 11.1844 22.9564 11.2191 22.9104 11.2549C22.8191 11.326 22.7278 11.397 22.6366 11.4681C22.4153 11.6404 22.194 11.8125 21.9727 11.9846C21.8848 12.0529 21.7969 12.1213 21.709 12.1897C20.918 12.8049 20.918 12.8049 20.127 13.4201C20.0834 13.454 20.0398 13.4879 19.9949 13.5228C19.9077 13.5907 19.8205 13.6585 19.7332 13.7263C19.5033 13.9052 19.2733 14.0841 19.0434 14.2631C18.9955 14.3004 18.9477 14.3377 18.8983 14.3761C18.8066 14.4475 18.7149 14.5189 18.6232 14.5903C18.5818 14.6225 18.5404 14.6547 18.4978 14.6879C18.4615 14.7161 18.4253 14.7444 18.3879 14.7734C18.3527 14.8006 18.3175 14.8277 18.2812 14.8557C18.2423 14.8875 18.2033 14.9194 18.1631 14.9522C17.9814 15.0761 17.8506 15.0615 17.6367 15.0315C17.4386 14.8881 17.3573 14.8034 17.3071 14.5627C17.3827 14.2001 17.7858 13.964 18.0652 13.7387C18.1061 13.7056 18.1471 13.6724 18.1892 13.6383C18.5086 13.3813 18.8345 13.1343 19.1637 12.8902C19.4724 12.6606 19.7732 12.4225 20.0727 12.1812C20.3301 11.9738 20.5902 11.7707 20.8527 11.5698C21.1233 11.3627 21.3925 11.1539 21.6614 10.9445C21.706 10.9098 21.7506 10.8751 21.7966 10.8393C21.8879 10.7682 21.9792 10.6971 22.0705 10.6261C22.2917 10.4538 22.513 10.2817 22.7344 10.1096C22.8223 10.0412 22.9102 9.97287 22.998 9.90451C23.1738 9.76779 23.3496 9.63107 23.5254 9.49435C23.569 9.46045 23.6126 9.42654 23.6575 9.39161C23.8316 9.25616 24.0058 9.12071 24.1799 8.98526C24.2475 8.93272 24.2475 8.93272 24.3164 8.87912C24.4167 8.80114 24.5169 8.72317 24.6172 8.6452C24.6906 8.5881 24.6906 8.5881 24.7655 8.52984C24.9715 8.36962 24.9715 8.36962 25.1775 8.20941C25.2149 8.18026 25.2524 8.15112 25.291 8.12109C25.3174 8.10053 25.3439 8.07998 25.3711 8.0588C25.2945 7.88325 25.2236 7.78401 25.0683 7.67245C25.0309 7.6451 24.9935 7.61775 24.9549 7.58957C24.9146 7.56072 24.8743 7.53188 24.8328 7.50216C24.7472 7.43957 24.6618 7.37685 24.5764 7.31402C24.533 7.28209 24.4896 7.25016 24.4448 7.21726C24.2481 7.07026 24.0569 6.9168 23.866 6.76242C23.5718 6.52518 23.2755 6.29161 22.9754 6.06195C22.7048 5.85486 22.4356 5.64604 22.1667 5.43673C22.0998 5.38463 22.0998 5.38463 22.0315 5.33148C21.9402 5.2604 21.8489 5.18933 21.7577 5.11824C21.5364 4.946 21.3151 4.77389 21.0938 4.60177C21.0059 4.53341 20.918 4.46505 20.8301 4.39669C20.7648 4.34594 20.7648 4.34594 20.6982 4.29415C20.2148 3.91818 19.7314 3.5422 19.248 3.16622C19.2045 3.13233 19.1609 3.09844 19.116 3.06351C19.0289 2.99576 18.9418 2.92797 18.8547 2.86015C18.6231 2.6798 18.3911 2.50009 18.1583 2.32119C18.0853 2.26488 18.0853 2.26488 18.0108 2.20744C17.917 2.13508 17.823 2.0629 17.7288 1.99092C17.6869 1.95851 17.6449 1.92611 17.6017 1.89273C17.5645 1.86419 17.5274 1.83566 17.4891 1.80627C17.3596 1.69345 17.3446 1.61962 17.3218 1.4487C17.3438 1.26193 17.3438 1.26193 17.4646 1.09347C17.683 0.935475 17.7813 0.93877 18.0469 0.968959Z" fill="white"/>
<path d="M21.3281 0.968533C21.5072 1.06794 21.6587 1.19594 21.8152 1.32742C21.9089 1.40328 22.0027 1.47912 22.0965 1.55493C22.144 1.59392 22.1916 1.63291 22.2406 1.67309C22.4608 1.8523 22.6855 2.02547 22.9102 2.199C22.9981 2.26733 23.086 2.33569 23.1738 2.40408C23.2391 2.45484 23.2391 2.45484 23.3057 2.50662C24.8438 3.70291 26.3818 4.8992 27.9199 6.09549C27.9635 6.12937 28.0071 6.16326 28.052 6.19817C28.1392 6.26603 28.2264 6.33391 28.3136 6.40182C28.5432 6.58051 28.7731 6.75876 29.0034 6.9364C29.0513 6.97341 29.0992 7.01042 29.1486 7.04855C29.2402 7.11933 29.3319 7.18999 29.4237 7.26049C29.9829 7.69314 29.9829 7.69314 30.0513 7.98147C30.0373 8.22526 29.9307 8.32879 29.7546 8.49051C29.6425 8.58256 29.5289 8.67282 29.4141 8.7615C29.3575 8.80599 29.3009 8.85048 29.2426 8.89631C29.118 8.99306 28.9931 9.08907 28.8673 9.18425C28.6242 9.36823 28.3838 9.55555 28.1433 9.74295C28.0528 9.81345 27.9622 9.88394 27.8716 9.95443C27.8263 9.98975 27.7809 10.0251 27.7342 10.0614C27.513 10.2337 27.2916 10.4058 27.0703 10.5779C26.9824 10.6463 26.8945 10.7146 26.8066 10.783C25.9277 11.4666 25.0488 12.1502 24.1699 12.8338C24.1264 12.8676 24.0829 12.9015 24.0381 12.9363C23.9502 13.0046 23.8624 13.0729 23.7745 13.1413C23.5096 13.3472 23.2449 13.5534 22.9803 13.7598C22.8926 13.828 22.8049 13.8961 22.717 13.964C22.4931 14.1372 22.2709 14.312 22.0509 14.4902C21.9626 14.5606 21.8742 14.631 21.7859 14.7014C21.7459 14.7346 21.7059 14.7678 21.6647 14.8019C21.4672 14.9578 21.3609 15.0269 21.1054 15.0592C20.918 15.031 20.918 15.031 20.7422 14.9102C20.625 14.7381 20.625 14.7381 20.6177 14.533C20.7463 14.1328 21.1331 13.9051 21.4563 13.6577C21.5511 13.5846 21.646 13.5114 21.7408 13.4382C21.8132 13.3825 21.8132 13.3825 21.8871 13.3257C22.1116 13.1527 22.3351 12.9786 22.5586 12.8045C22.6465 12.7361 22.7344 12.6677 22.8223 12.5994C22.8658 12.5656 22.9093 12.5317 22.9541 12.4969C26.5137 9.7283 26.5137 9.7283 26.6457 9.62562C26.733 9.55774 26.8202 9.48985 26.9075 9.42197C27.1367 9.24371 27.3659 9.06551 27.5951 8.88739C27.6428 8.85038 27.6904 8.81337 27.7394 8.77524C27.8304 8.70457 27.9213 8.63392 28.0123 8.56329C28.0741 8.51525 28.0741 8.51525 28.1371 8.46624C28.1756 8.43639 28.2141 8.40654 28.2538 8.37578C28.3466 8.3028 28.4377 8.22767 28.5285 8.15222C28.6523 8.05838 28.6523 8.05838 28.7695 8.05838C28.7695 8.0197 28.7695 7.98103 28.7695 7.94119C28.7377 7.92699 28.7058 7.91279 28.6729 7.89816C28.5021 7.80623 28.3586 7.69437 28.2056 7.57498C28.1728 7.54951 28.14 7.52403 28.1063 7.49779C28.034 7.44159 27.9619 7.3853 27.8897 7.32893C27.7687 7.23434 27.6474 7.14004 27.526 7.0458C27.3023 6.87205 27.0788 6.69809 26.8553 6.52407C26.6341 6.35183 26.4127 6.17972 26.1914 6.0076C26.1035 5.93924 26.0156 5.87088 25.9277 5.80252C25.8842 5.76868 25.8407 5.73484 25.7959 5.69998C23.291 3.75174 23.291 3.75174 23.1591 3.64913C23.0715 3.581 22.9839 3.51288 22.8963 3.44476C22.672 3.2704 22.4479 3.09589 22.224 2.92112C22.1329 2.85009 22.0418 2.77906 21.9507 2.70804C21.907 2.67387 21.8632 2.6397 21.8182 2.60449C21.6229 2.45235 21.427 2.30159 21.227 2.15574C21.1942 2.13179 21.1615 2.10783 21.1277 2.08314C21.0423 2.02106 20.9563 1.95962 20.8704 1.89825C20.74 1.787 20.6802 1.71535 20.625 1.55447C20.6326 1.33881 20.638 1.19871 20.7788 1.03079C20.9806 0.94052 21.1072 0.942894 21.3281 0.968533Z" fill="white"/>
<path d="M14.4141 5.73682C14.7927 5.8157 15.0039 6.22194 15.2124 6.52417C15.2576 6.58893 15.2576 6.58893 15.3037 6.655C15.3982 6.79059 15.4921 6.9265 15.586 7.0625C15.6168 7.10707 15.6476 7.15165 15.6793 7.19757C16.1393 7.86317 16.1393 7.86317 16.3477 8.17578C16.3482 8.11133 16.3488 8.04689 16.3493 7.98049C16.3517 7.7411 16.3555 7.50176 16.3598 7.2624C16.3615 7.15886 16.3627 7.0553 16.3636 6.95175C16.3648 6.80278 16.3675 6.65389 16.3706 6.50494C16.3706 6.45873 16.3707 6.41252 16.3708 6.36491C16.3763 6.15727 16.3891 6.03142 16.5129 5.86139C16.7008 5.73205 16.8283 5.74165 17.0508 5.77344C17.2382 5.91151 17.3027 6.018 17.3438 6.24219C17.3503 6.36055 17.3537 6.4791 17.3551 6.59763C17.356 6.6694 17.357 6.74116 17.3579 6.81511C17.3605 7.14203 17.363 7.46895 17.3643 7.79588C17.3651 7.96849 17.3667 8.14107 17.3691 8.31367C17.372 8.52252 17.3734 8.73133 17.3738 8.9402C17.3744 9.05812 17.3764 9.17603 17.3785 9.29394C17.3771 9.88894 17.3771 9.88894 17.2096 10.0694C17.0382 10.1758 16.9044 10.2211 16.7007 10.2071C16.275 10.0668 15.9646 9.411 15.7288 9.05835C15.6917 9.0034 15.6545 8.94845 15.6163 8.89184C15.39 8.55642 15.1656 8.21971 14.9414 7.88281C14.9411 7.9737 14.9411 7.9737 14.9407 8.06642C14.9394 8.29194 14.9362 8.51741 14.9325 8.74291C14.9311 8.84037 14.9303 8.93784 14.93 9.0353C14.9294 9.17572 14.927 9.31599 14.9243 9.45638C14.9246 9.52139 14.9246 9.52139 14.925 9.58773C14.9185 9.81773 14.8899 9.92451 14.7468 10.1078C14.5899 10.2266 14.5899 10.2266 14.3811 10.2595C14.1442 10.2208 14.0892 10.1799 13.9453 9.99219C13.9152 9.81694 13.9152 9.81694 13.9141 9.60985C13.9136 9.572 13.9131 9.53415 13.9125 9.49515C13.9112 9.37035 13.9116 9.24563 13.9121 9.12083C13.9118 9.03385 13.9115 8.94687 13.911 8.85989C13.9104 8.67769 13.9107 8.49552 13.9116 8.31332C13.9126 8.08015 13.9112 7.84706 13.9091 7.6139C13.9078 7.43429 13.9079 7.2547 13.9084 7.07509C13.9085 6.98914 13.9081 6.9032 13.9072 6.81726C13.9062 6.69689 13.907 6.57668 13.9084 6.45632C13.9084 6.38794 13.9085 6.31955 13.9085 6.2491C13.9668 5.9599 14.1255 5.79693 14.4141 5.73682Z" fill="white"/>
<path d="M12.2021 6.11396C12.7009 6.51066 13.0913 6.99515 13.1836 7.64839C13.2411 8.43059 13.0511 8.97299 12.5649 9.57855C12.2158 9.96613 11.7085 10.1997 11.1896 10.2405C10.5193 10.2548 9.95667 10.1445 9.43565 9.70191C8.94336 9.20679 8.7171 8.70061 8.70483 8.00727C8.71032 7.35054 8.91182 6.8287 9.375 6.35932C10.2121 5.63619 11.2441 5.57967 12.2021 6.11396ZM9.96529 7.13455C9.70507 7.51525 9.61261 7.83243 9.66797 8.29292C9.793 8.70949 9.99676 8.94593 10.3661 9.16839C10.6836 9.32952 11.0356 9.34911 11.3782 9.25308C11.7591 9.08418 12.0345 8.78297 12.2131 8.41011C12.2889 8.00623 12.2746 7.65778 12.0703 7.29682C11.8169 6.96945 11.5334 6.75349 11.1145 6.69052C10.6677 6.66329 10.2634 6.7893 9.96529 7.13455Z" fill="white"/>
<path d="M7.13023 6.10669C7.67343 6.49537 8.0175 7.0064 8.12976 7.66583C8.1934 8.34332 8.02222 8.94647 7.59532 9.47583C7.18829 9.92982 6.70997 10.1965 6.095 10.2385C5.37092 10.249 4.81166 10.0973 4.27882 9.58867C3.8405 9.11397 3.63902 8.60241 3.63086 7.9533C3.66843 7.30461 3.92055 6.7423 4.40288 6.30398C5.19479 5.66022 6.24873 5.56114 7.13023 6.10669ZM4.89635 7.15039C4.6758 7.42686 4.56674 7.70076 4.57042 8.05859C4.6347 8.46132 4.77908 8.79293 5.09776 9.05468C5.4318 9.26668 5.76015 9.34747 6.15245 9.28906C6.54922 9.16592 6.85298 8.94138 7.08263 8.59692C7.22117 8.20437 7.2452 7.87383 7.09476 7.48089C6.93585 7.16652 6.70699 6.92119 6.38683 6.76953C5.83227 6.60764 5.28763 6.70877 4.89635 7.15039Z" fill="white"/>
<path d="M2.75081 6.06547C2.89962 6.15354 2.98471 6.23616 3.07261 6.38522C3.11139 6.56187 3.10813 6.65798 3.04698 6.82833C2.95177 6.96383 2.95177 6.96383 2.81261 7.06271C2.46092 7.11579 2.27796 7.01318 1.99229 6.82833C1.80811 6.73624 1.60805 6.75616 1.40636 6.76974C1.34835 6.78907 1.29034 6.80841 1.23057 6.82833C1.21124 6.92501 1.1919 7.02169 1.17198 7.1213C1.40013 7.24013 1.62852 7.35171 1.86618 7.4502C2.80345 7.83999 2.80345 7.83999 3.09825 8.28219C3.2367 8.67446 3.26171 9.00608 3.10969 9.39845C2.87867 9.85965 2.52725 10.068 2.05089 10.2268C1.28008 10.283 0.712441 10.1444 0.117293 9.64083C-0.0261035 9.42574 -0.0480715 9.24622 0.000105024 8.9963C0.120955 8.84615 0.120955 8.84615 0.293074 8.76193C0.646491 8.7555 0.796785 8.88842 1.05479 9.11349C1.33572 9.24174 1.57152 9.25477 1.87511 9.23068C2.05165 9.15555 2.13808 9.10959 2.23033 8.94137C2.23894 8.8104 2.23894 8.8104 2.12766 8.7039C1.98613 8.58079 1.87219 8.52253 1.69772 8.45614C1.64164 8.43416 1.58556 8.41218 1.52778 8.38953C1.46958 8.3674 1.41138 8.34527 1.35142 8.32247C0.438161 7.97383 0.438161 7.97383 0.218687 7.49278C0.111589 7.14972 0.121984 6.78952 0.263777 6.45846C0.792636 5.54515 1.93412 5.65385 2.75081 6.06547Z" fill="white"/>
</svg>
