<?xml version="1.0" encoding="UTF-8"?>
<svg version="1.1" xmlns="http://www.w3.org/2000/svg" width="512" height="512">
<path d="M0 0 C1.14569458 0.00182281 2.29138916 0.00364563 3.47180176 0.00552368 C20.28671058 0.050561 36.83698615 0.37088669 53.4375 3.3125 C54.47100586 3.49474121 55.50451172 3.67698242 56.56933594 3.86474609 C63.57658415 5.14296556 70.51511007 6.63659336 77.4375 8.3125 C78.22302246 8.50038086 79.00854492 8.68826172 79.81787109 8.88183594 C100.66172541 14.0138975 122.41952224 23.69351475 134.4375 42.3125 C142.93637651 58.14227876 140.32190964 76.67935741 135.4375 93.3125 C135.1472998 94.3010498 134.85709961 95.28959961 134.55810547 96.30810547 C129.32832429 113.69587518 122.49463824 130.05807639 114.4375 146.3125 C113.98648926 147.22692871 113.53547852 148.14135742 113.07080078 149.08349609 C97.31976099 180.74326129 77.70608648 210.85087323 55.4375 238.3125 C54.55392682 239.41996645 53.67106548 240.52800137 52.7890625 241.63671875 C48.90006938 246.47534972 44.94205515 251.03894767 40.4375 255.3125 C42.05367513 259.30540327 44.86550019 262.02454341 47.8125 265.0625 C54.14569371 271.75992442 59.64702168 278.92881258 65.04541016 286.38964844 C66.31610023 288.14481417 67.59928996 289.88991299 68.88671875 291.6328125 C100.96821012 335.40861041 145.11990922 400.13561966 139.4375 457.3125 C138.04630506 463.71913106 135.46800358 469.13042396 131.4375 474.3125 C130.99148438 474.91320312 130.54546875 475.51390625 130.0859375 476.1328125 C113.90777853 496.45513042 84.68554404 503.6419318 60.4375 508.0625 C59.34783936 508.26125732 58.25817871 508.46001465 57.13549805 508.66479492 C38.40086774 511.87601324 19.85580017 512.68770584 0.875 512.625 C-0.27069458 512.62317719 -1.41638916 512.62135437 -2.59680176 512.61947632 C-19.41171058 512.574439 -35.96198615 512.25411331 -52.5625 509.3125 C-53.59600586 509.13025879 -54.62951172 508.94801758 -55.69433594 508.76025391 C-62.70158415 507.48203444 -69.64011007 505.98840664 -76.5625 504.3125 C-77.74078369 504.03067871 -77.74078369 504.03067871 -78.94287109 503.74316406 C-101.33011363 498.23109776 -122.65395705 487.82498929 -135.15625 467.75390625 C-142.62353934 453.13046462 -139.01719662 434.38862432 -134.5625 419.3125 C-134.2722998 418.32540039 -133.98209961 417.33830078 -133.68310547 416.32128906 C-128.45354614 398.93161975 -121.62043757 382.56853618 -113.5625 366.3125 C-113.11148926 365.39807129 -112.66047852 364.48364258 -112.19580078 363.54150391 C-96.44476099 331.88173871 -76.83108648 301.77412677 -54.5625 274.3125 C-53.67892682 273.20503355 -52.79606548 272.09699863 -51.9140625 270.98828125 C-48.02506938 266.14965028 -44.06705515 261.58605233 -39.5625 257.3125 C-41.17867513 253.31959673 -43.99050019 250.60045659 -46.9375 247.5625 C-53.27069371 240.86507558 -58.77202168 233.69618742 -64.17041016 226.23535156 C-65.44110023 224.48018583 -66.72428996 222.73508701 -68.01171875 220.9921875 C-100.09321012 177.21638959 -144.24490922 112.48938034 -138.5625 55.3125 C-137.17130506 48.90586894 -134.59300358 43.49457604 -130.5625 38.3125 C-130.11648437 37.71179687 -129.67046875 37.11109375 -129.2109375 36.4921875 C-113.03277853 16.16986958 -83.81054404 8.9830682 -59.5625 4.5625 C-58.47283936 4.36374268 -57.38317871 4.16498535 -56.26049805 3.96020508 C-37.52586774 0.74898676 -18.98080017 -0.06270584 0 0 Z M-116.5625 47.3125 C-122.30818809 53.96622599 -122.97179525 61.51818391 -122.41992188 70.00512695 C-118.32847517 117.32985814 -86.66469164 166.62351474 -59.5625 204.3125 C-59.0159375 205.07546387 -58.469375 205.83842773 -57.90625 206.62451172 C-50.53041142 216.88359523 -42.95890465 226.86654477 -34.5625 236.3125 C-34.09714844 236.83956543 -33.63179688 237.36663086 -33.15234375 237.90966797 C-24.99357497 247.28958671 -24.99357497 247.28958671 -15.5625 255.3125 C-14.9025 255.3125 -14.2425 255.3125 -13.5625 255.3125 C-13.5625 255.9725 -13.5625 256.6325 -13.5625 257.3125 C-14.12839844 257.56257812 -14.69429688 257.81265625 -15.27734375 258.0703125 C-30.2456753 266.20694401 -41.61413148 283.88440671 -51.5625 297.3125 C-52.36324951 298.38395264 -52.36324951 298.38395264 -53.18017578 299.47705078 C-82.8117348 339.20515562 -127.98271765 402.46076138 -122.265625 455.04296875 C-119.72028318 464.75998311 -110.83276914 471.84806218 -102.54296875 476.73046875 C-51.1185107 504.02654412 24.43859146 502.6745616 79.1953125 486.6796875 C94.61711479 481.91892077 110.08416138 475.7223058 119.9375 462.1875 C127.44573439 447.79671742 121.83059285 429.82284991 117.38378906 415.22802734 C105.06608232 377.27703304 83.64733238 340.58867315 60.4375 308.3125 C59.8909375 307.54953613 59.344375 306.78657227 58.78125 306.00048828 C51.40541142 295.74140477 43.83390465 285.75845523 35.4375 276.3125 C34.97214844 275.78543457 34.50679687 275.25836914 34.02734375 274.71533203 C25.86857497 265.33541329 25.86857497 265.33541329 16.4375 257.3125 C15.7775 257.3125 15.1175 257.3125 14.4375 257.3125 C14.4375 256.6525 14.4375 255.9925 14.4375 255.3125 C15.00339844 255.06242188 15.56929687 254.81234375 16.15234375 254.5546875 C31.1206753 246.41805599 42.48913148 228.74059329 52.4375 215.3125 C52.97133301 214.59819824 53.50516602 213.88389648 54.05517578 213.14794922 C83.6867348 173.41984438 128.85771765 110.16423862 123.140625 57.58203125 C120.59528318 47.86501689 111.70776914 40.77693782 103.41796875 35.89453125 C49.75884632 7.4122972 -71.14098093 -0.38447089 -116.5625 47.3125 Z " fill="#000000" transform="translate(255.5625,-0.31250000000000006)"/>
<path d="M0 0 C0.93005859 0.18224121 1.86011719 0.36448242 2.81835938 0.55224609 C28.99867033 5.8565508 28.99867033 5.8565508 37 14 C39.89440626 45.9680691 4.94957414 88.15269832 -13.71777344 111.11279297 C-16.8922244 114.90608664 -20.15293111 118.61753475 -23.46386719 122.29199219 C-24.98051467 123.97833449 -26.47948086 125.67909981 -27.9765625 127.3828125 C-35.53604036 135.88497754 -35.53604036 135.88497754 -40.5625 138.6875 C-42.80495857 140.17788657 -43.80362988 141.29186643 -44.52685547 143.89990234 C-45.43687537 148.90446555 -45.77390441 153.92415405 -46 159 C-46.66 159 -47.32 159 -48 159 C-48.03996094 157.85402344 -48.07992187 156.70804688 -48.12109375 155.52734375 C-48.39982926 147.02109354 -48.39982926 147.02109354 -51.890625 139.55859375 C-54.18806184 137.87458818 -56.54276452 136.43778737 -59 135 C-64.14377498 130.59105002 -68.32179625 125.27461519 -72.55078125 120.01171875 C-74.67341719 117.40158747 -76.84205082 114.84891227 -79.04296875 112.30566406 C-85.17506878 105.19019505 -90.73624712 97.77556037 -96 90 C-96.85150635 88.74219727 -96.85150635 88.74219727 -97.72021484 87.45898438 C-131.85586101 36.71850849 -131.85586101 36.71850849 -130.87890625 15.3515625 C-129.33161874 11.2117088 -126.12680963 9.56095878 -122.30078125 7.65625 C-113.03533276 4.07118758 -103.76025883 1.77876557 -94 0 C-93.20480957 -0.15243164 -92.40961914 -0.30486328 -91.59033203 -0.46191406 C-62.5881063 -5.78944055 -28.92673367 -5.75335302 0 0 Z " fill="#000000" transform="translate(303,95)"/>
<path d="M0 0 C0.66 0 1.32 0 2 0 C2.11214844 1.74410156 2.11214844 1.74410156 2.2265625 3.5234375 C5.15691473 41.67429206 28.96744792 69.8735129 56.89013672 94.1484375 C93.25787524 126.06384238 93.25787524 126.06384238 95.23828125 144.1796875 C95.25 146.125 95.25 146.125 95 149 C88.50473267 152.27208949 82.35139528 153.99195989 75.1875 155.125 C73.68461426 155.37310425 73.68461426 155.37310425 72.15136719 155.6262207 C48.80111297 159.36248257 25.29983749 160.21401803 1.6875 160.1875 C0.68487122 160.18689575 -0.31775757 160.1862915 -1.35076904 160.18566895 C-23.45013715 160.14971719 -45.19905903 159.09180944 -67.125 156.125 C-68.24535645 155.97579102 -69.36571289 155.82658203 -70.52001953 155.67285156 C-89.06186842 152.93813158 -89.06186842 152.93813158 -93 149 C-94.42482983 138.5512479 -88.41731189 129.01110067 -82.42578125 120.97949219 C-78.45712987 116.10495299 -74.06745755 111.69716682 -69.58203125 107.30078125 C-67.99467839 105.74478351 -66.41842669 104.17819061 -64.84375 102.609375 C-60.03361965 97.83641365 -55.15586153 93.19383344 -50.01123047 88.77978516 C-38.32652994 78.43971877 -26.51390601 67.14592095 -18 54 C-17.31164062 52.98292969 -16.62328125 51.96585937 -15.9140625 50.91796875 C-5.73670648 35.27359434 -0.88422058 18.62961281 0 0 Z " fill="#000000" transform="translate(255,314)"/>
</svg>
