<?xml version="1.0" encoding="UTF-8"?>
<svg version="1.1" xmlns="http://www.w3.org/2000/svg" width="512" height="512">
<path d="M0 0 C1.89508602 -0.00542829 3.79016781 -0.01255489 5.6852417 -0.02124023 C10.80510666 -0.03939244 15.92464727 -0.03243963 21.04451752 -0.01972389 C26.41787043 -0.0095541 31.7911967 -0.01900058 37.16455078 -0.02526855 C46.1859228 -0.0325334 55.20716356 -0.0229878 64.22851562 -0.00390625 C74.63905163 0.01786019 85.04927421 0.010808 95.45980263 -0.01121187 C104.4189604 -0.02939903 113.37802416 -0.03190799 122.33719444 -0.0214572 C127.67897042 -0.01524049 133.02059936 -0.01433631 138.36236572 -0.02760315 C143.38584215 -0.03920935 148.40891685 -0.03104909 153.43235016 -0.00802612 C155.26927272 -0.00276444 157.10622943 -0.00420895 158.94313812 -0.01307678 C173.12103165 -0.07517983 184.39123202 1.27824445 195.1171875 11.51757812 C205.04114108 21.91316514 206.73588037 32.86635788 206.61328125 46.83398438 C206.6134368 48.29971895 206.61493497 49.76545392 206.61769104 51.23118591 C206.61906739 54.29143652 206.60665757 57.3512142 206.58374023 60.41137695 C206.55553063 64.27872194 206.5583361 68.14528039 206.57042885 72.01268291 C206.64739463 102.67687654 206.64739463 102.67687654 203.1171875 117.51757812 C202.88765381 118.52264404 202.65812012 119.52770996 202.42163086 120.56323242 C201.80138111 123.09373276 201.1123918 125.58384872 200.3671875 128.08007812 C200.10969727 128.95446533 199.85220703 129.82885254 199.58691406 130.72973633 C187.77305201 169.74171835 162.40284276 196.46368482 134.1171875 224.51757812 C135.30903205 227.8045304 136.50671858 230.29646685 138.83984375 232.90039062 C139.37343506 233.50415527 139.90702637 234.10791992 140.45678711 234.72998047 C141.02534424 235.3611377 141.59390137 235.99229492 142.1796875 236.64257812 C143.37092916 237.99053207 144.56102983 239.33949519 145.75 240.68945312 C146.33040039 241.34623047 146.91080078 242.00300781 147.50878906 242.6796875 C150.31949349 245.89143354 152.99953293 249.20475794 155.6796875 252.52539062 C157.57563338 254.85278573 159.49238529 257.15464557 161.4296875 259.44726562 C180.22468212 281.77080283 194.56969699 306.22544996 201.8671875 334.64257812 C202.06618652 335.41738525 202.26518555 336.19219238 202.47021484 336.99047852 C205.3077941 348.70005988 206.43051074 360.37611994 206.453125 372.40429688 C206.4597818 373.66796585 206.4664386 374.93163483 206.47329712 376.2335968 C206.48334138 378.88138388 206.48811672 381.52919585 206.48779297 384.17700195 C206.48758889 387.53886942 206.51504282 390.89990017 206.54933739 394.26156902 C206.57712236 397.51744513 206.57575831 400.7733185 206.578125 404.02929688 C206.59968155 405.81408699 206.59968155 405.81408699 206.62167358 407.63493347 C206.55735406 419.50114887 203.37565504 428.86662896 195.1171875 437.51757812 C183.57808438 448.53316806 171.3381823 449.10807115 156.234375 449.03515625 C154.33928898 449.04058454 152.44420719 449.04771114 150.5491333 449.05639648 C145.42926834 449.07454869 140.30972773 449.06759588 135.18985748 449.05488014 C129.81650457 449.04471035 124.4431783 449.05415683 119.06982422 449.0604248 C110.0484522 449.06768965 101.02721144 449.05814405 92.00585938 449.0390625 C81.59532337 449.01729606 71.18510079 449.02434825 60.77457237 449.04636812 C51.8154146 449.06455528 42.85635084 449.06706424 33.89718056 449.05661345 C28.55540458 449.05039674 23.21377564 449.04949256 17.87200928 449.0627594 C12.84853285 449.0743656 7.82545815 449.06620534 2.80202484 449.04318237 C0.96510228 449.03792069 -0.87185443 449.0393652 -2.70876312 449.04823303 C-16.88665665 449.11033608 -28.15685702 447.7569118 -38.8828125 437.51757812 C-48.18916148 427.76894722 -50.50500622 417.38504032 -50.37890625 404.20507812 C-50.38036148 402.9561377 -50.38181671 401.70719727 -50.38331604 400.42041016 C-50.38124469 397.11982867 -50.36037693 393.82003021 -50.33233643 390.51959229 C-50.31252367 387.22071802 -50.33093851 383.92194101 -50.34179688 380.62304688 C-50.32769966 363.00471065 -49.31132286 346.11705156 -44.2578125 329.14257812 C-44.00620361 328.28519043 -43.75459473 327.42780273 -43.49536133 326.54443359 C-34.66358008 297.63133384 -18.33419295 275.16232285 1.02392578 252.3605957 C8.21747563 243.878254 15.19046609 235.21844617 22.1171875 226.51757812 C20.48587175 222.30793522 17.36210455 219.56215116 14.18359375 216.49414062 C12.96405147 215.29506551 11.74465551 214.09584155 10.52539062 212.89648438 C8.61971092 211.03374615 6.71161627 209.17359038 4.80004883 207.31689453 C-18.49423997 184.64309394 -35.55395313 158.10960352 -44.5703125 126.70507812 C-44.76069092 126.05555176 -44.95106934 125.40602539 -45.1472168 124.73681641 C-45.80035682 122.34358375 -46.34755944 119.94006877 -46.8828125 117.51757812 C-47.14537842 116.40455322 -47.40794434 115.29152832 -47.6784668 114.14477539 C-50.78801451 99.53183283 -50.37537731 84.57486271 -50.32885742 69.71118164 C-50.31729037 65.83601524 -50.33775461 61.96174979 -50.36677456 58.08670139 C-50.38523052 55.06064752 -50.38482712 52.03480695 -50.37913704 49.00871086 C-50.37898546 47.58037983 -50.384892 46.15203281 -50.39742851 44.72375679 C-50.49723779 31.51491779 -48.17267241 21.24893632 -38.8828125 11.51757812 C-27.34370938 0.50198819 -15.1038073 -0.0729149 0 0 Z M-15.8828125 35.51757812 C-18.52819028 39.69284153 -18.156559 44.36507907 -18.11328125 49.15820312 C-18.11282303 49.99865173 -18.11236481 50.83910034 -18.1118927 51.70501709 C-18.10887579 53.4869528 -18.10100625 55.26888601 -18.08862305 57.05078125 C-18.07065408 59.71689724 -18.06811177 62.38265857 -18.06835938 65.04882812 C-18.09811941 86.47746462 -18.09811941 86.47746462 -15.1328125 107.64257812 C-14.9565332 108.47893799 -14.78025391 109.31529785 -14.59863281 110.17700195 C-9.57929569 133.09907947 0.57476 154.95148467 16.81640625 172.07617188 C18.62529207 173.99561778 20.32909274 175.93961719 22.03515625 177.94726562 C27.60740361 184.34508641 33.72524796 190.23054521 39.7421875 196.20507812 C40.96898482 197.42684759 42.19554903 198.64885118 43.421875 199.87109375 C45.67385736 202.11497436 47.92717387 204.35749556 50.18212891 206.59838867 C50.67545715 207.08963226 51.1687854 207.58087585 51.67706299 208.08700562 C53.07761911 209.47827218 54.48476451 210.86289561 55.89208984 212.24731445 C59.82907993 216.26421931 61.7843712 219.85970109 62.1171875 225.51757812 C61.04484408 231.59003445 59.27449479 235.27682557 55.0546875 239.83007812 C54.05250699 240.96081059 53.05121717 242.09233306 52.05078125 243.22460938 C51.55304199 243.77971191 51.05530273 244.33481445 50.54248047 244.90673828 C48.4958036 247.21985476 46.55707451 249.61464394 44.6171875 252.01757812 C41.3289468 256.0574167 37.98973954 260.04829454 34.6171875 264.01757812 C30.52968141 268.83295765 26.47894031 273.67414455 22.5 278.58007812 C20.73462733 280.7564064 18.95785753 282.9208195 17.171875 285.08007812 C10.78304411 292.85756654 5.02617296 300.69578208 0.1171875 309.51757812 C-0.21764648 310.11618652 -0.55248047 310.71479492 -0.89746094 311.33154297 C-14.88177494 336.68057412 -17.88480758 363.13615713 -18.05703735 391.64816284 C-18.06583711 393.05306952 -18.07734133 394.45796205 -18.09164429 395.86282349 C-18.109558 397.85704928 -18.11166964 399.85139752 -18.11328125 401.84570312 C-18.11739014 403.01004883 -18.12149902 404.17439453 -18.12573242 405.37402344 C-17.81281077 409.42344974 -17.18152651 412.2224618 -14.26064205 415.13525486 C-10.95132345 417.05908833 -8.42070029 416.89821356 -4.60194397 416.90525818 C-3.86701467 416.91064372 -3.13208538 416.91602925 -2.3748855 416.92157799 C0.08870676 416.93589002 2.55176415 416.92874605 5.01538086 416.92163086 C6.78123914 416.92733275 8.54709374 416.9342963 10.3129425 416.94242859 C15.11046202 416.96039531 19.90779898 416.95918501 24.70534205 416.9534862 C28.70894873 416.95039939 32.71252008 416.95648116 36.71612173 416.96252495 C46.16030561 416.97658014 55.60439904 416.97500065 65.04858398 416.96362305 C74.79505458 416.95214081 84.54125005 416.96621702 94.28768438 416.99301952 C102.65297414 417.01516348 111.01817745 417.02181684 119.38349444 417.01594311 C124.38090734 417.01256921 129.37814386 417.01501733 134.37553215 417.03219414 C139.07468382 417.0476404 143.77342738 417.04373357 148.47256279 417.02488899 C150.19751405 417.02119666 151.92249539 417.02433032 153.64741898 417.03477478 C156.00186382 417.04794292 158.35494924 417.03647576 160.70933533 417.01878357 C162.02691298 417.01857429 163.34449064 417.018365 164.7019949 417.01814938 C168.66265217 416.43762833 170.31284604 415.31701219 173.1171875 412.51757812 C174.57475996 409.18427717 174.24653316 405.53822516 174.25 401.94335938 C174.25225586 400.64438721 174.25451172 399.34541504 174.25683594 398.00708008 C174.25280822 396.61474336 174.24790855 395.22240892 174.2421875 393.83007812 C174.23997192 393.12684418 174.23775635 392.42361023 174.23547363 391.69906616 C174.07383994 348.15059892 163.52672091 312.96747376 134.45117188 280.04882812 C132.65149018 277.98301488 130.94114367 275.85418508 129.2421875 273.70507812 C125.71308578 269.24266025 122.11181671 264.84406373 118.4921875 260.45507812 C117.90034668 259.73642578 117.30850586 259.01777344 116.69873047 258.27734375 C113.53375477 254.43700376 110.35897618 250.60520385 107.171875 246.78320312 C106.21595459 245.63283569 106.21595459 245.63283569 105.24072266 244.45922852 C104.0170617 242.98697655 102.79030398 241.51729144 101.56005859 240.05053711 C101.00656738 239.38352783 100.45307617 238.71651855 99.8828125 238.02929688 C99.39586914 237.44623779 98.90892578 236.86317871 98.40722656 236.26245117 C95.41730208 232.21835763 94.36511524 228.55877554 94.1171875 223.51757812 C95.43349611 215.27527422 100.28738884 210.6067266 106.140625 205.04882812 C107.03778229 204.16964722 107.93493958 203.29046631 108.85928345 202.38464355 C111.24114398 200.05251534 113.63394766 197.73313012 116.03503418 195.42089844 C139.94881285 172.68419774 139.94881285 172.68419774 157.9921875 145.26757812 C158.43433594 144.3997168 158.87648438 143.53185547 159.33203125 142.63769531 C171.99103017 116.99676383 174.29480599 90.71178535 174.35742188 62.55029297 C174.36730461 59.86070785 174.39854539 57.17183478 174.4296875 54.48242188 C174.4362045 52.75195756 174.44146006 51.02148792 174.4453125 49.29101562 C174.4638327 48.10032974 174.4638327 48.10032974 174.48272705 46.8855896 C174.46342589 42.07020892 173.95465031 38.59749399 171.1171875 34.51757812 C167.03235123 32.35205292 163.44799626 32.26418519 158.87464905 32.25688171 C157.79653313 32.25114339 157.79653313 32.25114339 156.69663709 32.24528915 C154.2938583 32.23498956 151.89131982 32.23894545 149.48852539 32.24291992 C147.76355265 32.23857177 146.03858183 32.23338828 144.31361389 32.22743225 C139.63181647 32.2140424 134.95009978 32.21346354 130.26828694 32.21599555 C126.35917366 32.21706522 122.45007671 32.21218202 118.54096693 32.20739013 C109.31872138 32.1962951 100.09651657 32.19585759 90.87426758 32.2019043 C81.36130542 32.20794571 71.84849111 32.19562881 62.33555418 32.17433423 C54.1664155 32.15672032 45.99732388 32.15071652 37.8281669 32.15397197 C32.9498117 32.15578523 28.07156196 32.15314435 23.19322395 32.13925743 C18.60574484 32.12668707 14.01849629 32.12861569 9.43102074 32.14166832 C7.74841357 32.14403534 6.06579021 32.14129492 4.3832016 32.1330452 C2.08410338 32.12258643 -0.21421992 32.13067079 -2.51329041 32.14335632 C-3.79915008 32.14318858 -5.08500975 32.14302084 -6.40983486 32.14284801 C-10.21522419 32.55344495 -12.6346098 33.52389952 -15.8828125 35.51757812 Z " fill="#000000" transform="translate(177.8828125,31.482421875)"/>
<path d="M0 0 C1.04462402 -0.00700928 2.08924805 -0.01401855 3.16552734 -0.02124023 C6.61062381 -0.0388121 10.05489551 -0.02719969 13.5 -0.01367188 C15.8984391 -0.016367 18.29687714 -0.0202496 20.6953125 -0.02526855 C25.71885595 -0.03116254 30.74211467 -0.02260346 35.765625 -0.00390625 C42.20189072 0.01888275 48.63748922 0.00575921 55.07373047 -0.01819611 C60.02544168 -0.03265649 64.97699495 -0.02804688 69.92871094 -0.01768494 C72.30175862 -0.01501834 74.67482068 -0.01828502 77.04785156 -0.02760315 C80.36562028 -0.03777219 83.68231145 -0.02226121 87 0 C88.46832275 -0.01214539 88.46832275 -0.01214539 89.96630859 -0.02453613 C95.66037885 0.04617256 98.99980593 0.68240588 103.5 4.51757812 C107.12833663 8.33687985 107.81000458 11.40036819 108 16.51757812 C107.81000458 21.63478806 107.12833663 24.6982764 103.5 28.51757812 C98.13277344 33.09165605 93.72889928 33.09081505 87 33.03515625 C85.95537598 33.04216553 84.91075195 33.0491748 83.83447266 33.05639648 C80.38937619 33.07396835 76.94510449 33.06235594 73.5 33.04882812 C71.1015609 33.05152325 68.70312286 33.05540585 66.3046875 33.0604248 C61.28114405 33.06631879 56.25788533 33.05775971 51.234375 33.0390625 C44.79810928 33.0162735 38.36251078 33.02939704 31.92626953 33.05335236 C26.97455832 33.06781274 22.02300505 33.06320313 17.07128906 33.05284119 C14.69824138 33.05017459 12.32517932 33.05344127 9.95214844 33.0627594 C6.63437972 33.07292844 3.31768855 33.05741746 0 33.03515625 C-1.46832275 33.04730164 -1.46832275 33.04730164 -2.96630859 33.05969238 C-8.66037885 32.98898369 -11.99980593 32.35275037 -16.5 28.51757812 C-20.12833663 24.6982764 -20.81000458 21.63478806 -21 16.51757812 C-20.81000458 11.40036819 -20.12833663 8.33687985 -16.5 4.51757812 C-11.13277344 -0.0564998 -6.72889928 -0.0556588 0 0 Z " fill="#000000" transform="translate(212.5,399.482421875)"/>
</svg>
